M48
; DRILL file {KiCad 7.0.5-7.0.5~ubuntu22.04.1} date Thu 06 Jun 2024 16:52:32 BST
; FORMAT={-:-/ absolute / inch / decimal}
; #@! TF.CreationDate,2024-06-06T16:52:32+01:00
; #@! TF.GenerationSoftware,Kicad,Pcbnew,7.0.5-7.0.5~ubuntu22.04.1
; #@! TF.FileFunction,Plated,1,2,PTH
FMAT,2
INCH
; #@! TA.AperFunction,Plated,PTH,ViaDrill
T1C0.0157
; #@! TA.AperFunction,Plated,PTH,ComponentDrill
T2C0.0295
; #@! TA.AperFunction,Plated,PTH,ComponentDrill
T3C0.0394
%
G90
G05
T1
X4.2126Y-2.313
X4.2126Y-2.8642
X4.2126Y-3.3366
X4.2126Y-4.0453
X4.2126Y-4.872
X4.2126Y-5.4626
X4.9213Y-2.8642
X4.9213Y-3.3366
X4.9213Y-4.872
X4.9213Y-5.6988
X5.5118Y-2.8642
X5.5118Y-3.3366
X5.5118Y-4.872
X6.1417Y-2.8642
X6.1417Y-3.3366
X6.1811Y-4.872
X6.3268Y-4.2185
X6.5157Y-4.2264
X6.811Y-3.3366
X6.8504Y-2.313
X6.8504Y-2.8642
X6.8504Y-4.0453
X6.8504Y-4.872
X6.8504Y-5.4626
T2
X6.7441Y-4.2697
X6.7441Y-4.3484
T3
X4.2815Y-4.3504
X4.2815Y-4.4488
X4.3209Y-2.4606
X4.3209Y-2.5591
X5.4724Y-4.2539
X5.5709Y-4.2539
T0
M30
