%TF.GenerationSoftware,KiCad,Pcbnew,7.0.5-7.0.5~ubuntu22.04.1*%
%TF.CreationDate,2024-06-06T16:52:33+01:00*%
%TF.ProjectId,PBA0055-APRS-digirepeater-backplane-100x70,50424130-3035-4352-9d41-5052532d6469,rev?*%
%TF.SameCoordinates,Original*%
%TF.FileFunction,Drillmap*%
%TF.FilePolarity,Positive*%
%FSLAX45Y45*%
G04 Gerber Fmt 4.5, Leading zero omitted, Abs format (unit mm)*
G04 Created by KiCad (PCBNEW 7.0.5-7.0.5~ubuntu22.04.1) date 2024-06-06 16:52:33*
%MOMM*%
%LPD*%
G01*
G04 APERTURE LIST*
%ADD10C,0.100000*%
%ADD11C,0.200000*%
%ADD12C,0.040000*%
%ADD13C,0.075000*%
G04 APERTURE END LIST*
D10*
X15125000Y-5200000D02*
X15125000Y-5575000D01*
X15070000Y-14525000D02*
X15070000Y-14450000D01*
X10629289Y-4904289D02*
G75*
G03*
X10529289Y-5004289I1J-100001D01*
G01*
X12925000Y-5200000D02*
X12925000Y-5575000D01*
X10529291Y-14804289D02*
G75*
G03*
X10629289Y-14904289I99999J-1D01*
G01*
X15070000Y-14525000D02*
X15070000Y-14705000D01*
X15325000Y-4904290D02*
G75*
G03*
X15125000Y-5104289I0J-200000D01*
G01*
X15125000Y-5104289D02*
X15125000Y-5200000D01*
X17529289Y-14804289D02*
X17529289Y-14754289D01*
X12925000Y-5575000D02*
X14025000Y-5575000D01*
X11109000Y-10075000D02*
G75*
G03*
X11509000Y-10075000I200000J0D01*
G01*
X17429289Y-4904289D02*
X15325000Y-4904289D01*
X10529289Y-14804289D02*
X10529289Y-5004289D01*
X12725000Y-4904289D02*
X10629289Y-4904289D01*
X12970000Y-14450000D02*
X12970000Y-14375000D01*
X12970000Y-14525000D02*
X12970000Y-14450000D01*
X15070000Y-14450000D02*
X15070000Y-14375000D01*
X11509000Y-10075000D02*
X11509000Y-9925000D01*
X12770000Y-14904290D02*
G75*
G03*
X12970000Y-14704289I0J200000D01*
G01*
X11109000Y-9925000D02*
X11109000Y-10075000D01*
X12925001Y-5104289D02*
G75*
G03*
X12725000Y-4904289I-200001J-1D01*
G01*
X15270000Y-14905000D02*
X17429289Y-14905000D01*
X17529289Y-5763000D02*
X17529289Y-14035000D01*
X17529289Y-5004289D02*
X17529289Y-5027000D01*
X12970000Y-14375000D02*
X14050000Y-14375000D01*
X12970000Y-14704289D02*
X12970000Y-14525000D01*
X15070000Y-14705000D02*
G75*
G03*
X15270000Y-14905000I200000J0D01*
G01*
X15125000Y-5575000D02*
X14025000Y-5575000D01*
X17429289Y-14904289D02*
G75*
G03*
X17529289Y-14804289I1J99999D01*
G01*
X12925000Y-5104289D02*
X12925000Y-5200000D01*
X15070000Y-14375000D02*
X14050000Y-14375000D01*
X11509000Y-9925000D02*
G75*
G03*
X11109000Y-9925000I-200000J0D01*
G01*
X17529289Y-14754289D02*
X17529289Y-14035000D01*
X10629289Y-14904289D02*
X12770000Y-14904289D01*
X17529291Y-5004289D02*
G75*
G03*
X17429289Y-4904289I-100001J-1D01*
G01*
X17529289Y-5763000D02*
X17529289Y-5027000D01*
D11*
D12*
X10680000Y-5855000D02*
X10720000Y-5895000D01*
X10720000Y-5855000D02*
X10680000Y-5895000D01*
X10680000Y-7255000D02*
X10720000Y-7295000D01*
X10720000Y-7255000D02*
X10680000Y-7295000D01*
X10680000Y-8455000D02*
X10720000Y-8495000D01*
X10720000Y-8455000D02*
X10680000Y-8495000D01*
X10680000Y-10255000D02*
X10720000Y-10295000D01*
X10720000Y-10255000D02*
X10680000Y-10295000D01*
X10680000Y-12355000D02*
X10720000Y-12395000D01*
X10720000Y-12355000D02*
X10680000Y-12395000D01*
X10680000Y-13855000D02*
X10720000Y-13895000D01*
X10720000Y-13855000D02*
X10680000Y-13895000D01*
X12480000Y-7255000D02*
X12520000Y-7295000D01*
X12520000Y-7255000D02*
X12480000Y-7295000D01*
X12480000Y-8455000D02*
X12520000Y-8495000D01*
X12520000Y-8455000D02*
X12480000Y-8495000D01*
X12480000Y-12355000D02*
X12520000Y-12395000D01*
X12520000Y-12355000D02*
X12480000Y-12395000D01*
X12480000Y-14455000D02*
X12520000Y-14495000D01*
X12520000Y-14455000D02*
X12480000Y-14495000D01*
X13980000Y-7255000D02*
X14020000Y-7295000D01*
X14020000Y-7255000D02*
X13980000Y-7295000D01*
X13980000Y-8455000D02*
X14020000Y-8495000D01*
X14020000Y-8455000D02*
X13980000Y-8495000D01*
X13980000Y-12355000D02*
X14020000Y-12395000D01*
X14020000Y-12355000D02*
X13980000Y-12395000D01*
X15580000Y-7255000D02*
X15620000Y-7295000D01*
X15620000Y-7255000D02*
X15580000Y-7295000D01*
X15580000Y-8455000D02*
X15620000Y-8495000D01*
X15620000Y-8455000D02*
X15580000Y-8495000D01*
X15680000Y-12355000D02*
X15720000Y-12395000D01*
X15720000Y-12355000D02*
X15680000Y-12395000D01*
X16050000Y-10695000D02*
X16090000Y-10735000D01*
X16090000Y-10695000D02*
X16050000Y-10735000D01*
X16530000Y-10715000D02*
X16570000Y-10755000D01*
X16570000Y-10715000D02*
X16530000Y-10755000D01*
X17280000Y-8455000D02*
X17320000Y-8495000D01*
X17320000Y-8455000D02*
X17280000Y-8495000D01*
X17380000Y-5855000D02*
X17420000Y-5895000D01*
X17420000Y-5855000D02*
X17380000Y-5895000D01*
X17380000Y-7255000D02*
X17420000Y-7295000D01*
X17420000Y-7255000D02*
X17380000Y-7295000D01*
X17380000Y-10255000D02*
X17420000Y-10295000D01*
X17420000Y-10255000D02*
X17380000Y-10295000D01*
X17380000Y-12355000D02*
X17420000Y-12395000D01*
X17420000Y-12355000D02*
X17380000Y-12395000D01*
X17380000Y-13855000D02*
X17420000Y-13895000D01*
X17420000Y-13855000D02*
X17380000Y-13895000D01*
D13*
X17167500Y-10845000D02*
G75*
G03*
X17167500Y-10845000I-37500J0D01*
G01*
X17167500Y-11045000D02*
G75*
G03*
X17167500Y-11045000I-37500J0D01*
G01*
D10*
X10875000Y-11000000D02*
X10875000Y-11100000D01*
X10825000Y-11050000D02*
X10925000Y-11050000D01*
X10875000Y-11250000D02*
X10875000Y-11350000D01*
X10825000Y-11300000D02*
X10925000Y-11300000D01*
X10975000Y-6200000D02*
X10975000Y-6300000D01*
X10925000Y-6250000D02*
X11025000Y-6250000D01*
X10975000Y-6450000D02*
X10975000Y-6550000D01*
X10925000Y-6500000D02*
X11025000Y-6500000D01*
X13900000Y-10755000D02*
X13900000Y-10855000D01*
X13850000Y-10805000D02*
X13950000Y-10805000D01*
X14150000Y-10755000D02*
X14150000Y-10855000D01*
X14100000Y-10805000D02*
X14200000Y-10805000D01*
D11*
X10785066Y-15221484D02*
X10785066Y-15021484D01*
X10785066Y-15021484D02*
X10832685Y-15021484D01*
X10832685Y-15021484D02*
X10861257Y-15031008D01*
X10861257Y-15031008D02*
X10880304Y-15050055D01*
X10880304Y-15050055D02*
X10889828Y-15069103D01*
X10889828Y-15069103D02*
X10899352Y-15107198D01*
X10899352Y-15107198D02*
X10899352Y-15135769D01*
X10899352Y-15135769D02*
X10889828Y-15173865D01*
X10889828Y-15173865D02*
X10880304Y-15192912D01*
X10880304Y-15192912D02*
X10861257Y-15211960D01*
X10861257Y-15211960D02*
X10832685Y-15221484D01*
X10832685Y-15221484D02*
X10785066Y-15221484D01*
X10985066Y-15221484D02*
X10985066Y-15088150D01*
X10985066Y-15126246D02*
X10994590Y-15107198D01*
X10994590Y-15107198D02*
X11004114Y-15097674D01*
X11004114Y-15097674D02*
X11023161Y-15088150D01*
X11023161Y-15088150D02*
X11042209Y-15088150D01*
X11108876Y-15221484D02*
X11108876Y-15088150D01*
X11108876Y-15021484D02*
X11099352Y-15031008D01*
X11099352Y-15031008D02*
X11108876Y-15040531D01*
X11108876Y-15040531D02*
X11118399Y-15031008D01*
X11118399Y-15031008D02*
X11108876Y-15021484D01*
X11108876Y-15021484D02*
X11108876Y-15040531D01*
X11232685Y-15221484D02*
X11213637Y-15211960D01*
X11213637Y-15211960D02*
X11204114Y-15192912D01*
X11204114Y-15192912D02*
X11204114Y-15021484D01*
X11337447Y-15221484D02*
X11318399Y-15211960D01*
X11318399Y-15211960D02*
X11308876Y-15192912D01*
X11308876Y-15192912D02*
X11308876Y-15021484D01*
X11566018Y-15221484D02*
X11566018Y-15021484D01*
X11566018Y-15021484D02*
X11632685Y-15164341D01*
X11632685Y-15164341D02*
X11699352Y-15021484D01*
X11699352Y-15021484D02*
X11699352Y-15221484D01*
X11880304Y-15221484D02*
X11880304Y-15116722D01*
X11880304Y-15116722D02*
X11870780Y-15097674D01*
X11870780Y-15097674D02*
X11851733Y-15088150D01*
X11851733Y-15088150D02*
X11813637Y-15088150D01*
X11813637Y-15088150D02*
X11794590Y-15097674D01*
X11880304Y-15211960D02*
X11861257Y-15221484D01*
X11861257Y-15221484D02*
X11813637Y-15221484D01*
X11813637Y-15221484D02*
X11794590Y-15211960D01*
X11794590Y-15211960D02*
X11785066Y-15192912D01*
X11785066Y-15192912D02*
X11785066Y-15173865D01*
X11785066Y-15173865D02*
X11794590Y-15154817D01*
X11794590Y-15154817D02*
X11813637Y-15145293D01*
X11813637Y-15145293D02*
X11861257Y-15145293D01*
X11861257Y-15145293D02*
X11880304Y-15135769D01*
X11975542Y-15088150D02*
X11975542Y-15288150D01*
X11975542Y-15097674D02*
X11994590Y-15088150D01*
X11994590Y-15088150D02*
X12032685Y-15088150D01*
X12032685Y-15088150D02*
X12051733Y-15097674D01*
X12051733Y-15097674D02*
X12061257Y-15107198D01*
X12061257Y-15107198D02*
X12070780Y-15126246D01*
X12070780Y-15126246D02*
X12070780Y-15183388D01*
X12070780Y-15183388D02*
X12061257Y-15202436D01*
X12061257Y-15202436D02*
X12051733Y-15211960D01*
X12051733Y-15211960D02*
X12032685Y-15221484D01*
X12032685Y-15221484D02*
X11994590Y-15221484D01*
X11994590Y-15221484D02*
X11975542Y-15211960D01*
X12156495Y-15202436D02*
X12166018Y-15211960D01*
X12166018Y-15211960D02*
X12156495Y-15221484D01*
X12156495Y-15221484D02*
X12146971Y-15211960D01*
X12146971Y-15211960D02*
X12156495Y-15202436D01*
X12156495Y-15202436D02*
X12156495Y-15221484D01*
X12156495Y-15097674D02*
X12166018Y-15107198D01*
X12166018Y-15107198D02*
X12156495Y-15116722D01*
X12156495Y-15116722D02*
X12146971Y-15107198D01*
X12146971Y-15107198D02*
X12156495Y-15097674D01*
X12156495Y-15097674D02*
X12156495Y-15116722D01*
D12*
X10484289Y-15530000D02*
X10524289Y-15570000D01*
X10524289Y-15530000D02*
X10484289Y-15570000D01*
D11*
X10823161Y-15441484D02*
X10842209Y-15441484D01*
X10842209Y-15441484D02*
X10861257Y-15451008D01*
X10861257Y-15451008D02*
X10870780Y-15460531D01*
X10870780Y-15460531D02*
X10880304Y-15479579D01*
X10880304Y-15479579D02*
X10889828Y-15517674D01*
X10889828Y-15517674D02*
X10889828Y-15565293D01*
X10889828Y-15565293D02*
X10880304Y-15603388D01*
X10880304Y-15603388D02*
X10870780Y-15622436D01*
X10870780Y-15622436D02*
X10861257Y-15631960D01*
X10861257Y-15631960D02*
X10842209Y-15641484D01*
X10842209Y-15641484D02*
X10823161Y-15641484D01*
X10823161Y-15641484D02*
X10804114Y-15631960D01*
X10804114Y-15631960D02*
X10794590Y-15622436D01*
X10794590Y-15622436D02*
X10785066Y-15603388D01*
X10785066Y-15603388D02*
X10775542Y-15565293D01*
X10775542Y-15565293D02*
X10775542Y-15517674D01*
X10775542Y-15517674D02*
X10785066Y-15479579D01*
X10785066Y-15479579D02*
X10794590Y-15460531D01*
X10794590Y-15460531D02*
X10804114Y-15451008D01*
X10804114Y-15451008D02*
X10823161Y-15441484D01*
X10975542Y-15622436D02*
X10985066Y-15631960D01*
X10985066Y-15631960D02*
X10975542Y-15641484D01*
X10975542Y-15641484D02*
X10966019Y-15631960D01*
X10966019Y-15631960D02*
X10975542Y-15622436D01*
X10975542Y-15622436D02*
X10975542Y-15641484D01*
X11156495Y-15508150D02*
X11156495Y-15641484D01*
X11108876Y-15431960D02*
X11061257Y-15574817D01*
X11061257Y-15574817D02*
X11185066Y-15574817D01*
X11299352Y-15441484D02*
X11318399Y-15441484D01*
X11318399Y-15441484D02*
X11337447Y-15451008D01*
X11337447Y-15451008D02*
X11346971Y-15460531D01*
X11346971Y-15460531D02*
X11356495Y-15479579D01*
X11356495Y-15479579D02*
X11366018Y-15517674D01*
X11366018Y-15517674D02*
X11366018Y-15565293D01*
X11366018Y-15565293D02*
X11356495Y-15603388D01*
X11356495Y-15603388D02*
X11346971Y-15622436D01*
X11346971Y-15622436D02*
X11337447Y-15631960D01*
X11337447Y-15631960D02*
X11318399Y-15641484D01*
X11318399Y-15641484D02*
X11299352Y-15641484D01*
X11299352Y-15641484D02*
X11280304Y-15631960D01*
X11280304Y-15631960D02*
X11270780Y-15622436D01*
X11270780Y-15622436D02*
X11261257Y-15603388D01*
X11261257Y-15603388D02*
X11251733Y-15565293D01*
X11251733Y-15565293D02*
X11251733Y-15517674D01*
X11251733Y-15517674D02*
X11261257Y-15479579D01*
X11261257Y-15479579D02*
X11270780Y-15460531D01*
X11270780Y-15460531D02*
X11280304Y-15451008D01*
X11280304Y-15451008D02*
X11299352Y-15441484D01*
X11489828Y-15441484D02*
X11508876Y-15441484D01*
X11508876Y-15441484D02*
X11527923Y-15451008D01*
X11527923Y-15451008D02*
X11537447Y-15460531D01*
X11537447Y-15460531D02*
X11546971Y-15479579D01*
X11546971Y-15479579D02*
X11556495Y-15517674D01*
X11556495Y-15517674D02*
X11556495Y-15565293D01*
X11556495Y-15565293D02*
X11546971Y-15603388D01*
X11546971Y-15603388D02*
X11537447Y-15622436D01*
X11537447Y-15622436D02*
X11527923Y-15631960D01*
X11527923Y-15631960D02*
X11508876Y-15641484D01*
X11508876Y-15641484D02*
X11489828Y-15641484D01*
X11489828Y-15641484D02*
X11470780Y-15631960D01*
X11470780Y-15631960D02*
X11461257Y-15622436D01*
X11461257Y-15622436D02*
X11451733Y-15603388D01*
X11451733Y-15603388D02*
X11442209Y-15565293D01*
X11442209Y-15565293D02*
X11442209Y-15517674D01*
X11442209Y-15517674D02*
X11451733Y-15479579D01*
X11451733Y-15479579D02*
X11461257Y-15460531D01*
X11461257Y-15460531D02*
X11470780Y-15451008D01*
X11470780Y-15451008D02*
X11489828Y-15441484D01*
X11642209Y-15641484D02*
X11642209Y-15508150D01*
X11642209Y-15527198D02*
X11651733Y-15517674D01*
X11651733Y-15517674D02*
X11670780Y-15508150D01*
X11670780Y-15508150D02*
X11699352Y-15508150D01*
X11699352Y-15508150D02*
X11718399Y-15517674D01*
X11718399Y-15517674D02*
X11727923Y-15536722D01*
X11727923Y-15536722D02*
X11727923Y-15641484D01*
X11727923Y-15536722D02*
X11737447Y-15517674D01*
X11737447Y-15517674D02*
X11756495Y-15508150D01*
X11756495Y-15508150D02*
X11785066Y-15508150D01*
X11785066Y-15508150D02*
X11804114Y-15517674D01*
X11804114Y-15517674D02*
X11813638Y-15536722D01*
X11813638Y-15536722D02*
X11813638Y-15641484D01*
X11908876Y-15641484D02*
X11908876Y-15508150D01*
X11908876Y-15527198D02*
X11918399Y-15517674D01*
X11918399Y-15517674D02*
X11937447Y-15508150D01*
X11937447Y-15508150D02*
X11966019Y-15508150D01*
X11966019Y-15508150D02*
X11985066Y-15517674D01*
X11985066Y-15517674D02*
X11994590Y-15536722D01*
X11994590Y-15536722D02*
X11994590Y-15641484D01*
X11994590Y-15536722D02*
X12004114Y-15517674D01*
X12004114Y-15517674D02*
X12023161Y-15508150D01*
X12023161Y-15508150D02*
X12051733Y-15508150D01*
X12051733Y-15508150D02*
X12070780Y-15517674D01*
X12070780Y-15517674D02*
X12080304Y-15536722D01*
X12080304Y-15536722D02*
X12080304Y-15641484D01*
X12470780Y-15431960D02*
X12299352Y-15689103D01*
X12727923Y-15441484D02*
X12746971Y-15441484D01*
X12746971Y-15441484D02*
X12766019Y-15451008D01*
X12766019Y-15451008D02*
X12775542Y-15460531D01*
X12775542Y-15460531D02*
X12785066Y-15479579D01*
X12785066Y-15479579D02*
X12794590Y-15517674D01*
X12794590Y-15517674D02*
X12794590Y-15565293D01*
X12794590Y-15565293D02*
X12785066Y-15603388D01*
X12785066Y-15603388D02*
X12775542Y-15622436D01*
X12775542Y-15622436D02*
X12766019Y-15631960D01*
X12766019Y-15631960D02*
X12746971Y-15641484D01*
X12746971Y-15641484D02*
X12727923Y-15641484D01*
X12727923Y-15641484D02*
X12708876Y-15631960D01*
X12708876Y-15631960D02*
X12699352Y-15622436D01*
X12699352Y-15622436D02*
X12689828Y-15603388D01*
X12689828Y-15603388D02*
X12680304Y-15565293D01*
X12680304Y-15565293D02*
X12680304Y-15517674D01*
X12680304Y-15517674D02*
X12689828Y-15479579D01*
X12689828Y-15479579D02*
X12699352Y-15460531D01*
X12699352Y-15460531D02*
X12708876Y-15451008D01*
X12708876Y-15451008D02*
X12727923Y-15441484D01*
X12880304Y-15622436D02*
X12889828Y-15631960D01*
X12889828Y-15631960D02*
X12880304Y-15641484D01*
X12880304Y-15641484D02*
X12870781Y-15631960D01*
X12870781Y-15631960D02*
X12880304Y-15622436D01*
X12880304Y-15622436D02*
X12880304Y-15641484D01*
X13013638Y-15441484D02*
X13032685Y-15441484D01*
X13032685Y-15441484D02*
X13051733Y-15451008D01*
X13051733Y-15451008D02*
X13061257Y-15460531D01*
X13061257Y-15460531D02*
X13070781Y-15479579D01*
X13070781Y-15479579D02*
X13080304Y-15517674D01*
X13080304Y-15517674D02*
X13080304Y-15565293D01*
X13080304Y-15565293D02*
X13070781Y-15603388D01*
X13070781Y-15603388D02*
X13061257Y-15622436D01*
X13061257Y-15622436D02*
X13051733Y-15631960D01*
X13051733Y-15631960D02*
X13032685Y-15641484D01*
X13032685Y-15641484D02*
X13013638Y-15641484D01*
X13013638Y-15641484D02*
X12994590Y-15631960D01*
X12994590Y-15631960D02*
X12985066Y-15622436D01*
X12985066Y-15622436D02*
X12975542Y-15603388D01*
X12975542Y-15603388D02*
X12966019Y-15565293D01*
X12966019Y-15565293D02*
X12966019Y-15517674D01*
X12966019Y-15517674D02*
X12975542Y-15479579D01*
X12975542Y-15479579D02*
X12985066Y-15460531D01*
X12985066Y-15460531D02*
X12994590Y-15451008D01*
X12994590Y-15451008D02*
X13013638Y-15441484D01*
X13270781Y-15641484D02*
X13156495Y-15641484D01*
X13213638Y-15641484D02*
X13213638Y-15441484D01*
X13213638Y-15441484D02*
X13194590Y-15470055D01*
X13194590Y-15470055D02*
X13175542Y-15489103D01*
X13175542Y-15489103D02*
X13156495Y-15498627D01*
X13451733Y-15441484D02*
X13356495Y-15441484D01*
X13356495Y-15441484D02*
X13346971Y-15536722D01*
X13346971Y-15536722D02*
X13356495Y-15527198D01*
X13356495Y-15527198D02*
X13375542Y-15517674D01*
X13375542Y-15517674D02*
X13423162Y-15517674D01*
X13423162Y-15517674D02*
X13442209Y-15527198D01*
X13442209Y-15527198D02*
X13451733Y-15536722D01*
X13451733Y-15536722D02*
X13461257Y-15555769D01*
X13461257Y-15555769D02*
X13461257Y-15603388D01*
X13461257Y-15603388D02*
X13451733Y-15622436D01*
X13451733Y-15622436D02*
X13442209Y-15631960D01*
X13442209Y-15631960D02*
X13423162Y-15641484D01*
X13423162Y-15641484D02*
X13375542Y-15641484D01*
X13375542Y-15641484D02*
X13356495Y-15631960D01*
X13356495Y-15631960D02*
X13346971Y-15622436D01*
X13527923Y-15441484D02*
X13661257Y-15441484D01*
X13661257Y-15441484D02*
X13575542Y-15641484D01*
X13727923Y-15441484D02*
X13727923Y-15479579D01*
X13804114Y-15441484D02*
X13804114Y-15479579D01*
X14099352Y-15717674D02*
X14089828Y-15708150D01*
X14089828Y-15708150D02*
X14070781Y-15679579D01*
X14070781Y-15679579D02*
X14061257Y-15660531D01*
X14061257Y-15660531D02*
X14051733Y-15631960D01*
X14051733Y-15631960D02*
X14042209Y-15584341D01*
X14042209Y-15584341D02*
X14042209Y-15546246D01*
X14042209Y-15546246D02*
X14051733Y-15498627D01*
X14051733Y-15498627D02*
X14061257Y-15470055D01*
X14061257Y-15470055D02*
X14070781Y-15451008D01*
X14070781Y-15451008D02*
X14089828Y-15422436D01*
X14089828Y-15422436D02*
X14099352Y-15412912D01*
X14166019Y-15460531D02*
X14175543Y-15451008D01*
X14175543Y-15451008D02*
X14194590Y-15441484D01*
X14194590Y-15441484D02*
X14242209Y-15441484D01*
X14242209Y-15441484D02*
X14261257Y-15451008D01*
X14261257Y-15451008D02*
X14270781Y-15460531D01*
X14270781Y-15460531D02*
X14280304Y-15479579D01*
X14280304Y-15479579D02*
X14280304Y-15498627D01*
X14280304Y-15498627D02*
X14270781Y-15527198D01*
X14270781Y-15527198D02*
X14156495Y-15641484D01*
X14156495Y-15641484D02*
X14280304Y-15641484D01*
X14451733Y-15508150D02*
X14451733Y-15641484D01*
X14404114Y-15431960D02*
X14356495Y-15574817D01*
X14356495Y-15574817D02*
X14480304Y-15574817D01*
X14708876Y-15641484D02*
X14708876Y-15441484D01*
X14794590Y-15641484D02*
X14794590Y-15536722D01*
X14794590Y-15536722D02*
X14785066Y-15517674D01*
X14785066Y-15517674D02*
X14766019Y-15508150D01*
X14766019Y-15508150D02*
X14737447Y-15508150D01*
X14737447Y-15508150D02*
X14718400Y-15517674D01*
X14718400Y-15517674D02*
X14708876Y-15527198D01*
X14918400Y-15641484D02*
X14899352Y-15631960D01*
X14899352Y-15631960D02*
X14889828Y-15622436D01*
X14889828Y-15622436D02*
X14880305Y-15603388D01*
X14880305Y-15603388D02*
X14880305Y-15546246D01*
X14880305Y-15546246D02*
X14889828Y-15527198D01*
X14889828Y-15527198D02*
X14899352Y-15517674D01*
X14899352Y-15517674D02*
X14918400Y-15508150D01*
X14918400Y-15508150D02*
X14946971Y-15508150D01*
X14946971Y-15508150D02*
X14966019Y-15517674D01*
X14966019Y-15517674D02*
X14975543Y-15527198D01*
X14975543Y-15527198D02*
X14985066Y-15546246D01*
X14985066Y-15546246D02*
X14985066Y-15603388D01*
X14985066Y-15603388D02*
X14975543Y-15622436D01*
X14975543Y-15622436D02*
X14966019Y-15631960D01*
X14966019Y-15631960D02*
X14946971Y-15641484D01*
X14946971Y-15641484D02*
X14918400Y-15641484D01*
X15099352Y-15641484D02*
X15080305Y-15631960D01*
X15080305Y-15631960D02*
X15070781Y-15612912D01*
X15070781Y-15612912D02*
X15070781Y-15441484D01*
X15251733Y-15631960D02*
X15232686Y-15641484D01*
X15232686Y-15641484D02*
X15194590Y-15641484D01*
X15194590Y-15641484D02*
X15175543Y-15631960D01*
X15175543Y-15631960D02*
X15166019Y-15612912D01*
X15166019Y-15612912D02*
X15166019Y-15536722D01*
X15166019Y-15536722D02*
X15175543Y-15517674D01*
X15175543Y-15517674D02*
X15194590Y-15508150D01*
X15194590Y-15508150D02*
X15232686Y-15508150D01*
X15232686Y-15508150D02*
X15251733Y-15517674D01*
X15251733Y-15517674D02*
X15261257Y-15536722D01*
X15261257Y-15536722D02*
X15261257Y-15555769D01*
X15261257Y-15555769D02*
X15166019Y-15574817D01*
X15337447Y-15631960D02*
X15356495Y-15641484D01*
X15356495Y-15641484D02*
X15394590Y-15641484D01*
X15394590Y-15641484D02*
X15413638Y-15631960D01*
X15413638Y-15631960D02*
X15423162Y-15612912D01*
X15423162Y-15612912D02*
X15423162Y-15603388D01*
X15423162Y-15603388D02*
X15413638Y-15584341D01*
X15413638Y-15584341D02*
X15394590Y-15574817D01*
X15394590Y-15574817D02*
X15366019Y-15574817D01*
X15366019Y-15574817D02*
X15346971Y-15565293D01*
X15346971Y-15565293D02*
X15337447Y-15546246D01*
X15337447Y-15546246D02*
X15337447Y-15536722D01*
X15337447Y-15536722D02*
X15346971Y-15517674D01*
X15346971Y-15517674D02*
X15366019Y-15508150D01*
X15366019Y-15508150D02*
X15394590Y-15508150D01*
X15394590Y-15508150D02*
X15413638Y-15517674D01*
X15489828Y-15717674D02*
X15499352Y-15708150D01*
X15499352Y-15708150D02*
X15518400Y-15679579D01*
X15518400Y-15679579D02*
X15527924Y-15660531D01*
X15527924Y-15660531D02*
X15537447Y-15631960D01*
X15537447Y-15631960D02*
X15546971Y-15584341D01*
X15546971Y-15584341D02*
X15546971Y-15546246D01*
X15546971Y-15546246D02*
X15537447Y-15498627D01*
X15537447Y-15498627D02*
X15527924Y-15470055D01*
X15527924Y-15470055D02*
X15518400Y-15451008D01*
X15518400Y-15451008D02*
X15499352Y-15422436D01*
X15499352Y-15422436D02*
X15489828Y-15412912D01*
D13*
X10524289Y-15814000D02*
G75*
G03*
X10524289Y-15814000I-37500J0D01*
G01*
D11*
X10823161Y-15705484D02*
X10842209Y-15705484D01*
X10842209Y-15705484D02*
X10861257Y-15715008D01*
X10861257Y-15715008D02*
X10870780Y-15724531D01*
X10870780Y-15724531D02*
X10880304Y-15743579D01*
X10880304Y-15743579D02*
X10889828Y-15781674D01*
X10889828Y-15781674D02*
X10889828Y-15829293D01*
X10889828Y-15829293D02*
X10880304Y-15867388D01*
X10880304Y-15867388D02*
X10870780Y-15886436D01*
X10870780Y-15886436D02*
X10861257Y-15895960D01*
X10861257Y-15895960D02*
X10842209Y-15905484D01*
X10842209Y-15905484D02*
X10823161Y-15905484D01*
X10823161Y-15905484D02*
X10804114Y-15895960D01*
X10804114Y-15895960D02*
X10794590Y-15886436D01*
X10794590Y-15886436D02*
X10785066Y-15867388D01*
X10785066Y-15867388D02*
X10775542Y-15829293D01*
X10775542Y-15829293D02*
X10775542Y-15781674D01*
X10775542Y-15781674D02*
X10785066Y-15743579D01*
X10785066Y-15743579D02*
X10794590Y-15724531D01*
X10794590Y-15724531D02*
X10804114Y-15715008D01*
X10804114Y-15715008D02*
X10823161Y-15705484D01*
X10975542Y-15886436D02*
X10985066Y-15895960D01*
X10985066Y-15895960D02*
X10975542Y-15905484D01*
X10975542Y-15905484D02*
X10966019Y-15895960D01*
X10966019Y-15895960D02*
X10975542Y-15886436D01*
X10975542Y-15886436D02*
X10975542Y-15905484D01*
X11051733Y-15705484D02*
X11185066Y-15705484D01*
X11185066Y-15705484D02*
X11099352Y-15905484D01*
X11356495Y-15705484D02*
X11261257Y-15705484D01*
X11261257Y-15705484D02*
X11251733Y-15800722D01*
X11251733Y-15800722D02*
X11261257Y-15791198D01*
X11261257Y-15791198D02*
X11280304Y-15781674D01*
X11280304Y-15781674D02*
X11327923Y-15781674D01*
X11327923Y-15781674D02*
X11346971Y-15791198D01*
X11346971Y-15791198D02*
X11356495Y-15800722D01*
X11356495Y-15800722D02*
X11366018Y-15819769D01*
X11366018Y-15819769D02*
X11366018Y-15867388D01*
X11366018Y-15867388D02*
X11356495Y-15886436D01*
X11356495Y-15886436D02*
X11346971Y-15895960D01*
X11346971Y-15895960D02*
X11327923Y-15905484D01*
X11327923Y-15905484D02*
X11280304Y-15905484D01*
X11280304Y-15905484D02*
X11261257Y-15895960D01*
X11261257Y-15895960D02*
X11251733Y-15886436D01*
X11489828Y-15705484D02*
X11508876Y-15705484D01*
X11508876Y-15705484D02*
X11527923Y-15715008D01*
X11527923Y-15715008D02*
X11537447Y-15724531D01*
X11537447Y-15724531D02*
X11546971Y-15743579D01*
X11546971Y-15743579D02*
X11556495Y-15781674D01*
X11556495Y-15781674D02*
X11556495Y-15829293D01*
X11556495Y-15829293D02*
X11546971Y-15867388D01*
X11546971Y-15867388D02*
X11537447Y-15886436D01*
X11537447Y-15886436D02*
X11527923Y-15895960D01*
X11527923Y-15895960D02*
X11508876Y-15905484D01*
X11508876Y-15905484D02*
X11489828Y-15905484D01*
X11489828Y-15905484D02*
X11470780Y-15895960D01*
X11470780Y-15895960D02*
X11461257Y-15886436D01*
X11461257Y-15886436D02*
X11451733Y-15867388D01*
X11451733Y-15867388D02*
X11442209Y-15829293D01*
X11442209Y-15829293D02*
X11442209Y-15781674D01*
X11442209Y-15781674D02*
X11451733Y-15743579D01*
X11451733Y-15743579D02*
X11461257Y-15724531D01*
X11461257Y-15724531D02*
X11470780Y-15715008D01*
X11470780Y-15715008D02*
X11489828Y-15705484D01*
X11642209Y-15905484D02*
X11642209Y-15772150D01*
X11642209Y-15791198D02*
X11651733Y-15781674D01*
X11651733Y-15781674D02*
X11670780Y-15772150D01*
X11670780Y-15772150D02*
X11699352Y-15772150D01*
X11699352Y-15772150D02*
X11718399Y-15781674D01*
X11718399Y-15781674D02*
X11727923Y-15800722D01*
X11727923Y-15800722D02*
X11727923Y-15905484D01*
X11727923Y-15800722D02*
X11737447Y-15781674D01*
X11737447Y-15781674D02*
X11756495Y-15772150D01*
X11756495Y-15772150D02*
X11785066Y-15772150D01*
X11785066Y-15772150D02*
X11804114Y-15781674D01*
X11804114Y-15781674D02*
X11813638Y-15800722D01*
X11813638Y-15800722D02*
X11813638Y-15905484D01*
X11908876Y-15905484D02*
X11908876Y-15772150D01*
X11908876Y-15791198D02*
X11918399Y-15781674D01*
X11918399Y-15781674D02*
X11937447Y-15772150D01*
X11937447Y-15772150D02*
X11966019Y-15772150D01*
X11966019Y-15772150D02*
X11985066Y-15781674D01*
X11985066Y-15781674D02*
X11994590Y-15800722D01*
X11994590Y-15800722D02*
X11994590Y-15905484D01*
X11994590Y-15800722D02*
X12004114Y-15781674D01*
X12004114Y-15781674D02*
X12023161Y-15772150D01*
X12023161Y-15772150D02*
X12051733Y-15772150D01*
X12051733Y-15772150D02*
X12070780Y-15781674D01*
X12070780Y-15781674D02*
X12080304Y-15800722D01*
X12080304Y-15800722D02*
X12080304Y-15905484D01*
X12470780Y-15695960D02*
X12299352Y-15953103D01*
X12727923Y-15705484D02*
X12746971Y-15705484D01*
X12746971Y-15705484D02*
X12766019Y-15715008D01*
X12766019Y-15715008D02*
X12775542Y-15724531D01*
X12775542Y-15724531D02*
X12785066Y-15743579D01*
X12785066Y-15743579D02*
X12794590Y-15781674D01*
X12794590Y-15781674D02*
X12794590Y-15829293D01*
X12794590Y-15829293D02*
X12785066Y-15867388D01*
X12785066Y-15867388D02*
X12775542Y-15886436D01*
X12775542Y-15886436D02*
X12766019Y-15895960D01*
X12766019Y-15895960D02*
X12746971Y-15905484D01*
X12746971Y-15905484D02*
X12727923Y-15905484D01*
X12727923Y-15905484D02*
X12708876Y-15895960D01*
X12708876Y-15895960D02*
X12699352Y-15886436D01*
X12699352Y-15886436D02*
X12689828Y-15867388D01*
X12689828Y-15867388D02*
X12680304Y-15829293D01*
X12680304Y-15829293D02*
X12680304Y-15781674D01*
X12680304Y-15781674D02*
X12689828Y-15743579D01*
X12689828Y-15743579D02*
X12699352Y-15724531D01*
X12699352Y-15724531D02*
X12708876Y-15715008D01*
X12708876Y-15715008D02*
X12727923Y-15705484D01*
X12880304Y-15886436D02*
X12889828Y-15895960D01*
X12889828Y-15895960D02*
X12880304Y-15905484D01*
X12880304Y-15905484D02*
X12870781Y-15895960D01*
X12870781Y-15895960D02*
X12880304Y-15886436D01*
X12880304Y-15886436D02*
X12880304Y-15905484D01*
X13013638Y-15705484D02*
X13032685Y-15705484D01*
X13032685Y-15705484D02*
X13051733Y-15715008D01*
X13051733Y-15715008D02*
X13061257Y-15724531D01*
X13061257Y-15724531D02*
X13070781Y-15743579D01*
X13070781Y-15743579D02*
X13080304Y-15781674D01*
X13080304Y-15781674D02*
X13080304Y-15829293D01*
X13080304Y-15829293D02*
X13070781Y-15867388D01*
X13070781Y-15867388D02*
X13061257Y-15886436D01*
X13061257Y-15886436D02*
X13051733Y-15895960D01*
X13051733Y-15895960D02*
X13032685Y-15905484D01*
X13032685Y-15905484D02*
X13013638Y-15905484D01*
X13013638Y-15905484D02*
X12994590Y-15895960D01*
X12994590Y-15895960D02*
X12985066Y-15886436D01*
X12985066Y-15886436D02*
X12975542Y-15867388D01*
X12975542Y-15867388D02*
X12966019Y-15829293D01*
X12966019Y-15829293D02*
X12966019Y-15781674D01*
X12966019Y-15781674D02*
X12975542Y-15743579D01*
X12975542Y-15743579D02*
X12985066Y-15724531D01*
X12985066Y-15724531D02*
X12994590Y-15715008D01*
X12994590Y-15715008D02*
X13013638Y-15705484D01*
X13156495Y-15724531D02*
X13166019Y-15715008D01*
X13166019Y-15715008D02*
X13185066Y-15705484D01*
X13185066Y-15705484D02*
X13232685Y-15705484D01*
X13232685Y-15705484D02*
X13251733Y-15715008D01*
X13251733Y-15715008D02*
X13261257Y-15724531D01*
X13261257Y-15724531D02*
X13270781Y-15743579D01*
X13270781Y-15743579D02*
X13270781Y-15762627D01*
X13270781Y-15762627D02*
X13261257Y-15791198D01*
X13261257Y-15791198D02*
X13146971Y-15905484D01*
X13146971Y-15905484D02*
X13270781Y-15905484D01*
X13366019Y-15905484D02*
X13404114Y-15905484D01*
X13404114Y-15905484D02*
X13423162Y-15895960D01*
X13423162Y-15895960D02*
X13432685Y-15886436D01*
X13432685Y-15886436D02*
X13451733Y-15857865D01*
X13451733Y-15857865D02*
X13461257Y-15819769D01*
X13461257Y-15819769D02*
X13461257Y-15743579D01*
X13461257Y-15743579D02*
X13451733Y-15724531D01*
X13451733Y-15724531D02*
X13442209Y-15715008D01*
X13442209Y-15715008D02*
X13423162Y-15705484D01*
X13423162Y-15705484D02*
X13385066Y-15705484D01*
X13385066Y-15705484D02*
X13366019Y-15715008D01*
X13366019Y-15715008D02*
X13356495Y-15724531D01*
X13356495Y-15724531D02*
X13346971Y-15743579D01*
X13346971Y-15743579D02*
X13346971Y-15791198D01*
X13346971Y-15791198D02*
X13356495Y-15810246D01*
X13356495Y-15810246D02*
X13366019Y-15819769D01*
X13366019Y-15819769D02*
X13385066Y-15829293D01*
X13385066Y-15829293D02*
X13423162Y-15829293D01*
X13423162Y-15829293D02*
X13442209Y-15819769D01*
X13442209Y-15819769D02*
X13451733Y-15810246D01*
X13451733Y-15810246D02*
X13461257Y-15791198D01*
X13642209Y-15705484D02*
X13546971Y-15705484D01*
X13546971Y-15705484D02*
X13537447Y-15800722D01*
X13537447Y-15800722D02*
X13546971Y-15791198D01*
X13546971Y-15791198D02*
X13566019Y-15781674D01*
X13566019Y-15781674D02*
X13613638Y-15781674D01*
X13613638Y-15781674D02*
X13632685Y-15791198D01*
X13632685Y-15791198D02*
X13642209Y-15800722D01*
X13642209Y-15800722D02*
X13651733Y-15819769D01*
X13651733Y-15819769D02*
X13651733Y-15867388D01*
X13651733Y-15867388D02*
X13642209Y-15886436D01*
X13642209Y-15886436D02*
X13632685Y-15895960D01*
X13632685Y-15895960D02*
X13613638Y-15905484D01*
X13613638Y-15905484D02*
X13566019Y-15905484D01*
X13566019Y-15905484D02*
X13546971Y-15895960D01*
X13546971Y-15895960D02*
X13537447Y-15886436D01*
X13727923Y-15705484D02*
X13727923Y-15743579D01*
X13804114Y-15705484D02*
X13804114Y-15743579D01*
X14099352Y-15981674D02*
X14089828Y-15972150D01*
X14089828Y-15972150D02*
X14070781Y-15943579D01*
X14070781Y-15943579D02*
X14061257Y-15924531D01*
X14061257Y-15924531D02*
X14051733Y-15895960D01*
X14051733Y-15895960D02*
X14042209Y-15848341D01*
X14042209Y-15848341D02*
X14042209Y-15810246D01*
X14042209Y-15810246D02*
X14051733Y-15762627D01*
X14051733Y-15762627D02*
X14061257Y-15734055D01*
X14061257Y-15734055D02*
X14070781Y-15715008D01*
X14070781Y-15715008D02*
X14089828Y-15686436D01*
X14089828Y-15686436D02*
X14099352Y-15676912D01*
X14166019Y-15724531D02*
X14175543Y-15715008D01*
X14175543Y-15715008D02*
X14194590Y-15705484D01*
X14194590Y-15705484D02*
X14242209Y-15705484D01*
X14242209Y-15705484D02*
X14261257Y-15715008D01*
X14261257Y-15715008D02*
X14270781Y-15724531D01*
X14270781Y-15724531D02*
X14280304Y-15743579D01*
X14280304Y-15743579D02*
X14280304Y-15762627D01*
X14280304Y-15762627D02*
X14270781Y-15791198D01*
X14270781Y-15791198D02*
X14156495Y-15905484D01*
X14156495Y-15905484D02*
X14280304Y-15905484D01*
X14518400Y-15905484D02*
X14518400Y-15705484D01*
X14604114Y-15905484D02*
X14604114Y-15800722D01*
X14604114Y-15800722D02*
X14594590Y-15781674D01*
X14594590Y-15781674D02*
X14575543Y-15772150D01*
X14575543Y-15772150D02*
X14546971Y-15772150D01*
X14546971Y-15772150D02*
X14527924Y-15781674D01*
X14527924Y-15781674D02*
X14518400Y-15791198D01*
X14727924Y-15905484D02*
X14708876Y-15895960D01*
X14708876Y-15895960D02*
X14699352Y-15886436D01*
X14699352Y-15886436D02*
X14689828Y-15867388D01*
X14689828Y-15867388D02*
X14689828Y-15810246D01*
X14689828Y-15810246D02*
X14699352Y-15791198D01*
X14699352Y-15791198D02*
X14708876Y-15781674D01*
X14708876Y-15781674D02*
X14727924Y-15772150D01*
X14727924Y-15772150D02*
X14756495Y-15772150D01*
X14756495Y-15772150D02*
X14775543Y-15781674D01*
X14775543Y-15781674D02*
X14785066Y-15791198D01*
X14785066Y-15791198D02*
X14794590Y-15810246D01*
X14794590Y-15810246D02*
X14794590Y-15867388D01*
X14794590Y-15867388D02*
X14785066Y-15886436D01*
X14785066Y-15886436D02*
X14775543Y-15895960D01*
X14775543Y-15895960D02*
X14756495Y-15905484D01*
X14756495Y-15905484D02*
X14727924Y-15905484D01*
X14908876Y-15905484D02*
X14889828Y-15895960D01*
X14889828Y-15895960D02*
X14880305Y-15876912D01*
X14880305Y-15876912D02*
X14880305Y-15705484D01*
X15061257Y-15895960D02*
X15042209Y-15905484D01*
X15042209Y-15905484D02*
X15004114Y-15905484D01*
X15004114Y-15905484D02*
X14985066Y-15895960D01*
X14985066Y-15895960D02*
X14975543Y-15876912D01*
X14975543Y-15876912D02*
X14975543Y-15800722D01*
X14975543Y-15800722D02*
X14985066Y-15781674D01*
X14985066Y-15781674D02*
X15004114Y-15772150D01*
X15004114Y-15772150D02*
X15042209Y-15772150D01*
X15042209Y-15772150D02*
X15061257Y-15781674D01*
X15061257Y-15781674D02*
X15070781Y-15800722D01*
X15070781Y-15800722D02*
X15070781Y-15819769D01*
X15070781Y-15819769D02*
X14975543Y-15838817D01*
X15146971Y-15895960D02*
X15166019Y-15905484D01*
X15166019Y-15905484D02*
X15204114Y-15905484D01*
X15204114Y-15905484D02*
X15223162Y-15895960D01*
X15223162Y-15895960D02*
X15232686Y-15876912D01*
X15232686Y-15876912D02*
X15232686Y-15867388D01*
X15232686Y-15867388D02*
X15223162Y-15848341D01*
X15223162Y-15848341D02*
X15204114Y-15838817D01*
X15204114Y-15838817D02*
X15175543Y-15838817D01*
X15175543Y-15838817D02*
X15156495Y-15829293D01*
X15156495Y-15829293D02*
X15146971Y-15810246D01*
X15146971Y-15810246D02*
X15146971Y-15800722D01*
X15146971Y-15800722D02*
X15156495Y-15781674D01*
X15156495Y-15781674D02*
X15175543Y-15772150D01*
X15175543Y-15772150D02*
X15204114Y-15772150D01*
X15204114Y-15772150D02*
X15223162Y-15781674D01*
X15299352Y-15981674D02*
X15308876Y-15972150D01*
X15308876Y-15972150D02*
X15327924Y-15943579D01*
X15327924Y-15943579D02*
X15337447Y-15924531D01*
X15337447Y-15924531D02*
X15346971Y-15895960D01*
X15346971Y-15895960D02*
X15356495Y-15848341D01*
X15356495Y-15848341D02*
X15356495Y-15810246D01*
X15356495Y-15810246D02*
X15346971Y-15762627D01*
X15346971Y-15762627D02*
X15337447Y-15734055D01*
X15337447Y-15734055D02*
X15327924Y-15715008D01*
X15327924Y-15715008D02*
X15308876Y-15686436D01*
X15308876Y-15686436D02*
X15299352Y-15676912D01*
D10*
X10474289Y-16028000D02*
X10474289Y-16128000D01*
X10424289Y-16078000D02*
X10524289Y-16078000D01*
D11*
X10889828Y-16169484D02*
X10775542Y-16169484D01*
X10832685Y-16169484D02*
X10832685Y-15969484D01*
X10832685Y-15969484D02*
X10813638Y-15998055D01*
X10813638Y-15998055D02*
X10794590Y-16017103D01*
X10794590Y-16017103D02*
X10775542Y-16026627D01*
X10975542Y-16150436D02*
X10985066Y-16159960D01*
X10985066Y-16159960D02*
X10975542Y-16169484D01*
X10975542Y-16169484D02*
X10966019Y-16159960D01*
X10966019Y-16159960D02*
X10975542Y-16150436D01*
X10975542Y-16150436D02*
X10975542Y-16169484D01*
X11108876Y-15969484D02*
X11127923Y-15969484D01*
X11127923Y-15969484D02*
X11146971Y-15979008D01*
X11146971Y-15979008D02*
X11156495Y-15988531D01*
X11156495Y-15988531D02*
X11166019Y-16007579D01*
X11166019Y-16007579D02*
X11175542Y-16045674D01*
X11175542Y-16045674D02*
X11175542Y-16093293D01*
X11175542Y-16093293D02*
X11166019Y-16131388D01*
X11166019Y-16131388D02*
X11156495Y-16150436D01*
X11156495Y-16150436D02*
X11146971Y-16159960D01*
X11146971Y-16159960D02*
X11127923Y-16169484D01*
X11127923Y-16169484D02*
X11108876Y-16169484D01*
X11108876Y-16169484D02*
X11089828Y-16159960D01*
X11089828Y-16159960D02*
X11080304Y-16150436D01*
X11080304Y-16150436D02*
X11070780Y-16131388D01*
X11070780Y-16131388D02*
X11061257Y-16093293D01*
X11061257Y-16093293D02*
X11061257Y-16045674D01*
X11061257Y-16045674D02*
X11070780Y-16007579D01*
X11070780Y-16007579D02*
X11080304Y-15988531D01*
X11080304Y-15988531D02*
X11089828Y-15979008D01*
X11089828Y-15979008D02*
X11108876Y-15969484D01*
X11299352Y-15969484D02*
X11318399Y-15969484D01*
X11318399Y-15969484D02*
X11337447Y-15979008D01*
X11337447Y-15979008D02*
X11346971Y-15988531D01*
X11346971Y-15988531D02*
X11356495Y-16007579D01*
X11356495Y-16007579D02*
X11366018Y-16045674D01*
X11366018Y-16045674D02*
X11366018Y-16093293D01*
X11366018Y-16093293D02*
X11356495Y-16131388D01*
X11356495Y-16131388D02*
X11346971Y-16150436D01*
X11346971Y-16150436D02*
X11337447Y-16159960D01*
X11337447Y-16159960D02*
X11318399Y-16169484D01*
X11318399Y-16169484D02*
X11299352Y-16169484D01*
X11299352Y-16169484D02*
X11280304Y-16159960D01*
X11280304Y-16159960D02*
X11270780Y-16150436D01*
X11270780Y-16150436D02*
X11261257Y-16131388D01*
X11261257Y-16131388D02*
X11251733Y-16093293D01*
X11251733Y-16093293D02*
X11251733Y-16045674D01*
X11251733Y-16045674D02*
X11261257Y-16007579D01*
X11261257Y-16007579D02*
X11270780Y-15988531D01*
X11270780Y-15988531D02*
X11280304Y-15979008D01*
X11280304Y-15979008D02*
X11299352Y-15969484D01*
X11489828Y-15969484D02*
X11508876Y-15969484D01*
X11508876Y-15969484D02*
X11527923Y-15979008D01*
X11527923Y-15979008D02*
X11537447Y-15988531D01*
X11537447Y-15988531D02*
X11546971Y-16007579D01*
X11546971Y-16007579D02*
X11556495Y-16045674D01*
X11556495Y-16045674D02*
X11556495Y-16093293D01*
X11556495Y-16093293D02*
X11546971Y-16131388D01*
X11546971Y-16131388D02*
X11537447Y-16150436D01*
X11537447Y-16150436D02*
X11527923Y-16159960D01*
X11527923Y-16159960D02*
X11508876Y-16169484D01*
X11508876Y-16169484D02*
X11489828Y-16169484D01*
X11489828Y-16169484D02*
X11470780Y-16159960D01*
X11470780Y-16159960D02*
X11461257Y-16150436D01*
X11461257Y-16150436D02*
X11451733Y-16131388D01*
X11451733Y-16131388D02*
X11442209Y-16093293D01*
X11442209Y-16093293D02*
X11442209Y-16045674D01*
X11442209Y-16045674D02*
X11451733Y-16007579D01*
X11451733Y-16007579D02*
X11461257Y-15988531D01*
X11461257Y-15988531D02*
X11470780Y-15979008D01*
X11470780Y-15979008D02*
X11489828Y-15969484D01*
X11642209Y-16169484D02*
X11642209Y-16036150D01*
X11642209Y-16055198D02*
X11651733Y-16045674D01*
X11651733Y-16045674D02*
X11670780Y-16036150D01*
X11670780Y-16036150D02*
X11699352Y-16036150D01*
X11699352Y-16036150D02*
X11718399Y-16045674D01*
X11718399Y-16045674D02*
X11727923Y-16064722D01*
X11727923Y-16064722D02*
X11727923Y-16169484D01*
X11727923Y-16064722D02*
X11737447Y-16045674D01*
X11737447Y-16045674D02*
X11756495Y-16036150D01*
X11756495Y-16036150D02*
X11785066Y-16036150D01*
X11785066Y-16036150D02*
X11804114Y-16045674D01*
X11804114Y-16045674D02*
X11813638Y-16064722D01*
X11813638Y-16064722D02*
X11813638Y-16169484D01*
X11908876Y-16169484D02*
X11908876Y-16036150D01*
X11908876Y-16055198D02*
X11918399Y-16045674D01*
X11918399Y-16045674D02*
X11937447Y-16036150D01*
X11937447Y-16036150D02*
X11966019Y-16036150D01*
X11966019Y-16036150D02*
X11985066Y-16045674D01*
X11985066Y-16045674D02*
X11994590Y-16064722D01*
X11994590Y-16064722D02*
X11994590Y-16169484D01*
X11994590Y-16064722D02*
X12004114Y-16045674D01*
X12004114Y-16045674D02*
X12023161Y-16036150D01*
X12023161Y-16036150D02*
X12051733Y-16036150D01*
X12051733Y-16036150D02*
X12070780Y-16045674D01*
X12070780Y-16045674D02*
X12080304Y-16064722D01*
X12080304Y-16064722D02*
X12080304Y-16169484D01*
X12470780Y-15959960D02*
X12299352Y-16217103D01*
X12727923Y-15969484D02*
X12746971Y-15969484D01*
X12746971Y-15969484D02*
X12766019Y-15979008D01*
X12766019Y-15979008D02*
X12775542Y-15988531D01*
X12775542Y-15988531D02*
X12785066Y-16007579D01*
X12785066Y-16007579D02*
X12794590Y-16045674D01*
X12794590Y-16045674D02*
X12794590Y-16093293D01*
X12794590Y-16093293D02*
X12785066Y-16131388D01*
X12785066Y-16131388D02*
X12775542Y-16150436D01*
X12775542Y-16150436D02*
X12766019Y-16159960D01*
X12766019Y-16159960D02*
X12746971Y-16169484D01*
X12746971Y-16169484D02*
X12727923Y-16169484D01*
X12727923Y-16169484D02*
X12708876Y-16159960D01*
X12708876Y-16159960D02*
X12699352Y-16150436D01*
X12699352Y-16150436D02*
X12689828Y-16131388D01*
X12689828Y-16131388D02*
X12680304Y-16093293D01*
X12680304Y-16093293D02*
X12680304Y-16045674D01*
X12680304Y-16045674D02*
X12689828Y-16007579D01*
X12689828Y-16007579D02*
X12699352Y-15988531D01*
X12699352Y-15988531D02*
X12708876Y-15979008D01*
X12708876Y-15979008D02*
X12727923Y-15969484D01*
X12880304Y-16150436D02*
X12889828Y-16159960D01*
X12889828Y-16159960D02*
X12880304Y-16169484D01*
X12880304Y-16169484D02*
X12870781Y-16159960D01*
X12870781Y-16159960D02*
X12880304Y-16150436D01*
X12880304Y-16150436D02*
X12880304Y-16169484D01*
X13013638Y-15969484D02*
X13032685Y-15969484D01*
X13032685Y-15969484D02*
X13051733Y-15979008D01*
X13051733Y-15979008D02*
X13061257Y-15988531D01*
X13061257Y-15988531D02*
X13070781Y-16007579D01*
X13070781Y-16007579D02*
X13080304Y-16045674D01*
X13080304Y-16045674D02*
X13080304Y-16093293D01*
X13080304Y-16093293D02*
X13070781Y-16131388D01*
X13070781Y-16131388D02*
X13061257Y-16150436D01*
X13061257Y-16150436D02*
X13051733Y-16159960D01*
X13051733Y-16159960D02*
X13032685Y-16169484D01*
X13032685Y-16169484D02*
X13013638Y-16169484D01*
X13013638Y-16169484D02*
X12994590Y-16159960D01*
X12994590Y-16159960D02*
X12985066Y-16150436D01*
X12985066Y-16150436D02*
X12975542Y-16131388D01*
X12975542Y-16131388D02*
X12966019Y-16093293D01*
X12966019Y-16093293D02*
X12966019Y-16045674D01*
X12966019Y-16045674D02*
X12975542Y-16007579D01*
X12975542Y-16007579D02*
X12985066Y-15988531D01*
X12985066Y-15988531D02*
X12994590Y-15979008D01*
X12994590Y-15979008D02*
X13013638Y-15969484D01*
X13146971Y-15969484D02*
X13270781Y-15969484D01*
X13270781Y-15969484D02*
X13204114Y-16045674D01*
X13204114Y-16045674D02*
X13232685Y-16045674D01*
X13232685Y-16045674D02*
X13251733Y-16055198D01*
X13251733Y-16055198D02*
X13261257Y-16064722D01*
X13261257Y-16064722D02*
X13270781Y-16083769D01*
X13270781Y-16083769D02*
X13270781Y-16131388D01*
X13270781Y-16131388D02*
X13261257Y-16150436D01*
X13261257Y-16150436D02*
X13251733Y-16159960D01*
X13251733Y-16159960D02*
X13232685Y-16169484D01*
X13232685Y-16169484D02*
X13175542Y-16169484D01*
X13175542Y-16169484D02*
X13156495Y-16159960D01*
X13156495Y-16159960D02*
X13146971Y-16150436D01*
X13366019Y-16169484D02*
X13404114Y-16169484D01*
X13404114Y-16169484D02*
X13423162Y-16159960D01*
X13423162Y-16159960D02*
X13432685Y-16150436D01*
X13432685Y-16150436D02*
X13451733Y-16121865D01*
X13451733Y-16121865D02*
X13461257Y-16083769D01*
X13461257Y-16083769D02*
X13461257Y-16007579D01*
X13461257Y-16007579D02*
X13451733Y-15988531D01*
X13451733Y-15988531D02*
X13442209Y-15979008D01*
X13442209Y-15979008D02*
X13423162Y-15969484D01*
X13423162Y-15969484D02*
X13385066Y-15969484D01*
X13385066Y-15969484D02*
X13366019Y-15979008D01*
X13366019Y-15979008D02*
X13356495Y-15988531D01*
X13356495Y-15988531D02*
X13346971Y-16007579D01*
X13346971Y-16007579D02*
X13346971Y-16055198D01*
X13346971Y-16055198D02*
X13356495Y-16074246D01*
X13356495Y-16074246D02*
X13366019Y-16083769D01*
X13366019Y-16083769D02*
X13385066Y-16093293D01*
X13385066Y-16093293D02*
X13423162Y-16093293D01*
X13423162Y-16093293D02*
X13442209Y-16083769D01*
X13442209Y-16083769D02*
X13451733Y-16074246D01*
X13451733Y-16074246D02*
X13461257Y-16055198D01*
X13632685Y-16036150D02*
X13632685Y-16169484D01*
X13585066Y-15959960D02*
X13537447Y-16102817D01*
X13537447Y-16102817D02*
X13661257Y-16102817D01*
X13727923Y-15969484D02*
X13727923Y-16007579D01*
X13804114Y-15969484D02*
X13804114Y-16007579D01*
X14099352Y-16245674D02*
X14089828Y-16236150D01*
X14089828Y-16236150D02*
X14070781Y-16207579D01*
X14070781Y-16207579D02*
X14061257Y-16188531D01*
X14061257Y-16188531D02*
X14051733Y-16159960D01*
X14051733Y-16159960D02*
X14042209Y-16112341D01*
X14042209Y-16112341D02*
X14042209Y-16074246D01*
X14042209Y-16074246D02*
X14051733Y-16026627D01*
X14051733Y-16026627D02*
X14061257Y-15998055D01*
X14061257Y-15998055D02*
X14070781Y-15979008D01*
X14070781Y-15979008D02*
X14089828Y-15950436D01*
X14089828Y-15950436D02*
X14099352Y-15940912D01*
X14261257Y-15969484D02*
X14223162Y-15969484D01*
X14223162Y-15969484D02*
X14204114Y-15979008D01*
X14204114Y-15979008D02*
X14194590Y-15988531D01*
X14194590Y-15988531D02*
X14175543Y-16017103D01*
X14175543Y-16017103D02*
X14166019Y-16055198D01*
X14166019Y-16055198D02*
X14166019Y-16131388D01*
X14166019Y-16131388D02*
X14175543Y-16150436D01*
X14175543Y-16150436D02*
X14185066Y-16159960D01*
X14185066Y-16159960D02*
X14204114Y-16169484D01*
X14204114Y-16169484D02*
X14242209Y-16169484D01*
X14242209Y-16169484D02*
X14261257Y-16159960D01*
X14261257Y-16159960D02*
X14270781Y-16150436D01*
X14270781Y-16150436D02*
X14280304Y-16131388D01*
X14280304Y-16131388D02*
X14280304Y-16083769D01*
X14280304Y-16083769D02*
X14270781Y-16064722D01*
X14270781Y-16064722D02*
X14261257Y-16055198D01*
X14261257Y-16055198D02*
X14242209Y-16045674D01*
X14242209Y-16045674D02*
X14204114Y-16045674D01*
X14204114Y-16045674D02*
X14185066Y-16055198D01*
X14185066Y-16055198D02*
X14175543Y-16064722D01*
X14175543Y-16064722D02*
X14166019Y-16083769D01*
X14518400Y-16169484D02*
X14518400Y-15969484D01*
X14604114Y-16169484D02*
X14604114Y-16064722D01*
X14604114Y-16064722D02*
X14594590Y-16045674D01*
X14594590Y-16045674D02*
X14575543Y-16036150D01*
X14575543Y-16036150D02*
X14546971Y-16036150D01*
X14546971Y-16036150D02*
X14527924Y-16045674D01*
X14527924Y-16045674D02*
X14518400Y-16055198D01*
X14727924Y-16169484D02*
X14708876Y-16159960D01*
X14708876Y-16159960D02*
X14699352Y-16150436D01*
X14699352Y-16150436D02*
X14689828Y-16131388D01*
X14689828Y-16131388D02*
X14689828Y-16074246D01*
X14689828Y-16074246D02*
X14699352Y-16055198D01*
X14699352Y-16055198D02*
X14708876Y-16045674D01*
X14708876Y-16045674D02*
X14727924Y-16036150D01*
X14727924Y-16036150D02*
X14756495Y-16036150D01*
X14756495Y-16036150D02*
X14775543Y-16045674D01*
X14775543Y-16045674D02*
X14785066Y-16055198D01*
X14785066Y-16055198D02*
X14794590Y-16074246D01*
X14794590Y-16074246D02*
X14794590Y-16131388D01*
X14794590Y-16131388D02*
X14785066Y-16150436D01*
X14785066Y-16150436D02*
X14775543Y-16159960D01*
X14775543Y-16159960D02*
X14756495Y-16169484D01*
X14756495Y-16169484D02*
X14727924Y-16169484D01*
X14908876Y-16169484D02*
X14889828Y-16159960D01*
X14889828Y-16159960D02*
X14880305Y-16140912D01*
X14880305Y-16140912D02*
X14880305Y-15969484D01*
X15061257Y-16159960D02*
X15042209Y-16169484D01*
X15042209Y-16169484D02*
X15004114Y-16169484D01*
X15004114Y-16169484D02*
X14985066Y-16159960D01*
X14985066Y-16159960D02*
X14975543Y-16140912D01*
X14975543Y-16140912D02*
X14975543Y-16064722D01*
X14975543Y-16064722D02*
X14985066Y-16045674D01*
X14985066Y-16045674D02*
X15004114Y-16036150D01*
X15004114Y-16036150D02*
X15042209Y-16036150D01*
X15042209Y-16036150D02*
X15061257Y-16045674D01*
X15061257Y-16045674D02*
X15070781Y-16064722D01*
X15070781Y-16064722D02*
X15070781Y-16083769D01*
X15070781Y-16083769D02*
X14975543Y-16102817D01*
X15146971Y-16159960D02*
X15166019Y-16169484D01*
X15166019Y-16169484D02*
X15204114Y-16169484D01*
X15204114Y-16169484D02*
X15223162Y-16159960D01*
X15223162Y-16159960D02*
X15232686Y-16140912D01*
X15232686Y-16140912D02*
X15232686Y-16131388D01*
X15232686Y-16131388D02*
X15223162Y-16112341D01*
X15223162Y-16112341D02*
X15204114Y-16102817D01*
X15204114Y-16102817D02*
X15175543Y-16102817D01*
X15175543Y-16102817D02*
X15156495Y-16093293D01*
X15156495Y-16093293D02*
X15146971Y-16074246D01*
X15146971Y-16074246D02*
X15146971Y-16064722D01*
X15146971Y-16064722D02*
X15156495Y-16045674D01*
X15156495Y-16045674D02*
X15175543Y-16036150D01*
X15175543Y-16036150D02*
X15204114Y-16036150D01*
X15204114Y-16036150D02*
X15223162Y-16045674D01*
X15299352Y-16245674D02*
X15308876Y-16236150D01*
X15308876Y-16236150D02*
X15327924Y-16207579D01*
X15327924Y-16207579D02*
X15337447Y-16188531D01*
X15337447Y-16188531D02*
X15346971Y-16159960D01*
X15346971Y-16159960D02*
X15356495Y-16112341D01*
X15356495Y-16112341D02*
X15356495Y-16074246D01*
X15356495Y-16074246D02*
X15346971Y-16026627D01*
X15346971Y-16026627D02*
X15337447Y-15998055D01*
X15337447Y-15998055D02*
X15327924Y-15979008D01*
X15327924Y-15979008D02*
X15308876Y-15950436D01*
X15308876Y-15950436D02*
X15299352Y-15940912D01*
M02*
