%TF.GenerationSoftware,KiCad,Pcbnew,7.0.5-7.0.5~ubuntu22.04.1*%
%TF.CreationDate,2024-06-06T16:52:37+01:00*%
%TF.ProjectId,PBA0055-APRS-digirepeater-backplane-100x70,50424130-3035-4352-9d41-5052532d6469,rev?*%
%TF.SameCoordinates,Original*%
%TF.FileFunction,Profile,NP*%
%FSLAX46Y46*%
G04 Gerber Fmt 4.6, Leading zero omitted, Abs format (unit mm)*
G04 Created by KiCad (PCBNEW 7.0.5-7.0.5~ubuntu22.04.1) date 2024-06-06 16:52:37*
%MOMM*%
%LPD*%
G01*
G04 APERTURE LIST*
%TA.AperFunction,Profile*%
%ADD10C,0.100000*%
%TD*%
%TA.AperFunction,Profile*%
%ADD11C,0.120000*%
%TD*%
G04 APERTURE END LIST*
D10*
X151250000Y-52000000D02*
X151250000Y-55750000D01*
X150700000Y-145250000D02*
X150700000Y-144500000D01*
X106292893Y-49042893D02*
G75*
G03*
X105292893Y-50042893I7J-1000007D01*
G01*
X129250000Y-52000000D02*
X129250000Y-55750000D01*
X105292907Y-148042893D02*
G75*
G03*
X106292893Y-149042893I999993J-7D01*
G01*
X150700000Y-145250000D02*
X150700000Y-147050000D01*
X153250000Y-49042900D02*
G75*
G03*
X151250000Y-51042893I0J-2000000D01*
G01*
X151250000Y-51042893D02*
X151250000Y-52000000D01*
X175292893Y-148042893D02*
X175292893Y-147542892D01*
X129250000Y-55750000D02*
X140250000Y-55750000D01*
X111090000Y-100750000D02*
G75*
G03*
X115090000Y-100750000I2000000J0D01*
G01*
X174292893Y-49042893D02*
X153250000Y-49042893D01*
X105292893Y-148042893D02*
X105292893Y-50042893D01*
X127250000Y-49042893D02*
X106292893Y-49042893D01*
X129700000Y-144500000D02*
X129700000Y-143750000D01*
X129700000Y-145250000D02*
X129700000Y-144500000D01*
X150700000Y-144500000D02*
X150700000Y-143750000D01*
X115090000Y-100750000D02*
X115090000Y-99250000D01*
X127700000Y-149042900D02*
G75*
G03*
X129700000Y-147042893I0J2000000D01*
G01*
X111090000Y-99250000D02*
X111090000Y-100750000D01*
X129250007Y-51042893D02*
G75*
G03*
X127250000Y-49042893I-2000007J-7D01*
G01*
X152700000Y-149050000D02*
X174292893Y-149050000D01*
X175292893Y-57630000D02*
X175292893Y-140350000D01*
X175292893Y-50042893D02*
X175292893Y-50270000D01*
X129700000Y-143750000D02*
X140500000Y-143750000D01*
X129700000Y-147042893D02*
X129700000Y-145250000D01*
X150700000Y-147050000D02*
G75*
G03*
X152700000Y-149050000I2000000J0D01*
G01*
X151250000Y-55750000D02*
X140250000Y-55750000D01*
X174292893Y-149042893D02*
G75*
G03*
X175292893Y-148042893I7J999993D01*
G01*
X129250000Y-51042893D02*
X129250000Y-52000000D01*
X150700000Y-143750000D02*
X140500000Y-143750000D01*
X115090000Y-99250000D02*
G75*
G03*
X111090000Y-99250000I-2000000J0D01*
G01*
X175292893Y-147542892D02*
X175292893Y-140350000D01*
X106292893Y-149042893D02*
X127700000Y-149042893D01*
X175292907Y-50042893D02*
G75*
G03*
X174292893Y-49042893I-1000007J-7D01*
G01*
X175292893Y-57630000D02*
X175292893Y-50270000D01*
D11*
%TO.C,U1*%
X137750000Y-117500000D02*
X137750000Y-114500000D01*
X138250000Y-114000000D02*
X147250000Y-114000000D01*
X147250000Y-118000000D02*
X138250000Y-118000000D01*
X147750000Y-114500000D02*
X147750000Y-117500000D01*
X138250000Y-114000000D02*
G75*
G03*
X137750000Y-114500000I0J-500000D01*
G01*
X137750000Y-117500000D02*
G75*
G03*
X138250000Y-118000000I500000J0D01*
G01*
X147750000Y-114500000D02*
G75*
G03*
X147250000Y-114000000I-500000J0D01*
G01*
X147250000Y-118000000D02*
G75*
G03*
X147750000Y-117500000I0J500000D01*
G01*
X122750000Y-115000000D02*
G75*
G03*
X122750000Y-115000000I-1500000J0D01*
G01*
X152750000Y-131000000D02*
G75*
G03*
X152750000Y-131000000I-1500000J0D01*
G01*
%TD*%
M02*
