%TF.GenerationSoftware,KiCad,Pcbnew,7.0.5-7.0.5~ubuntu22.04.1*%
%TF.CreationDate,2024-06-06T16:52:36+01:00*%
%TF.ProjectId,PBA0055-APRS-digirepeater-backplane-100x70,50424130-3035-4352-9d41-5052532d6469,rev?*%
%TF.SameCoordinates,Original*%
%TF.FileFunction,Copper,L1,Top*%
%TF.FilePolarity,Positive*%
%FSLAX46Y46*%
G04 Gerber Fmt 4.6, Leading zero omitted, Abs format (unit mm)*
G04 Created by KiCad (PCBNEW 7.0.5-7.0.5~ubuntu22.04.1) date 2024-06-06 16:52:36*
%MOMM*%
%LPD*%
G01*
G04 APERTURE LIST*
G04 Aperture macros list*
%AMRoundRect*
0 Rectangle with rounded corners*
0 $1 Rounding radius*
0 $2 $3 $4 $5 $6 $7 $8 $9 X,Y pos of 4 corners*
0 Add a 4 corners polygon primitive as box body*
4,1,4,$2,$3,$4,$5,$6,$7,$8,$9,$2,$3,0*
0 Add four circle primitives for the rounded corners*
1,1,$1+$1,$2,$3*
1,1,$1+$1,$4,$5*
1,1,$1+$1,$6,$7*
1,1,$1+$1,$8,$9*
0 Add four rect primitives between the rounded corners*
20,1,$1+$1,$2,$3,$4,$5,0*
20,1,$1+$1,$4,$5,$6,$7,0*
20,1,$1+$1,$6,$7,$8,$9,0*
20,1,$1+$1,$8,$9,$2,$3,0*%
G04 Aperture macros list end*
%TA.AperFunction,SMDPad,CuDef*%
%ADD10R,1.000000X2.510000*%
%TD*%
%TA.AperFunction,ComponentPad*%
%ADD11RoundRect,0.250000X-0.600000X-0.750000X0.600000X-0.750000X0.600000X0.750000X-0.600000X0.750000X0*%
%TD*%
%TA.AperFunction,ComponentPad*%
%ADD12O,1.700000X2.000000*%
%TD*%
%TA.AperFunction,SMDPad,CuDef*%
%ADD13RoundRect,0.250000X1.100000X-0.325000X1.100000X0.325000X-1.100000X0.325000X-1.100000X-0.325000X0*%
%TD*%
%TA.AperFunction,ComponentPad*%
%ADD14RoundRect,0.250000X0.750000X-0.600000X0.750000X0.600000X-0.750000X0.600000X-0.750000X-0.600000X0*%
%TD*%
%TA.AperFunction,ComponentPad*%
%ADD15O,2.000000X1.700000*%
%TD*%
%TA.AperFunction,ComponentPad*%
%ADD16RoundRect,0.250000X-0.625000X0.350000X-0.625000X-0.350000X0.625000X-0.350000X0.625000X0.350000X0*%
%TD*%
%TA.AperFunction,ComponentPad*%
%ADD17O,1.750000X1.200000*%
%TD*%
%TA.AperFunction,SMDPad,CuDef*%
%ADD18RoundRect,0.250000X-0.300000X0.300000X-0.300000X-0.300000X0.300000X-0.300000X0.300000X0.300000X0*%
%TD*%
%TA.AperFunction,SMDPad,CuDef*%
%ADD19RoundRect,0.150000X-0.150000X-0.700000X0.150000X-0.700000X0.150000X0.700000X-0.150000X0.700000X0*%
%TD*%
%TA.AperFunction,SMDPad,CuDef*%
%ADD20RoundRect,0.250000X-0.250000X-1.100000X0.250000X-1.100000X0.250000X1.100000X-0.250000X1.100000X0*%
%TD*%
%TA.AperFunction,SMDPad,CuDef*%
%ADD21R,5.000000X5.000000*%
%TD*%
%TA.AperFunction,ViaPad*%
%ADD22C,0.800000*%
%TD*%
%TA.AperFunction,Conductor*%
%ADD23C,2.000000*%
%TD*%
%TA.AperFunction,Conductor*%
%ADD24C,1.000000*%
%TD*%
G04 APERTURE END LIST*
D10*
%TO.P,U2,1B,1B*%
%TO.N,GND*%
X160180000Y-89750000D03*
%TO.P,U2,1T,1T*%
X160180000Y-66750000D03*
%TO.P,U2,2B,2B*%
%TO.N,unconnected-(U2-Pad2B)*%
X157640000Y-93060000D03*
%TO.P,U2,2T,2T*%
%TO.N,+5V*%
X157640000Y-70060000D03*
%TO.P,U2,3B,3B*%
%TO.N,unconnected-(U2-Pad3B)*%
X155100000Y-89750000D03*
%TO.P,U2,3T,3T*%
%TO.N,unconnected-(U2-Pad3T)*%
X155100000Y-66750000D03*
%TO.P,U2,4B,4B*%
%TO.N,unconnected-(U2-Pad4B)*%
X152560000Y-93060000D03*
%TO.P,U2,4T,4T*%
%TO.N,unconnected-(U2-Pad4T)*%
X152560000Y-70060000D03*
%TO.P,U2,5B,5B*%
%TO.N,unconnected-(U2-Pad5B)*%
X150020000Y-89750000D03*
%TO.P,U2,5T,5T*%
%TO.N,unconnected-(U2-Pad5T)*%
X150020000Y-66750000D03*
%TO.P,U2,6B,6B*%
%TO.N,unconnected-(U2-Pad6B)*%
X147480000Y-93060000D03*
%TO.P,U2,6T,6T*%
%TO.N,unconnected-(U2-Pad6T)*%
X147480000Y-70060000D03*
%TO.P,U2,7B,7B*%
%TO.N,unconnected-(U2-Pad7B)*%
X144940000Y-89750000D03*
%TO.P,U2,7T,7T*%
%TO.N,unconnected-(U2-Pad7T)*%
X144940000Y-66750000D03*
%TO.P,U2,8B,8B*%
%TO.N,unconnected-(U2-Pad8B)*%
X142400000Y-93060000D03*
%TO.P,U2,8T,8T*%
%TO.N,unconnected-(U2-Pad8T)*%
X142400000Y-70060000D03*
%TO.P,U2,9B,9B*%
%TO.N,unconnected-(U2-Pad9B)*%
X139860000Y-89750000D03*
%TO.P,U2,9T,9T*%
%TO.N,unconnected-(U2-Pad9T)*%
X139860000Y-66750000D03*
%TO.P,U2,10B,10B*%
%TO.N,unconnected-(U2-Pad10B)*%
X137320000Y-93060000D03*
%TO.P,U2,10T,10T*%
%TO.N,unconnected-(U2-Pad10T)*%
X137320000Y-70060000D03*
%TO.P,U2,11B,11B*%
%TO.N,unconnected-(U2-Pad11B)*%
X134780000Y-89750000D03*
%TO.P,U2,11T,11T*%
%TO.N,unconnected-(U2-Pad11T)*%
X134780000Y-66750000D03*
%TO.P,U2,12B,12B*%
%TO.N,unconnected-(U2-Pad12B)*%
X132240000Y-93060000D03*
%TO.P,U2,12T,12T*%
%TO.N,unconnected-(U2-Pad12T)*%
X132240000Y-70060000D03*
%TO.P,U2,13B,13B*%
%TO.N,unconnected-(U2-Pad13B)*%
X129700000Y-89750000D03*
%TO.P,U2,13T,13T*%
%TO.N,unconnected-(U2-Pad13T)*%
X129700000Y-66750000D03*
%TO.P,U2,14B,15B*%
%TO.N,unconnected-(U2-15B-Pad14B)*%
X127160000Y-93060000D03*
%TO.P,U2,14T,14T*%
%TO.N,unconnected-(U2-Pad14T)*%
X127160000Y-70060000D03*
%TO.P,U2,15B,15B*%
%TO.N,unconnected-(U2-Pad15B)*%
X124620000Y-89750000D03*
%TO.P,U2,15T,15T*%
%TO.N,unconnected-(U2-Pad15T)*%
X124620000Y-66750000D03*
%TO.P,U2,16B,16B*%
%TO.N,unconnected-(U2-Pad16B)*%
X122080000Y-93060000D03*
%TO.P,U2,16T,16T*%
%TO.N,unconnected-(U2-Pad16T)*%
X122080000Y-70060000D03*
%TO.P,U2,17B,17B*%
%TO.N,unconnected-(U2-Pad17B)*%
X119540000Y-89750000D03*
%TO.P,U2,17T,17T*%
%TO.N,unconnected-(U2-Pad17T)*%
X119540000Y-66750000D03*
%TO.P,U2,18B,18B*%
%TO.N,unconnected-(U2-Pad18B)*%
X117000000Y-93060000D03*
%TO.P,U2,18T,18T*%
%TO.N,unconnected-(U2-Pad18T)*%
X117000000Y-70060000D03*
%TD*%
D11*
%TO.P,J2,1,Pin_1*%
%TO.N,+12V*%
X139000000Y-108050000D03*
D12*
%TO.P,J2,2,Pin_2*%
%TO.N,GND*%
X141500000Y-108050000D03*
%TD*%
D13*
%TO.P,L1,1,1*%
%TO.N,Net-(L1-Pad1)*%
X163250000Y-108750000D03*
%TO.P,L1,2,2*%
%TO.N,Net-(D1-A)*%
X163250000Y-105800000D03*
%TD*%
D14*
%TO.P,J6,1,Pin_1*%
%TO.N,+12V*%
X108750000Y-113000000D03*
D15*
%TO.P,J6,2,Pin_2*%
%TO.N,GND*%
X108750000Y-110500000D03*
%TD*%
D16*
%TO.P,J1,1,Pin_1*%
%TO.N,Net-(D2-A)*%
X171300000Y-108450000D03*
D17*
%TO.P,J1,2,Pin_2*%
%TO.N,GND*%
X171300000Y-110450000D03*
%TD*%
D18*
%TO.P,D1,1,K*%
%TO.N,+5V*%
X168800000Y-98650000D03*
%TO.P,D1,2,A*%
%TO.N,Net-(D1-A)*%
X168800000Y-101450000D03*
%TD*%
D14*
%TO.P,J4,1,Pin_1*%
%TO.N,GND*%
X109750000Y-65000000D03*
D15*
%TO.P,J4,2,Pin_2*%
%TO.N,+3V8*%
X109750000Y-62500000D03*
%TD*%
D19*
%TO.P,J5,1,Pin_1*%
%TO.N,GND*%
X169350000Y-64800000D03*
%TO.P,J5,2,Pin_2*%
%TO.N,+3V8*%
X170600000Y-64800000D03*
D20*
%TO.P,J5,MP*%
%TO.N,N/C*%
X167500000Y-68000000D03*
X172450000Y-68000000D03*
%TD*%
D18*
%TO.P,D2,1,K*%
%TO.N,+5V*%
X171300000Y-98650000D03*
%TO.P,D2,2,A*%
%TO.N,Net-(D2-A)*%
X171300000Y-101450000D03*
%TD*%
D13*
%TO.P,C1,1*%
%TO.N,Net-(D1-A)*%
X163250000Y-101250000D03*
%TO.P,C1,2*%
%TO.N,GND*%
X163250000Y-98300000D03*
%TD*%
D21*
%TO.P,U1,IN+,IN+*%
%TO.N,+12V*%
X115250000Y-113000000D03*
%TO.P,U1,IN-,IN-*%
%TO.N,GND*%
X115250000Y-133000000D03*
%TO.P,U1,OUT+,OUT+*%
%TO.N,Net-(L1-Pad1)*%
X157250000Y-113000000D03*
%TO.P,U1,OUT-,OUT-*%
%TO.N,GND*%
X157250000Y-133000000D03*
%TD*%
D22*
%TO.N,GND*%
X174000000Y-72750000D03*
X140000000Y-123750000D03*
X107000000Y-72750000D03*
X125000000Y-84750000D03*
X156000000Y-84750000D03*
X125000000Y-144750000D03*
X107000000Y-84750000D03*
X157000000Y-123750000D03*
X107000000Y-58750000D03*
X174000000Y-102750000D03*
X125000000Y-72750000D03*
X156000000Y-72750000D03*
X174000000Y-123750000D03*
X107000000Y-102750000D03*
X165500000Y-107350000D03*
X173000000Y-84750000D03*
X140000000Y-84750000D03*
X125000000Y-123750000D03*
X140000000Y-72750000D03*
X107000000Y-123750000D03*
X174000000Y-58750000D03*
X160700000Y-107150000D03*
X174000000Y-138750000D03*
X107000000Y-138750000D03*
%TD*%
D23*
%TO.N,+12V*%
X115750000Y-114500000D02*
X116250000Y-114000000D01*
%TO.N,+5V*%
X162560000Y-70060000D02*
X158310000Y-70060000D01*
X168800000Y-98650000D02*
X168800000Y-76300000D01*
X158310000Y-70060000D02*
X158300000Y-70050000D01*
X171300000Y-98650000D02*
X168800000Y-98650000D01*
X168800000Y-76300000D02*
X162560000Y-70060000D01*
D24*
%TO.N,Net-(D2-A)*%
X171300000Y-108450000D02*
X171300000Y-101450000D01*
%TO.N,Net-(L1-Pad1)*%
X157250000Y-113000000D02*
X156250000Y-114000000D01*
%TD*%
%TA.AperFunction,Conductor*%
%TO.N,Net-(D1-A)*%
G36*
X169315677Y-100569685D02*
G01*
X169336319Y-100586319D01*
X169563681Y-100813681D01*
X169597166Y-100875004D01*
X169600000Y-100901362D01*
X169600000Y-102298637D01*
X169580315Y-102365676D01*
X169563681Y-102386318D01*
X168836319Y-103113681D01*
X168774996Y-103147166D01*
X168748638Y-103150000D01*
X166699999Y-103150000D01*
X165200000Y-104649999D01*
X165200000Y-106398636D01*
X165180315Y-106465675D01*
X165163680Y-106486319D01*
X165129998Y-106520000D01*
X165092757Y-106545595D01*
X165047271Y-106565848D01*
X165032861Y-106576318D01*
X164967054Y-106599798D01*
X164959975Y-106600000D01*
X161801362Y-106600000D01*
X161734323Y-106580315D01*
X161713681Y-106563681D01*
X161436319Y-106286319D01*
X161402834Y-106224996D01*
X161400000Y-106198638D01*
X161400000Y-100801362D01*
X161419685Y-100734323D01*
X161436319Y-100713681D01*
X161563681Y-100586319D01*
X161625004Y-100552834D01*
X161651362Y-100550000D01*
X169248638Y-100550000D01*
X169315677Y-100569685D01*
G37*
%TD.AperFunction*%
%TD*%
%TA.AperFunction,Conductor*%
%TO.N,Net-(L1-Pad1)*%
G36*
X160306946Y-107960721D02*
G01*
X160420192Y-108011142D01*
X160420197Y-108011144D01*
X160605354Y-108050500D01*
X160605355Y-108050500D01*
X160794644Y-108050500D01*
X160794646Y-108050500D01*
X160979803Y-108011144D01*
X161042022Y-107983442D01*
X161093054Y-107960721D01*
X161143490Y-107950000D01*
X164598638Y-107950000D01*
X164665677Y-107969685D01*
X164686319Y-107986319D01*
X164913681Y-108213681D01*
X164947166Y-108275004D01*
X164950000Y-108301362D01*
X164950000Y-114848637D01*
X164930315Y-114915676D01*
X164913681Y-114936318D01*
X163986319Y-115863681D01*
X163924996Y-115897166D01*
X163898638Y-115900000D01*
X154723262Y-115900000D01*
X154656223Y-115880315D01*
X154615350Y-115837081D01*
X154016088Y-114778362D01*
X154000000Y-114717281D01*
X154000000Y-108802851D01*
X154019685Y-108735812D01*
X154038126Y-108713399D01*
X154500000Y-108270000D01*
X154734663Y-108050500D01*
X154806354Y-107983442D01*
X154868760Y-107952022D01*
X154891060Y-107950000D01*
X160256510Y-107950000D01*
X160306946Y-107960721D01*
G37*
%TD.AperFunction*%
%TD*%
%TA.AperFunction,Conductor*%
%TO.N,+12V*%
G36*
X139025706Y-105769685D02*
G01*
X139033067Y-105774800D01*
X139950400Y-106462800D01*
X139992221Y-106518771D01*
X140000000Y-106562000D01*
X140000000Y-109173364D01*
X139980315Y-109240403D01*
X139931454Y-109284273D01*
X139026182Y-109736909D01*
X138970728Y-109750000D01*
X119937500Y-109750000D01*
X118750000Y-110700000D01*
X118750000Y-115212456D01*
X118730315Y-115279495D01*
X118729174Y-115281239D01*
X118286811Y-115944783D01*
X118233246Y-115989644D01*
X118183637Y-116000000D01*
X107624000Y-116000000D01*
X107556961Y-115980315D01*
X107511206Y-115927511D01*
X107500000Y-115876000D01*
X107500000Y-111874000D01*
X107519685Y-111806961D01*
X107572489Y-111761206D01*
X107624000Y-111750000D01*
X108057587Y-111750000D01*
X108109991Y-111761617D01*
X108136337Y-111773903D01*
X108364592Y-111835063D01*
X108541032Y-111850499D01*
X108541033Y-111850500D01*
X108541034Y-111850500D01*
X108958967Y-111850500D01*
X108958967Y-111850499D01*
X109135408Y-111835063D01*
X109363663Y-111773903D01*
X109390008Y-111761617D01*
X109442413Y-111750000D01*
X110474241Y-111750000D01*
X114962792Y-105799328D01*
X115018878Y-105757661D01*
X115061788Y-105750000D01*
X138958667Y-105750000D01*
X139025706Y-105769685D01*
G37*
%TD.AperFunction*%
%TD*%
%TA.AperFunction,Conductor*%
%TO.N,+3V8*%
G36*
X170265677Y-61719685D02*
G01*
X170286319Y-61736319D01*
X171263682Y-62713682D01*
X171297166Y-62775003D01*
X171300000Y-62801361D01*
X171300000Y-65464775D01*
X171280315Y-65531814D01*
X171258952Y-65556943D01*
X171135369Y-65668168D01*
X171072370Y-65698384D01*
X171052417Y-65700000D01*
X170224000Y-65700000D01*
X170156961Y-65680315D01*
X170111206Y-65627511D01*
X170100000Y-65576000D01*
X170100000Y-63400000D01*
X169950000Y-63250000D01*
X109524000Y-63250000D01*
X109456961Y-63230315D01*
X109411206Y-63177511D01*
X109400000Y-63126000D01*
X109400000Y-61824000D01*
X109419685Y-61756961D01*
X109472489Y-61711206D01*
X109524000Y-61700000D01*
X170198638Y-61700000D01*
X170265677Y-61719685D01*
G37*
%TD.AperFunction*%
%TD*%
%TA.AperFunction,Conductor*%
%TO.N,GND*%
G36*
X127252018Y-49053526D02*
G01*
X127445616Y-49066214D01*
X127505630Y-49070147D01*
X127513667Y-49071205D01*
X127760943Y-49120392D01*
X127768757Y-49122486D01*
X128007509Y-49203531D01*
X128014983Y-49206626D01*
X128189238Y-49292559D01*
X128241105Y-49318137D01*
X128248127Y-49322191D01*
X128457752Y-49462257D01*
X128464186Y-49467193D01*
X128631822Y-49614207D01*
X128653732Y-49633421D01*
X128659472Y-49639162D01*
X128825697Y-49828703D01*
X128830638Y-49835141D01*
X128847644Y-49860592D01*
X128970700Y-50044759D01*
X128974760Y-50051790D01*
X129086263Y-50277896D01*
X129089370Y-50285396D01*
X129170407Y-50524120D01*
X129172508Y-50531962D01*
X129221692Y-50779223D01*
X129222752Y-50787272D01*
X129239367Y-51040751D01*
X129239500Y-51044808D01*
X129239500Y-51997912D01*
X129239499Y-55723254D01*
X129238633Y-55727612D01*
X129238634Y-55749999D01*
X129239141Y-55751222D01*
X129239500Y-55752088D01*
X129241964Y-55758036D01*
X129250000Y-55761365D01*
X129272409Y-55761365D01*
X129276757Y-55760500D01*
X140247912Y-55760500D01*
X151223243Y-55760500D01*
X151227591Y-55761365D01*
X151250000Y-55761365D01*
X151258036Y-55758036D01*
X151260500Y-55752088D01*
X151261365Y-55750000D01*
X151261364Y-55749999D01*
X151261366Y-55727613D01*
X151260500Y-55723254D01*
X151260500Y-53317763D01*
X169245787Y-53317763D01*
X169275413Y-53587013D01*
X169275415Y-53587024D01*
X169343926Y-53849082D01*
X169343928Y-53849088D01*
X169449870Y-54098390D01*
X169521998Y-54216575D01*
X169590979Y-54329605D01*
X169590986Y-54329615D01*
X169764253Y-54537819D01*
X169764259Y-54537824D01*
X169965998Y-54718582D01*
X170191910Y-54868044D01*
X170437176Y-54983020D01*
X170437183Y-54983022D01*
X170437185Y-54983023D01*
X170696557Y-55061057D01*
X170696564Y-55061058D01*
X170696569Y-55061060D01*
X170964561Y-55100500D01*
X170964566Y-55100500D01*
X171167629Y-55100500D01*
X171167631Y-55100500D01*
X171167636Y-55100499D01*
X171167648Y-55100499D01*
X171205191Y-55097750D01*
X171370156Y-55085677D01*
X171482758Y-55060593D01*
X171634546Y-55026782D01*
X171634548Y-55026781D01*
X171634553Y-55026780D01*
X171887558Y-54930014D01*
X172123777Y-54797441D01*
X172338177Y-54631888D01*
X172526186Y-54436881D01*
X172683799Y-54216579D01*
X172757787Y-54072669D01*
X172807649Y-53975690D01*
X172807651Y-53975684D01*
X172807656Y-53975675D01*
X172895118Y-53719305D01*
X172944319Y-53452933D01*
X172954212Y-53182235D01*
X172924586Y-52912982D01*
X172856072Y-52650912D01*
X172750130Y-52401610D01*
X172609018Y-52170390D01*
X172519747Y-52063119D01*
X172435746Y-51962180D01*
X172435740Y-51962175D01*
X172234002Y-51781418D01*
X172008092Y-51631957D01*
X172008090Y-51631956D01*
X171762824Y-51516980D01*
X171762819Y-51516978D01*
X171762814Y-51516976D01*
X171503442Y-51438942D01*
X171503428Y-51438939D01*
X171387791Y-51421921D01*
X171235439Y-51399500D01*
X171032369Y-51399500D01*
X171032351Y-51399500D01*
X170829844Y-51414323D01*
X170829831Y-51414325D01*
X170565453Y-51473217D01*
X170565446Y-51473220D01*
X170312439Y-51569987D01*
X170076226Y-51702557D01*
X169861822Y-51868112D01*
X169673822Y-52063109D01*
X169673816Y-52063116D01*
X169516202Y-52283419D01*
X169516199Y-52283424D01*
X169392350Y-52524309D01*
X169392343Y-52524327D01*
X169304884Y-52780685D01*
X169304881Y-52780699D01*
X169255681Y-53047068D01*
X169255680Y-53047075D01*
X169245787Y-53317763D01*
X151260500Y-53317763D01*
X151260500Y-51044915D01*
X151260633Y-51040859D01*
X151269137Y-50911118D01*
X151277255Y-50787260D01*
X151278314Y-50779224D01*
X151327498Y-50531964D01*
X151329596Y-50524130D01*
X151410638Y-50285392D01*
X151413743Y-50277898D01*
X151418668Y-50267912D01*
X151525251Y-50051782D01*
X151529305Y-50044763D01*
X151529308Y-50044759D01*
X151669374Y-49835135D01*
X151674303Y-49828713D01*
X151840537Y-49639162D01*
X151846262Y-49633435D01*
X152035827Y-49467191D01*
X152042240Y-49462270D01*
X152251878Y-49322195D01*
X152258894Y-49318144D01*
X152485024Y-49206630D01*
X152492483Y-49203540D01*
X152731244Y-49122492D01*
X152739058Y-49120398D01*
X152986337Y-49071211D01*
X152994366Y-49070154D01*
X153102079Y-49063095D01*
X153248085Y-49053526D01*
X153252141Y-49053393D01*
X153253412Y-49053393D01*
X174289482Y-49053393D01*
X174290186Y-49053393D01*
X174295589Y-49053628D01*
X174453916Y-49067479D01*
X174475190Y-49071230D01*
X174620844Y-49110256D01*
X174641152Y-49117648D01*
X174736932Y-49162309D01*
X174777820Y-49181375D01*
X174796531Y-49192178D01*
X174910812Y-49272197D01*
X174920049Y-49278665D01*
X174936607Y-49292559D01*
X174963680Y-49319632D01*
X174997165Y-49380955D01*
X174999999Y-49407313D01*
X175000000Y-148678467D01*
X174980315Y-148745506D01*
X174963684Y-148766144D01*
X174936605Y-148793223D01*
X174936606Y-148793223D01*
X174920049Y-148807115D01*
X174796528Y-148893605D01*
X174777810Y-148904412D01*
X174641156Y-148968135D01*
X174620844Y-148975528D01*
X174545281Y-148995775D01*
X174513188Y-149000000D01*
X152339518Y-149000000D01*
X152315326Y-148997617D01*
X152189067Y-148972502D01*
X152181233Y-148970403D01*
X151942494Y-148889362D01*
X151935010Y-148886262D01*
X151708897Y-148774756D01*
X151701867Y-148770697D01*
X151492251Y-148630636D01*
X151485816Y-148625698D01*
X151296267Y-148459469D01*
X151290528Y-148453730D01*
X151227029Y-148381323D01*
X151124299Y-148264181D01*
X151119367Y-148257753D01*
X150979302Y-148048132D01*
X150975245Y-148041107D01*
X150863733Y-147814982D01*
X150860639Y-147807512D01*
X150779593Y-147568756D01*
X150777499Y-147560942D01*
X150728312Y-147313667D01*
X150727254Y-147305627D01*
X150726788Y-147298523D01*
X150718671Y-147174668D01*
X150710633Y-147052018D01*
X150710500Y-147047962D01*
X150710500Y-144917763D01*
X169245787Y-144917763D01*
X169275413Y-145187013D01*
X169275415Y-145187024D01*
X169343926Y-145449082D01*
X169343928Y-145449088D01*
X169449870Y-145698390D01*
X169521998Y-145816575D01*
X169590979Y-145929605D01*
X169590986Y-145929615D01*
X169764253Y-146137819D01*
X169764259Y-146137824D01*
X169965998Y-146318582D01*
X170191910Y-146468044D01*
X170437176Y-146583020D01*
X170437183Y-146583022D01*
X170437185Y-146583023D01*
X170696557Y-146661057D01*
X170696564Y-146661058D01*
X170696569Y-146661060D01*
X170964561Y-146700500D01*
X170964566Y-146700500D01*
X171167629Y-146700500D01*
X171167631Y-146700500D01*
X171167636Y-146700499D01*
X171167648Y-146700499D01*
X171205191Y-146697750D01*
X171370156Y-146685677D01*
X171482758Y-146660593D01*
X171634546Y-146626782D01*
X171634548Y-146626781D01*
X171634553Y-146626780D01*
X171887558Y-146530014D01*
X172123777Y-146397441D01*
X172338177Y-146231888D01*
X172526186Y-146036881D01*
X172683799Y-145816579D01*
X172757787Y-145672669D01*
X172807649Y-145575690D01*
X172807651Y-145575684D01*
X172807656Y-145575675D01*
X172895118Y-145319305D01*
X172944319Y-145052933D01*
X172954212Y-144782235D01*
X172924586Y-144512982D01*
X172856072Y-144250912D01*
X172750130Y-144001610D01*
X172609018Y-143770390D01*
X172583311Y-143739500D01*
X172435746Y-143562180D01*
X172435740Y-143562175D01*
X172234002Y-143381418D01*
X172008092Y-143231957D01*
X172008090Y-143231956D01*
X171762824Y-143116980D01*
X171762819Y-143116978D01*
X171762814Y-143116976D01*
X171503442Y-143038942D01*
X171503428Y-143038939D01*
X171387791Y-143021921D01*
X171235439Y-142999500D01*
X171032369Y-142999500D01*
X171032351Y-142999500D01*
X170829844Y-143014323D01*
X170829831Y-143014325D01*
X170565453Y-143073217D01*
X170565446Y-143073220D01*
X170312439Y-143169987D01*
X170076226Y-143302557D01*
X169861822Y-143468112D01*
X169673822Y-143663109D01*
X169673816Y-143663116D01*
X169516202Y-143883419D01*
X169516199Y-143883424D01*
X169392350Y-144124309D01*
X169392343Y-144124327D01*
X169304884Y-144380685D01*
X169304881Y-144380699D01*
X169255681Y-144647068D01*
X169255680Y-144647075D01*
X169245787Y-144917763D01*
X150710500Y-144917763D01*
X150710500Y-143776756D01*
X150711365Y-143772409D01*
X150711365Y-143750000D01*
X150708036Y-143741964D01*
X150702088Y-143739500D01*
X150702085Y-143739498D01*
X150702084Y-143739498D01*
X150700001Y-143738635D01*
X150677592Y-143738635D01*
X150673244Y-143739500D01*
X129726756Y-143739500D01*
X129722408Y-143738635D01*
X129699999Y-143738635D01*
X129697912Y-143739499D01*
X129697912Y-143739500D01*
X129694938Y-143740732D01*
X129691963Y-143741964D01*
X129688635Y-143750000D01*
X129688635Y-143772409D01*
X129689500Y-143776756D01*
X129689500Y-147040855D01*
X129689367Y-147044911D01*
X129672745Y-147298523D01*
X129671685Y-147306572D01*
X129644535Y-147443071D01*
X129622505Y-147553825D01*
X129620403Y-147561667D01*
X129539368Y-147800392D01*
X129536263Y-147807887D01*
X129480510Y-147920945D01*
X129424759Y-148033997D01*
X129420700Y-148041028D01*
X129280641Y-148250642D01*
X129275699Y-148257083D01*
X129109473Y-148446627D01*
X129103732Y-148452367D01*
X128914191Y-148618592D01*
X128907750Y-148623535D01*
X128698133Y-148763596D01*
X128691103Y-148767655D01*
X128464995Y-148879159D01*
X128457495Y-148882266D01*
X128218775Y-148963301D01*
X128210933Y-148965402D01*
X128048978Y-148997617D01*
X128024787Y-149000000D01*
X106072613Y-149000000D01*
X106040519Y-148995775D01*
X105964943Y-148975524D01*
X105944633Y-148968131D01*
X105807978Y-148904407D01*
X105789259Y-148893599D01*
X105783215Y-148889367D01*
X105665750Y-148807115D01*
X105649193Y-148793223D01*
X105542568Y-148686597D01*
X105528675Y-148670039D01*
X105494530Y-148621275D01*
X105442193Y-148546529D01*
X105431386Y-148527811D01*
X105399519Y-148459471D01*
X105367660Y-148391146D01*
X105360269Y-148370838D01*
X105342743Y-148305429D01*
X105321244Y-148225191D01*
X105317492Y-148203907D01*
X105314471Y-148169371D01*
X105303627Y-148045408D01*
X105303393Y-148040046D01*
X105303393Y-148039482D01*
X105303393Y-144817763D01*
X107745787Y-144817763D01*
X107775413Y-145087013D01*
X107775415Y-145087024D01*
X107836144Y-145319314D01*
X107843928Y-145349088D01*
X107949870Y-145598390D01*
X108021998Y-145716575D01*
X108090979Y-145829605D01*
X108090986Y-145829615D01*
X108264253Y-146037819D01*
X108264259Y-146037824D01*
X108465998Y-146218582D01*
X108691910Y-146368044D01*
X108937176Y-146483020D01*
X108937183Y-146483022D01*
X108937185Y-146483023D01*
X109196557Y-146561057D01*
X109196564Y-146561058D01*
X109196569Y-146561060D01*
X109464561Y-146600500D01*
X109464566Y-146600500D01*
X109667629Y-146600500D01*
X109667631Y-146600500D01*
X109667636Y-146600499D01*
X109667648Y-146600499D01*
X109705191Y-146597750D01*
X109870156Y-146585677D01*
X109982758Y-146560593D01*
X110134546Y-146526782D01*
X110134548Y-146526781D01*
X110134553Y-146526780D01*
X110387558Y-146430014D01*
X110623777Y-146297441D01*
X110838177Y-146131888D01*
X111026186Y-145936881D01*
X111183799Y-145716579D01*
X111257787Y-145572669D01*
X111307649Y-145475690D01*
X111307651Y-145475684D01*
X111307656Y-145475675D01*
X111395118Y-145219305D01*
X111444319Y-144952933D01*
X111454212Y-144682235D01*
X111424586Y-144412982D01*
X111356072Y-144150912D01*
X111250130Y-143901610D01*
X111109018Y-143670390D01*
X111019747Y-143563119D01*
X110935746Y-143462180D01*
X110935740Y-143462175D01*
X110734002Y-143281418D01*
X110508092Y-143131957D01*
X110476143Y-143116980D01*
X110262824Y-143016980D01*
X110262819Y-143016978D01*
X110262814Y-143016976D01*
X110003442Y-142938942D01*
X110003428Y-142938939D01*
X109887791Y-142921921D01*
X109735439Y-142899500D01*
X109532369Y-142899500D01*
X109532351Y-142899500D01*
X109329844Y-142914323D01*
X109329831Y-142914325D01*
X109065453Y-142973217D01*
X109065446Y-142973220D01*
X108812439Y-143069987D01*
X108576226Y-143202557D01*
X108361822Y-143368112D01*
X108173822Y-143563109D01*
X108173816Y-143563116D01*
X108016202Y-143783419D01*
X108016199Y-143783424D01*
X107892350Y-144024309D01*
X107892343Y-144024327D01*
X107804884Y-144280685D01*
X107804881Y-144280699D01*
X107755681Y-144547068D01*
X107755680Y-144547075D01*
X107745787Y-144817763D01*
X105303393Y-144817763D01*
X105303393Y-131000000D01*
X149734829Y-131000000D01*
X149753482Y-131237020D01*
X149753482Y-131237023D01*
X149753483Y-131237025D01*
X149808987Y-131468214D01*
X149808988Y-131468216D01*
X149899972Y-131687873D01*
X150024199Y-131890592D01*
X150024202Y-131890597D01*
X150094195Y-131972548D01*
X150178612Y-132071388D01*
X150294337Y-132170226D01*
X150359402Y-132225797D01*
X150359407Y-132225800D01*
X150562126Y-132350027D01*
X150639786Y-132382194D01*
X150781786Y-132441013D01*
X151012975Y-132496517D01*
X151250000Y-132515171D01*
X151487025Y-132496517D01*
X151718214Y-132441013D01*
X151937873Y-132350027D01*
X152140595Y-132225799D01*
X152321388Y-132071388D01*
X152475799Y-131890595D01*
X152600027Y-131687873D01*
X152691013Y-131468214D01*
X152746517Y-131237025D01*
X152765171Y-131000000D01*
X152746517Y-130762975D01*
X152691013Y-130531786D01*
X152600027Y-130312127D01*
X152600027Y-130312126D01*
X152475800Y-130109407D01*
X152475797Y-130109402D01*
X152420226Y-130044337D01*
X152321388Y-129928612D01*
X152222548Y-129844195D01*
X152140597Y-129774202D01*
X152140592Y-129774199D01*
X151937873Y-129649972D01*
X151718216Y-129558988D01*
X151718214Y-129558987D01*
X151487025Y-129503483D01*
X151487023Y-129503482D01*
X151487020Y-129503482D01*
X151277222Y-129486971D01*
X151250000Y-129484829D01*
X151249999Y-129484829D01*
X151012979Y-129503482D01*
X151012974Y-129503483D01*
X151012975Y-129503483D01*
X150781786Y-129558987D01*
X150781784Y-129558987D01*
X150781783Y-129558988D01*
X150562126Y-129649972D01*
X150359407Y-129774199D01*
X150359402Y-129774202D01*
X150178612Y-129928612D01*
X150024202Y-130109402D01*
X150024199Y-130109407D01*
X149899972Y-130312126D01*
X149808988Y-130531783D01*
X149753482Y-130762979D01*
X149734829Y-131000000D01*
X105303393Y-131000000D01*
X105303393Y-117557521D01*
X137739500Y-117557521D01*
X137765100Y-117669678D01*
X137815009Y-117773316D01*
X137815012Y-117773321D01*
X137886738Y-117863262D01*
X137976679Y-117934988D01*
X137976682Y-117934989D01*
X137976683Y-117934990D01*
X138080321Y-117984899D01*
X138080323Y-117984899D01*
X138080326Y-117984901D01*
X138192480Y-118010500D01*
X147307520Y-118010500D01*
X147419674Y-117984901D01*
X147523321Y-117934988D01*
X147613262Y-117863262D01*
X147684988Y-117773321D01*
X147734901Y-117669674D01*
X147760500Y-117557520D01*
X147760500Y-117500000D01*
X147760500Y-117496588D01*
X147760500Y-114717286D01*
X153494500Y-114717286D01*
X153511170Y-114846029D01*
X153527259Y-114907111D01*
X153527265Y-114907129D01*
X153576168Y-115027361D01*
X153576170Y-115027365D01*
X153733412Y-115305165D01*
X153749500Y-115366245D01*
X153749500Y-115558027D01*
X153749501Y-115558035D01*
X153760113Y-115677415D01*
X153816089Y-115873045D01*
X153816090Y-115873048D01*
X153816091Y-115873049D01*
X153910302Y-116053407D01*
X153910304Y-116053409D01*
X154038890Y-116211109D01*
X154097064Y-116258543D01*
X154196593Y-116339698D01*
X154376951Y-116433909D01*
X154572582Y-116489886D01*
X154691963Y-116500500D01*
X159808036Y-116500499D01*
X159927418Y-116489886D01*
X160123049Y-116433909D01*
X160132577Y-116428931D01*
X160150461Y-116419591D01*
X160207871Y-116405500D01*
X163912178Y-116405500D01*
X163913626Y-116405422D01*
X163939216Y-116404051D01*
X163948405Y-116403062D01*
X163979038Y-116399769D01*
X163996839Y-116396884D01*
X164032448Y-116391114D01*
X164167257Y-116340832D01*
X164228580Y-116307347D01*
X164343762Y-116221123D01*
X165280697Y-115284187D01*
X165298792Y-115264042D01*
X165298797Y-115264034D01*
X165298803Y-115264029D01*
X165323917Y-115232863D01*
X165323922Y-115232857D01*
X165355567Y-115188973D01*
X165415338Y-115058096D01*
X165435023Y-114991057D01*
X165435024Y-114991053D01*
X165455500Y-114848637D01*
X165455500Y-110200000D01*
X169949632Y-110200000D01*
X171020440Y-110200000D01*
X170981722Y-110242059D01*
X170931449Y-110356670D01*
X170921114Y-110481395D01*
X170951837Y-110602719D01*
X171015394Y-110700000D01*
X169953742Y-110700000D01*
X169980770Y-110811409D01*
X170068040Y-111002507D01*
X170189889Y-111173619D01*
X170189895Y-111173625D01*
X170341932Y-111318592D01*
X170518657Y-111432166D01*
X170713685Y-111510244D01*
X170919962Y-111550000D01*
X171050000Y-111550000D01*
X171050000Y-110730617D01*
X171119052Y-110784363D01*
X171237424Y-110825000D01*
X171331073Y-110825000D01*
X171423446Y-110809586D01*
X171533514Y-110750019D01*
X171550000Y-110732110D01*
X171550000Y-111550000D01*
X171627398Y-111550000D01*
X171784122Y-111535034D01*
X171784126Y-111535033D01*
X171985686Y-111475850D01*
X172172414Y-111379586D01*
X172337537Y-111249731D01*
X172337540Y-111249728D01*
X172475105Y-111090969D01*
X172475114Y-111090958D01*
X172580144Y-110909039D01*
X172580147Y-110909032D01*
X172648855Y-110710517D01*
X172648855Y-110710515D01*
X172650368Y-110700000D01*
X171579560Y-110700000D01*
X171618278Y-110657941D01*
X171668551Y-110543330D01*
X171678886Y-110418605D01*
X171648163Y-110297281D01*
X171584606Y-110200000D01*
X172646257Y-110200000D01*
X172619229Y-110088590D01*
X172531959Y-109897492D01*
X172410110Y-109726380D01*
X172410104Y-109726374D01*
X172258067Y-109581407D01*
X172100729Y-109480293D01*
X172054974Y-109427489D01*
X172045030Y-109358330D01*
X172074055Y-109294775D01*
X172124436Y-109259795D01*
X172167326Y-109243798D01*
X172167326Y-109243797D01*
X172167331Y-109243796D01*
X172282546Y-109157546D01*
X172368796Y-109042331D01*
X172419091Y-108907483D01*
X172425500Y-108847873D01*
X172425499Y-108052128D01*
X172419091Y-107992517D01*
X172411222Y-107971420D01*
X172368797Y-107857671D01*
X172368793Y-107857664D01*
X172282547Y-107742455D01*
X172282544Y-107742452D01*
X172167334Y-107656205D01*
X172131164Y-107642714D01*
X172075231Y-107600841D01*
X172050816Y-107535376D01*
X172050500Y-107526533D01*
X172050500Y-101996728D01*
X172058318Y-101953394D01*
X172094091Y-101857483D01*
X172100500Y-101797873D01*
X172100499Y-101102128D01*
X172094091Y-101042517D01*
X172043796Y-100907669D01*
X172043795Y-100907668D01*
X172043793Y-100907664D01*
X171957547Y-100792455D01*
X171957544Y-100792452D01*
X171842335Y-100706206D01*
X171842328Y-100706202D01*
X171707486Y-100655910D01*
X171707485Y-100655909D01*
X171707483Y-100655909D01*
X171647873Y-100649500D01*
X171647863Y-100649500D01*
X170952129Y-100649500D01*
X170952123Y-100649501D01*
X170892516Y-100655908D01*
X170757671Y-100706202D01*
X170757664Y-100706206D01*
X170642455Y-100792452D01*
X170642452Y-100792455D01*
X170556206Y-100907664D01*
X170556202Y-100907671D01*
X170513970Y-101020904D01*
X170505909Y-101042517D01*
X170499500Y-101102127D01*
X170499500Y-101102134D01*
X170499500Y-101102135D01*
X170499500Y-101797870D01*
X170499501Y-101797876D01*
X170505909Y-101857484D01*
X170541681Y-101953396D01*
X170549499Y-101996728D01*
X170549499Y-107526533D01*
X170529814Y-107593572D01*
X170477010Y-107639327D01*
X170468835Y-107642714D01*
X170432669Y-107656203D01*
X170432663Y-107656207D01*
X170317455Y-107742452D01*
X170317452Y-107742455D01*
X170231206Y-107857664D01*
X170231202Y-107857671D01*
X170180908Y-107992517D01*
X170174501Y-108052116D01*
X170174501Y-108052123D01*
X170174500Y-108052135D01*
X170174500Y-108847870D01*
X170174501Y-108847876D01*
X170180908Y-108907483D01*
X170231202Y-109042328D01*
X170231206Y-109042335D01*
X170317452Y-109157544D01*
X170317455Y-109157547D01*
X170432664Y-109243793D01*
X170432671Y-109243797D01*
X170478414Y-109260858D01*
X170534348Y-109302729D01*
X170558765Y-109368193D01*
X170543914Y-109436466D01*
X170494509Y-109485872D01*
X170491902Y-109487255D01*
X170427587Y-109520411D01*
X170262462Y-109650268D01*
X170262459Y-109650271D01*
X170124894Y-109809030D01*
X170124885Y-109809041D01*
X170019855Y-109990960D01*
X170019852Y-109990967D01*
X169951144Y-110189482D01*
X169951144Y-110189484D01*
X169949632Y-110200000D01*
X165455500Y-110200000D01*
X165455500Y-108287823D01*
X165454051Y-108260784D01*
X165449769Y-108220964D01*
X165441114Y-108167552D01*
X165390832Y-108032743D01*
X165357347Y-107971420D01*
X165271123Y-107856239D01*
X165271117Y-107856233D01*
X165271113Y-107856228D01*
X165034201Y-107619316D01*
X165034200Y-107619315D01*
X165034188Y-107619303D01*
X165014043Y-107601208D01*
X165014030Y-107601196D01*
X164982864Y-107576082D01*
X164938974Y-107544433D01*
X164808097Y-107484662D01*
X164789061Y-107479072D01*
X164730285Y-107441296D01*
X164701262Y-107377739D01*
X164700000Y-107360096D01*
X164700000Y-107229500D01*
X164719685Y-107162461D01*
X164772489Y-107116706D01*
X164824000Y-107105500D01*
X164963610Y-107105500D01*
X164969425Y-107105416D01*
X164970790Y-107105397D01*
X164981473Y-107105092D01*
X164995913Y-107104474D01*
X164995918Y-107104473D01*
X165136920Y-107075902D01*
X165136921Y-107075901D01*
X165136928Y-107075900D01*
X165202735Y-107052420D01*
X165202745Y-107052416D01*
X165230657Y-107037687D01*
X165234343Y-107035897D01*
X165252887Y-107027639D01*
X165252888Y-107027640D01*
X165298374Y-107007387D01*
X165379075Y-106962191D01*
X165416316Y-106936596D01*
X165487435Y-106877448D01*
X165530694Y-106834190D01*
X165548795Y-106814039D01*
X165573927Y-106782849D01*
X165605567Y-106738972D01*
X165665338Y-106608095D01*
X165685023Y-106541056D01*
X165685024Y-106541052D01*
X165705500Y-106398636D01*
X165705500Y-104910745D01*
X165725185Y-104843706D01*
X165741819Y-104823064D01*
X166873064Y-103691819D01*
X166934387Y-103658334D01*
X166960745Y-103655500D01*
X168762178Y-103655500D01*
X168763627Y-103655422D01*
X168789216Y-103654051D01*
X168798405Y-103653062D01*
X168829038Y-103649769D01*
X168846840Y-103646884D01*
X168882448Y-103641114D01*
X169017257Y-103590832D01*
X169078580Y-103557347D01*
X169193762Y-103471123D01*
X169930697Y-102734187D01*
X169948792Y-102714042D01*
X169948797Y-102714034D01*
X169948803Y-102714029D01*
X169973917Y-102682863D01*
X169973922Y-102682857D01*
X170005567Y-102638973D01*
X170065338Y-102508096D01*
X170085023Y-102441057D01*
X170085024Y-102441053D01*
X170105500Y-102298637D01*
X170105500Y-100887823D01*
X170104051Y-100860784D01*
X170099769Y-100820964D01*
X170091114Y-100767552D01*
X170040832Y-100632743D01*
X170007347Y-100571420D01*
X169921123Y-100456239D01*
X169921117Y-100456233D01*
X169921113Y-100456228D01*
X169684201Y-100219316D01*
X169684200Y-100219315D01*
X169684188Y-100219303D01*
X169664043Y-100201208D01*
X169664030Y-100201196D01*
X169632864Y-100176082D01*
X169588974Y-100144433D01*
X169588972Y-100144432D01*
X169573342Y-100137294D01*
X169520538Y-100091539D01*
X169500854Y-100024499D01*
X169520539Y-99957460D01*
X169573343Y-99911705D01*
X169624854Y-99900500D01*
X171356148Y-99900500D01*
X171356155Y-99900500D01*
X171524188Y-99885377D01*
X171560371Y-99875391D01*
X171741160Y-99825496D01*
X171741162Y-99825495D01*
X171741170Y-99825493D01*
X171943973Y-99727829D01*
X172126078Y-99595522D01*
X172281632Y-99432825D01*
X172405635Y-99244968D01*
X172494103Y-99037988D01*
X172544191Y-98818537D01*
X172554290Y-98593670D01*
X172524075Y-98370613D01*
X172454517Y-98156536D01*
X172347852Y-97958319D01*
X172207508Y-97782334D01*
X172037996Y-97634235D01*
X171844764Y-97518785D01*
X171739394Y-97479239D01*
X171634023Y-97439692D01*
X171412550Y-97399500D01*
X171412547Y-97399500D01*
X170174500Y-97399500D01*
X170107461Y-97379815D01*
X170061706Y-97327011D01*
X170050500Y-97275500D01*
X170050500Y-76373706D01*
X170050889Y-76366767D01*
X170055238Y-76328173D01*
X170050639Y-76259962D01*
X170050500Y-76255807D01*
X170050500Y-76243852D01*
X170050500Y-76243845D01*
X170046784Y-76202563D01*
X170046677Y-76201193D01*
X170040098Y-76103597D01*
X170040096Y-76103584D01*
X170039028Y-76099345D01*
X170035768Y-76080155D01*
X170035377Y-76075815D01*
X170035377Y-76075812D01*
X170009332Y-75981443D01*
X170009027Y-75980289D01*
X169985096Y-75885317D01*
X169983289Y-75881339D01*
X169976653Y-75863034D01*
X169975493Y-75858831D01*
X169975493Y-75858830D01*
X169932994Y-75770582D01*
X169932487Y-75769497D01*
X169892007Y-75680375D01*
X169889518Y-75676782D01*
X169879728Y-75659970D01*
X169877829Y-75656027D01*
X169877827Y-75656024D01*
X169877825Y-75656020D01*
X169848406Y-75615529D01*
X169820287Y-75576828D01*
X169819525Y-75575753D01*
X169763820Y-75495346D01*
X169760729Y-75492255D01*
X169748093Y-75477461D01*
X169745521Y-75473921D01*
X169745518Y-75473918D01*
X169674796Y-75406301D01*
X169673802Y-75405328D01*
X163496356Y-69227882D01*
X163491719Y-69222693D01*
X163467507Y-69192332D01*
X163416616Y-69147870D01*
X166749500Y-69147870D01*
X166749501Y-69147876D01*
X166755908Y-69207483D01*
X166806202Y-69342328D01*
X166806206Y-69342335D01*
X166892452Y-69457544D01*
X166892455Y-69457547D01*
X167007664Y-69543793D01*
X167007671Y-69543797D01*
X167052618Y-69560561D01*
X167142517Y-69594091D01*
X167202127Y-69600500D01*
X167797872Y-69600499D01*
X167857483Y-69594091D01*
X167992331Y-69543796D01*
X168107546Y-69457546D01*
X168193796Y-69342331D01*
X168244091Y-69207483D01*
X168250500Y-69147873D01*
X168250500Y-69147870D01*
X171699500Y-69147870D01*
X171699501Y-69147876D01*
X171705908Y-69207483D01*
X171756202Y-69342328D01*
X171756206Y-69342335D01*
X171842452Y-69457544D01*
X171842455Y-69457547D01*
X171957664Y-69543793D01*
X171957671Y-69543797D01*
X172002618Y-69560561D01*
X172092517Y-69594091D01*
X172152127Y-69600500D01*
X172747872Y-69600499D01*
X172807483Y-69594091D01*
X172942331Y-69543796D01*
X173057546Y-69457546D01*
X173143796Y-69342331D01*
X173194091Y-69207483D01*
X173200500Y-69147873D01*
X173200499Y-66852128D01*
X173194091Y-66792517D01*
X173143796Y-66657669D01*
X173143795Y-66657668D01*
X173143793Y-66657664D01*
X173057547Y-66542455D01*
X173057544Y-66542452D01*
X172942335Y-66456206D01*
X172942328Y-66456202D01*
X172807486Y-66405910D01*
X172807485Y-66405909D01*
X172807483Y-66405909D01*
X172747873Y-66399500D01*
X172747863Y-66399500D01*
X172152129Y-66399500D01*
X172152123Y-66399501D01*
X172092516Y-66405908D01*
X171957671Y-66456202D01*
X171957664Y-66456206D01*
X171842455Y-66542452D01*
X171842452Y-66542455D01*
X171756206Y-66657664D01*
X171756202Y-66657671D01*
X171705908Y-66792517D01*
X171699501Y-66852116D01*
X171699501Y-66852123D01*
X171699500Y-66852135D01*
X171699500Y-69147870D01*
X168250500Y-69147870D01*
X168250499Y-66852128D01*
X168244091Y-66792517D01*
X168193796Y-66657669D01*
X168193795Y-66657668D01*
X168193793Y-66657664D01*
X168107547Y-66542455D01*
X168107544Y-66542452D01*
X167992335Y-66456206D01*
X167992328Y-66456202D01*
X167857486Y-66405910D01*
X167857485Y-66405909D01*
X167857483Y-66405909D01*
X167797873Y-66399500D01*
X167797863Y-66399500D01*
X167202129Y-66399500D01*
X167202123Y-66399501D01*
X167142516Y-66405908D01*
X167007671Y-66456202D01*
X167007664Y-66456206D01*
X166892455Y-66542452D01*
X166892452Y-66542455D01*
X166806206Y-66657664D01*
X166806202Y-66657671D01*
X166755908Y-66792517D01*
X166749501Y-66852116D01*
X166749501Y-66852123D01*
X166749500Y-66852135D01*
X166749500Y-69147870D01*
X163416616Y-69147870D01*
X163416031Y-69147359D01*
X163412997Y-69144523D01*
X163404529Y-69136055D01*
X163372711Y-69109492D01*
X163371663Y-69108596D01*
X163298003Y-69044240D01*
X163297997Y-69044236D01*
X163297996Y-69044235D01*
X163294241Y-69041991D01*
X163278373Y-69030732D01*
X163275019Y-69027932D01*
X163275018Y-69027931D01*
X163275013Y-69027927D01*
X163189943Y-68979658D01*
X163188741Y-68978958D01*
X163104763Y-68928784D01*
X163100669Y-68927248D01*
X163083044Y-68919002D01*
X163079245Y-68916846D01*
X163013341Y-68893785D01*
X162986881Y-68884526D01*
X162985604Y-68884063D01*
X162894030Y-68849694D01*
X162894019Y-68849691D01*
X162889723Y-68848912D01*
X162870918Y-68843949D01*
X162866784Y-68842502D01*
X162866777Y-68842500D01*
X162770161Y-68827198D01*
X162768789Y-68826965D01*
X162672550Y-68809500D01*
X162672547Y-68809500D01*
X162668172Y-68809500D01*
X162648769Y-68807972D01*
X162644460Y-68807289D01*
X162546664Y-68809484D01*
X162545273Y-68809500D01*
X158498067Y-68809500D01*
X158431028Y-68789815D01*
X158385273Y-68737011D01*
X158376449Y-68709689D01*
X158375966Y-68707260D01*
X158320601Y-68624399D01*
X158237740Y-68569034D01*
X158237739Y-68569033D01*
X158237735Y-68569032D01*
X158164677Y-68554500D01*
X158164674Y-68554500D01*
X157115326Y-68554500D01*
X157115323Y-68554500D01*
X157042264Y-68569032D01*
X157042260Y-68569033D01*
X156959399Y-68624399D01*
X156904033Y-68707260D01*
X156904032Y-68707264D01*
X156889500Y-68780321D01*
X156889500Y-71339678D01*
X156904032Y-71412735D01*
X156904033Y-71412739D01*
X156904034Y-71412740D01*
X156959399Y-71495601D01*
X157042260Y-71550966D01*
X157042264Y-71550967D01*
X157115321Y-71565499D01*
X157115324Y-71565500D01*
X157115326Y-71565500D01*
X158164676Y-71565500D01*
X158164677Y-71565499D01*
X158237740Y-71550966D01*
X158320601Y-71495601D01*
X158375966Y-71412740D01*
X158376449Y-71410310D01*
X158378962Y-71405505D01*
X158380640Y-71401456D01*
X158381002Y-71401606D01*
X158408833Y-71348400D01*
X158469548Y-71313824D01*
X158498067Y-71310500D01*
X161990664Y-71310500D01*
X162057703Y-71330185D01*
X162078345Y-71346818D01*
X167513182Y-76781656D01*
X167546666Y-76842977D01*
X167549500Y-76869335D01*
X167549500Y-98620551D01*
X167549438Y-98623307D01*
X167547118Y-98674973D01*
X167545710Y-98706327D01*
X167556863Y-98788667D01*
X167557174Y-98791431D01*
X167564622Y-98874187D01*
X167571022Y-98897376D01*
X167572696Y-98905554D01*
X167575925Y-98929389D01*
X167575926Y-98929393D01*
X167601605Y-99008423D01*
X167602405Y-99011088D01*
X167624505Y-99091166D01*
X167624507Y-99091172D01*
X167634940Y-99112835D01*
X167638048Y-99120584D01*
X167645483Y-99143465D01*
X167684859Y-99216637D01*
X167686110Y-99219093D01*
X167718558Y-99286471D01*
X167722169Y-99293969D01*
X167722173Y-99293977D01*
X167736306Y-99313428D01*
X167740750Y-99320500D01*
X167752143Y-99341674D01*
X167752146Y-99341678D01*
X167752148Y-99341681D01*
X167778718Y-99374999D01*
X167803946Y-99406634D01*
X167805631Y-99408848D01*
X167854476Y-99476076D01*
X167854480Y-99476080D01*
X167871864Y-99492701D01*
X167877495Y-99498862D01*
X167892494Y-99517668D01*
X167955058Y-99572329D01*
X167957111Y-99574206D01*
X168017170Y-99631628D01*
X168017172Y-99631629D01*
X168017175Y-99631632D01*
X168034120Y-99642817D01*
X168037247Y-99644882D01*
X168043884Y-99649935D01*
X168062004Y-99665765D01*
X168133349Y-99708391D01*
X168135671Y-99709850D01*
X168162906Y-99727828D01*
X168205029Y-99755634D01*
X168209403Y-99757503D01*
X168227157Y-99765092D01*
X168234588Y-99768878D01*
X168255236Y-99781215D01*
X168317031Y-99804407D01*
X168372879Y-99846393D01*
X168397162Y-99911907D01*
X168382170Y-99980149D01*
X168332664Y-100029454D01*
X168273460Y-100044500D01*
X161637822Y-100044500D01*
X161610782Y-100045949D01*
X161610765Y-100045950D01*
X161570961Y-100050230D01*
X161517555Y-100058885D01*
X161517552Y-100058885D01*
X161382747Y-100109166D01*
X161321422Y-100142651D01*
X161206240Y-100228876D01*
X161206228Y-100228886D01*
X161069316Y-100365798D01*
X161069300Y-100365815D01*
X161051196Y-100385969D01*
X161026082Y-100417135D01*
X160994433Y-100461025D01*
X160934662Y-100591901D01*
X160914978Y-100658938D01*
X160914976Y-100658946D01*
X160894500Y-100801363D01*
X160894500Y-106212178D01*
X160895949Y-106239217D01*
X160895950Y-106239234D01*
X160900230Y-106279038D01*
X160908885Y-106332444D01*
X160908885Y-106332447D01*
X160944990Y-106429245D01*
X160959168Y-106467257D01*
X160992653Y-106528580D01*
X161078877Y-106643761D01*
X161078881Y-106643765D01*
X161078886Y-106643771D01*
X161249138Y-106814023D01*
X161365812Y-106930697D01*
X161381102Y-106944431D01*
X161385969Y-106948803D01*
X161417135Y-106973917D01*
X161417142Y-106973922D01*
X161461026Y-107005567D01*
X161591903Y-107065338D01*
X161610934Y-107070926D01*
X161669712Y-107108699D01*
X161698738Y-107172255D01*
X161700000Y-107189903D01*
X161700000Y-107320500D01*
X161680315Y-107387539D01*
X161627511Y-107433294D01*
X161576000Y-107444500D01*
X161143490Y-107444500D01*
X161038386Y-107455547D01*
X161038381Y-107455547D01*
X161038381Y-107455548D01*
X160987951Y-107466267D01*
X160887449Y-107498922D01*
X160887439Y-107498926D01*
X160834636Y-107522435D01*
X160809986Y-107530445D01*
X160777732Y-107537301D01*
X160754262Y-107542290D01*
X160728482Y-107545000D01*
X160671518Y-107545000D01*
X160645736Y-107542290D01*
X160631568Y-107539278D01*
X160590014Y-107530445D01*
X160565363Y-107522435D01*
X160512560Y-107498926D01*
X160512550Y-107498922D01*
X160412047Y-107466267D01*
X160412049Y-107466267D01*
X160369675Y-107457260D01*
X160361614Y-107455547D01*
X160256510Y-107444500D01*
X154879631Y-107444500D01*
X154879598Y-107444500D01*
X154856812Y-107445531D01*
X154856771Y-107445534D01*
X154823114Y-107448586D01*
X154777852Y-107454763D01*
X154641441Y-107500517D01*
X154579027Y-107531941D01*
X154579026Y-107531941D01*
X154461039Y-107614269D01*
X154152284Y-107903072D01*
X153677366Y-108358994D01*
X153657196Y-108380769D01*
X153629333Y-108414633D01*
X153629328Y-108414639D01*
X153594431Y-108462516D01*
X153534663Y-108593387D01*
X153514978Y-108660427D01*
X153514976Y-108660435D01*
X153494500Y-108802852D01*
X153494500Y-114717286D01*
X147760500Y-114717286D01*
X147760500Y-114497912D01*
X147760500Y-114442480D01*
X147734901Y-114330326D01*
X147726136Y-114312126D01*
X147684990Y-114226683D01*
X147684987Y-114226678D01*
X147613262Y-114136738D01*
X147523321Y-114065012D01*
X147523316Y-114065009D01*
X147419678Y-114015100D01*
X147419679Y-114015100D01*
X147307521Y-113989500D01*
X147307520Y-113989500D01*
X147252088Y-113989500D01*
X138253412Y-113989500D01*
X138250000Y-113989500D01*
X138192480Y-113989500D01*
X138192478Y-113989500D01*
X138080321Y-114015100D01*
X137976683Y-114065009D01*
X137976678Y-114065012D01*
X137886738Y-114136738D01*
X137815012Y-114226678D01*
X137815009Y-114226683D01*
X137765100Y-114330321D01*
X137739500Y-114442478D01*
X137739500Y-117557521D01*
X105303393Y-117557521D01*
X105303393Y-115876000D01*
X106994500Y-115876000D01*
X106994501Y-115876009D01*
X107006052Y-115983450D01*
X107006054Y-115983462D01*
X107017260Y-116034972D01*
X107051383Y-116137497D01*
X107051386Y-116137503D01*
X107129171Y-116258537D01*
X107129179Y-116258548D01*
X107174923Y-116311340D01*
X107174926Y-116311343D01*
X107174930Y-116311347D01*
X107283664Y-116405567D01*
X107283667Y-116405568D01*
X107283668Y-116405569D01*
X107414536Y-116465336D01*
X107414537Y-116465336D01*
X107414541Y-116465338D01*
X107481580Y-116485023D01*
X107481584Y-116485024D01*
X107624000Y-116505500D01*
X107624003Y-116505500D01*
X118183638Y-116505500D01*
X118200853Y-116503722D01*
X118286935Y-116494833D01*
X118336544Y-116484477D01*
X118435483Y-116452926D01*
X118511973Y-116405566D01*
X118557809Y-116377186D01*
X118557815Y-116377181D01*
X118601216Y-116340833D01*
X118611378Y-116332322D01*
X118707412Y-116225184D01*
X118710116Y-116221129D01*
X118834220Y-116034972D01*
X119150988Y-115559821D01*
X119153326Y-115556247D01*
X119155567Y-115552792D01*
X119215338Y-115421915D01*
X119235023Y-115354876D01*
X119235024Y-115354872D01*
X119255500Y-115212456D01*
X119255500Y-115000000D01*
X119734829Y-115000000D01*
X119753482Y-115237020D01*
X119753482Y-115237023D01*
X119753483Y-115237025D01*
X119808987Y-115468214D01*
X119808988Y-115468216D01*
X119899972Y-115687873D01*
X120024199Y-115890592D01*
X120024202Y-115890597D01*
X120094195Y-115972548D01*
X120178612Y-116071388D01*
X120294337Y-116170226D01*
X120359402Y-116225797D01*
X120359407Y-116225800D01*
X120562126Y-116350027D01*
X120627682Y-116377181D01*
X120781786Y-116441013D01*
X121012975Y-116496517D01*
X121250000Y-116515171D01*
X121487025Y-116496517D01*
X121718214Y-116441013D01*
X121937873Y-116350027D01*
X122140595Y-116225799D01*
X122321388Y-116071388D01*
X122475799Y-115890595D01*
X122600027Y-115687873D01*
X122691013Y-115468214D01*
X122746517Y-115237025D01*
X122765171Y-115000000D01*
X122746517Y-114762975D01*
X122691013Y-114531786D01*
X122625369Y-114373308D01*
X122600027Y-114312126D01*
X122475800Y-114109407D01*
X122475797Y-114109402D01*
X122395254Y-114015099D01*
X122321388Y-113928612D01*
X122222548Y-113844195D01*
X122140597Y-113774202D01*
X122140592Y-113774199D01*
X121937873Y-113649972D01*
X121718216Y-113558988D01*
X121718214Y-113558987D01*
X121487025Y-113503483D01*
X121487023Y-113503482D01*
X121487020Y-113503482D01*
X121250000Y-113484829D01*
X121012979Y-113503482D01*
X121012974Y-113503483D01*
X121012975Y-113503483D01*
X120781786Y-113558987D01*
X120781784Y-113558987D01*
X120781783Y-113558988D01*
X120562126Y-113649972D01*
X120359407Y-113774199D01*
X120359402Y-113774202D01*
X120178612Y-113928612D01*
X120024202Y-114109402D01*
X120024199Y-114109407D01*
X119899972Y-114312126D01*
X119808988Y-114531783D01*
X119753482Y-114762979D01*
X119734829Y-115000000D01*
X119255500Y-115000000D01*
X119255500Y-111002552D01*
X119275185Y-110935513D01*
X119302036Y-110905726D01*
X120080853Y-110282672D01*
X120145500Y-110256164D01*
X120158316Y-110255500D01*
X138970730Y-110255500D01*
X139001340Y-110251935D01*
X139086869Y-110241977D01*
X139142323Y-110228886D01*
X139252248Y-110189042D01*
X140157520Y-109736406D01*
X140269169Y-109660409D01*
X140318030Y-109616539D01*
X140405567Y-109513700D01*
X140465338Y-109382823D01*
X140485023Y-109315784D01*
X140485024Y-109315780D01*
X140505500Y-109173364D01*
X140505500Y-106562000D01*
X140497509Y-106472474D01*
X140489730Y-106429245D01*
X140466008Y-106342542D01*
X140397166Y-106216200D01*
X140355345Y-106160229D01*
X140355343Y-106160226D01*
X140253700Y-106058400D01*
X139332705Y-105367654D01*
X139325283Y-105362294D01*
X139314163Y-105354567D01*
X139299003Y-105344433D01*
X139223134Y-105309784D01*
X139168127Y-105284662D01*
X139101090Y-105264978D01*
X139101092Y-105264978D01*
X139101087Y-105264977D01*
X139101083Y-105264976D01*
X138958667Y-105244500D01*
X115061788Y-105244500D01*
X114972943Y-105252369D01*
X114942264Y-105257846D01*
X114930027Y-105260031D01*
X114843952Y-105283392D01*
X114843949Y-105283393D01*
X114717420Y-105351885D01*
X114661347Y-105393542D01*
X114661336Y-105393549D01*
X114559232Y-105494912D01*
X114559224Y-105494921D01*
X112398862Y-108359009D01*
X110338164Y-111090969D01*
X110259564Y-111195172D01*
X110203478Y-111236839D01*
X110160568Y-111244500D01*
X109442413Y-111244500D01*
X109420817Y-111246864D01*
X109333012Y-111256480D01*
X109280607Y-111268097D01*
X109216423Y-111289885D01*
X109212539Y-111291063D01*
X109057773Y-111332532D01*
X109036488Y-111336285D01*
X108966483Y-111342410D01*
X108939586Y-111344763D01*
X108934185Y-111344999D01*
X108565806Y-111344999D01*
X108560406Y-111344763D01*
X108523195Y-111341507D01*
X108463516Y-111336286D01*
X108442231Y-111332533D01*
X108287468Y-111291066D01*
X108283583Y-111289887D01*
X108219396Y-111268098D01*
X108166988Y-111256480D01*
X108072926Y-111246179D01*
X108057587Y-111244500D01*
X107624000Y-111244500D01*
X107623991Y-111244500D01*
X107623990Y-111244501D01*
X107516549Y-111256052D01*
X107516537Y-111256054D01*
X107465027Y-111267260D01*
X107362502Y-111301383D01*
X107362496Y-111301386D01*
X107241462Y-111379171D01*
X107241451Y-111379179D01*
X107188659Y-111424923D01*
X107094433Y-111533664D01*
X107094430Y-111533668D01*
X107034663Y-111664536D01*
X107034662Y-111664541D01*
X107014977Y-111731580D01*
X107014976Y-111731584D01*
X106994500Y-111874000D01*
X106994500Y-115876000D01*
X105303393Y-115876000D01*
X105303393Y-100887522D01*
X111079500Y-100887522D01*
X111108996Y-101102123D01*
X111116952Y-101160003D01*
X111116953Y-101160009D01*
X111191159Y-101424853D01*
X111300730Y-101677114D01*
X111374165Y-101797873D01*
X111443644Y-101912125D01*
X111617221Y-102125480D01*
X111750888Y-102250316D01*
X111818227Y-102313207D01*
X111818229Y-102313208D01*
X111818233Y-102313212D01*
X112042934Y-102471823D01*
X112042933Y-102471823D01*
X112042935Y-102471824D01*
X112287143Y-102598362D01*
X112546306Y-102690469D01*
X112815597Y-102746428D01*
X113090000Y-102765198D01*
X113364403Y-102746428D01*
X113633694Y-102690469D01*
X113892857Y-102598362D01*
X114137065Y-102471824D01*
X114361767Y-102313212D01*
X114562779Y-102125480D01*
X114736356Y-101912125D01*
X114879265Y-101677122D01*
X114879267Y-101677117D01*
X114879269Y-101677114D01*
X114988840Y-101424853D01*
X114988842Y-101424849D01*
X115063048Y-101160004D01*
X115100500Y-100887522D01*
X115100500Y-100750000D01*
X115100500Y-100746588D01*
X115100500Y-100695234D01*
X115100499Y-100695225D01*
X115100500Y-99980149D01*
X115100500Y-99247912D01*
X115100500Y-99112478D01*
X115063048Y-98839996D01*
X114988842Y-98575151D01*
X114988840Y-98575146D01*
X114977918Y-98550000D01*
X161400001Y-98550000D01*
X161400001Y-98674986D01*
X161410494Y-98777697D01*
X161465641Y-98944119D01*
X161465643Y-98944124D01*
X161557684Y-99093345D01*
X161681654Y-99217315D01*
X161830875Y-99309356D01*
X161830880Y-99309358D01*
X161997302Y-99364505D01*
X161997309Y-99364506D01*
X162100019Y-99374999D01*
X162999999Y-99374999D01*
X163000000Y-99374998D01*
X163000000Y-98550000D01*
X163500000Y-98550000D01*
X163500000Y-99374999D01*
X164399972Y-99374999D01*
X164399986Y-99374998D01*
X164502697Y-99364505D01*
X164669119Y-99309358D01*
X164669124Y-99309356D01*
X164818345Y-99217315D01*
X164942315Y-99093345D01*
X165034356Y-98944124D01*
X165034358Y-98944119D01*
X165089505Y-98777697D01*
X165089506Y-98777690D01*
X165099999Y-98674986D01*
X165100000Y-98674973D01*
X165100000Y-98550000D01*
X163500000Y-98550000D01*
X163000000Y-98550000D01*
X161400001Y-98550000D01*
X114977918Y-98550000D01*
X114879269Y-98322885D01*
X114736356Y-98087875D01*
X114705542Y-98050000D01*
X161400000Y-98050000D01*
X163000000Y-98050000D01*
X163000000Y-97225000D01*
X163500000Y-97225000D01*
X163500000Y-98050000D01*
X165099999Y-98050000D01*
X165099999Y-97925028D01*
X165099998Y-97925013D01*
X165089505Y-97822302D01*
X165034358Y-97655880D01*
X165034356Y-97655875D01*
X164942315Y-97506654D01*
X164818345Y-97382684D01*
X164669124Y-97290643D01*
X164669119Y-97290641D01*
X164502697Y-97235494D01*
X164502690Y-97235493D01*
X164399986Y-97225000D01*
X163500000Y-97225000D01*
X163000000Y-97225000D01*
X162100028Y-97225000D01*
X162100012Y-97225001D01*
X161997302Y-97235494D01*
X161830880Y-97290641D01*
X161830875Y-97290643D01*
X161681654Y-97382684D01*
X161557684Y-97506654D01*
X161465643Y-97655875D01*
X161465641Y-97655880D01*
X161410494Y-97822302D01*
X161410493Y-97822309D01*
X161400000Y-97925013D01*
X161400000Y-98050000D01*
X114705542Y-98050000D01*
X114630954Y-97958319D01*
X114562779Y-97874520D01*
X114436480Y-97756565D01*
X114361772Y-97686792D01*
X114361769Y-97686789D01*
X114361767Y-97686788D01*
X114137065Y-97528176D01*
X114137066Y-97528176D01*
X113892853Y-97401636D01*
X113633699Y-97309532D01*
X113633696Y-97309531D01*
X113464735Y-97274421D01*
X113364403Y-97253572D01*
X113364401Y-97253571D01*
X113364397Y-97253571D01*
X113090000Y-97234802D01*
X112815602Y-97253571D01*
X112546303Y-97309531D01*
X112546300Y-97309532D01*
X112287146Y-97401636D01*
X112042934Y-97528176D01*
X111908113Y-97623343D01*
X111818233Y-97686788D01*
X111818230Y-97686789D01*
X111818228Y-97686792D01*
X111818227Y-97686792D01*
X111617218Y-97874523D01*
X111443643Y-98087875D01*
X111300730Y-98322885D01*
X111191159Y-98575146D01*
X111116953Y-98839990D01*
X111116952Y-98839996D01*
X111089738Y-99037995D01*
X111079500Y-99112478D01*
X111079500Y-99247912D01*
X111079500Y-100746588D01*
X111079500Y-100750000D01*
X111079500Y-100887522D01*
X105303393Y-100887522D01*
X105303393Y-94339676D01*
X116249499Y-94339676D01*
X116249500Y-94339678D01*
X116264032Y-94412735D01*
X116264033Y-94412739D01*
X116264034Y-94412740D01*
X116319399Y-94495601D01*
X116402259Y-94550966D01*
X116402260Y-94550966D01*
X116402264Y-94550967D01*
X116475321Y-94565499D01*
X116475324Y-94565500D01*
X116475326Y-94565500D01*
X117524676Y-94565500D01*
X117524677Y-94565499D01*
X117597740Y-94550966D01*
X117680601Y-94495601D01*
X117735966Y-94412740D01*
X117750500Y-94339676D01*
X121329499Y-94339676D01*
X121329500Y-94339678D01*
X121344032Y-94412735D01*
X121344033Y-94412739D01*
X121344034Y-94412740D01*
X121399399Y-94495601D01*
X121482259Y-94550966D01*
X121482260Y-94550966D01*
X121482264Y-94550967D01*
X121555321Y-94565499D01*
X121555324Y-94565500D01*
X121555326Y-94565500D01*
X122604676Y-94565500D01*
X122604677Y-94565499D01*
X122677740Y-94550966D01*
X122760601Y-94495601D01*
X122815966Y-94412740D01*
X122830500Y-94339676D01*
X126409499Y-94339676D01*
X126409500Y-94339678D01*
X126424032Y-94412735D01*
X126424033Y-94412739D01*
X126424034Y-94412740D01*
X126479399Y-94495601D01*
X126562259Y-94550966D01*
X126562260Y-94550966D01*
X126562264Y-94550967D01*
X126635321Y-94565499D01*
X126635324Y-94565500D01*
X126635326Y-94565500D01*
X127684676Y-94565500D01*
X127684677Y-94565499D01*
X127757740Y-94550966D01*
X127840601Y-94495601D01*
X127895966Y-94412740D01*
X127910500Y-94339676D01*
X131489499Y-94339676D01*
X131489500Y-94339678D01*
X131504032Y-94412735D01*
X131504033Y-94412739D01*
X131504034Y-94412740D01*
X131559399Y-94495601D01*
X131642259Y-94550965D01*
X131642260Y-94550966D01*
X131642264Y-94550967D01*
X131715321Y-94565499D01*
X131715324Y-94565500D01*
X131715326Y-94565500D01*
X132764676Y-94565500D01*
X132764677Y-94565499D01*
X132837740Y-94550966D01*
X132920601Y-94495601D01*
X132975966Y-94412740D01*
X132990499Y-94339678D01*
X136569500Y-94339678D01*
X136584032Y-94412735D01*
X136584033Y-94412739D01*
X136584034Y-94412740D01*
X136639399Y-94495601D01*
X136722259Y-94550966D01*
X136722260Y-94550966D01*
X136722264Y-94550967D01*
X136795321Y-94565499D01*
X136795324Y-94565500D01*
X136795326Y-94565500D01*
X137844676Y-94565500D01*
X137844677Y-94565499D01*
X137917740Y-94550966D01*
X138000601Y-94495601D01*
X138055966Y-94412740D01*
X138070499Y-94339678D01*
X141649500Y-94339678D01*
X141664032Y-94412735D01*
X141664033Y-94412739D01*
X141664034Y-94412740D01*
X141719399Y-94495601D01*
X141802260Y-94550966D01*
X141802264Y-94550967D01*
X141875321Y-94565499D01*
X141875324Y-94565500D01*
X141875326Y-94565500D01*
X142924676Y-94565500D01*
X142924677Y-94565499D01*
X142997740Y-94550966D01*
X143080601Y-94495601D01*
X143135966Y-94412740D01*
X143150499Y-94339678D01*
X146729500Y-94339678D01*
X146744032Y-94412735D01*
X146744033Y-94412739D01*
X146744034Y-94412740D01*
X146799399Y-94495601D01*
X146882259Y-94550966D01*
X146882260Y-94550966D01*
X146882264Y-94550967D01*
X146955321Y-94565499D01*
X146955324Y-94565500D01*
X146955326Y-94565500D01*
X148004676Y-94565500D01*
X148004677Y-94565499D01*
X148077740Y-94550966D01*
X148160601Y-94495601D01*
X148215966Y-94412740D01*
X148230499Y-94339678D01*
X151809500Y-94339678D01*
X151824032Y-94412735D01*
X151824033Y-94412739D01*
X151824034Y-94412740D01*
X151879399Y-94495601D01*
X151962259Y-94550965D01*
X151962260Y-94550966D01*
X151962264Y-94550967D01*
X152035321Y-94565499D01*
X152035324Y-94565500D01*
X152035326Y-94565500D01*
X153084676Y-94565500D01*
X153084677Y-94565499D01*
X153157740Y-94550966D01*
X153240601Y-94495601D01*
X153295966Y-94412740D01*
X153310499Y-94339678D01*
X156889500Y-94339678D01*
X156904032Y-94412735D01*
X156904033Y-94412739D01*
X156904034Y-94412740D01*
X156959399Y-94495601D01*
X157042259Y-94550966D01*
X157042260Y-94550966D01*
X157042264Y-94550967D01*
X157115321Y-94565499D01*
X157115324Y-94565500D01*
X157115326Y-94565500D01*
X158164676Y-94565500D01*
X158164677Y-94565499D01*
X158237740Y-94550966D01*
X158320601Y-94495601D01*
X158375966Y-94412740D01*
X158390500Y-94339674D01*
X158390500Y-91780326D01*
X158390500Y-91780323D01*
X158390499Y-91780321D01*
X158375967Y-91707264D01*
X158375966Y-91707260D01*
X158375965Y-91707260D01*
X158320601Y-91624399D01*
X158237740Y-91569034D01*
X158237739Y-91569033D01*
X158237735Y-91569032D01*
X158164677Y-91554500D01*
X158164674Y-91554500D01*
X157115326Y-91554500D01*
X157115323Y-91554500D01*
X157042264Y-91569032D01*
X157042260Y-91569033D01*
X156959399Y-91624399D01*
X156904033Y-91707260D01*
X156904032Y-91707264D01*
X156889500Y-91780321D01*
X156889500Y-94339678D01*
X153310499Y-94339678D01*
X153310500Y-94339674D01*
X153310500Y-91780326D01*
X153310500Y-91780323D01*
X153310499Y-91780321D01*
X153295967Y-91707264D01*
X153295966Y-91707260D01*
X153295965Y-91707259D01*
X153240601Y-91624399D01*
X153157740Y-91569034D01*
X153157739Y-91569033D01*
X153157735Y-91569032D01*
X153084677Y-91554500D01*
X153084674Y-91554500D01*
X152035326Y-91554500D01*
X152035323Y-91554500D01*
X151962264Y-91569032D01*
X151962260Y-91569033D01*
X151879399Y-91624399D01*
X151824033Y-91707260D01*
X151824032Y-91707264D01*
X151809500Y-91780321D01*
X151809500Y-94339678D01*
X148230499Y-94339678D01*
X148230500Y-94339674D01*
X148230500Y-91780326D01*
X148230500Y-91780323D01*
X148230499Y-91780321D01*
X148215967Y-91707264D01*
X148215966Y-91707260D01*
X148215965Y-91707260D01*
X148160601Y-91624399D01*
X148077740Y-91569034D01*
X148077739Y-91569033D01*
X148077735Y-91569032D01*
X148004677Y-91554500D01*
X148004674Y-91554500D01*
X146955326Y-91554500D01*
X146955323Y-91554500D01*
X146882264Y-91569032D01*
X146882260Y-91569033D01*
X146799399Y-91624399D01*
X146744033Y-91707260D01*
X146744032Y-91707264D01*
X146729500Y-91780321D01*
X146729500Y-94339678D01*
X143150499Y-94339678D01*
X143150500Y-94339674D01*
X143150500Y-91780326D01*
X143150500Y-91780323D01*
X143150499Y-91780321D01*
X143135967Y-91707264D01*
X143135966Y-91707260D01*
X143135965Y-91707259D01*
X143080601Y-91624399D01*
X142997740Y-91569034D01*
X142997739Y-91569033D01*
X142997735Y-91569032D01*
X142924677Y-91554500D01*
X142924674Y-91554500D01*
X141875326Y-91554500D01*
X141875323Y-91554500D01*
X141802264Y-91569032D01*
X141802260Y-91569033D01*
X141719399Y-91624399D01*
X141664033Y-91707260D01*
X141664032Y-91707264D01*
X141649500Y-91780321D01*
X141649500Y-94339678D01*
X138070499Y-94339678D01*
X138070500Y-94339674D01*
X138070500Y-91780326D01*
X138070500Y-91780323D01*
X138070499Y-91780321D01*
X138055967Y-91707264D01*
X138055966Y-91707260D01*
X138055965Y-91707259D01*
X138000601Y-91624399D01*
X137917740Y-91569034D01*
X137917739Y-91569033D01*
X137917735Y-91569032D01*
X137844677Y-91554500D01*
X137844674Y-91554500D01*
X136795326Y-91554500D01*
X136795323Y-91554500D01*
X136722264Y-91569032D01*
X136722260Y-91569033D01*
X136639399Y-91624399D01*
X136584033Y-91707260D01*
X136584032Y-91707264D01*
X136569500Y-91780321D01*
X136569500Y-94339678D01*
X132990499Y-94339678D01*
X132990500Y-94339674D01*
X132990500Y-91780326D01*
X132990499Y-91780326D01*
X132990500Y-91780323D01*
X132990499Y-91780321D01*
X132975967Y-91707264D01*
X132975966Y-91707260D01*
X132975965Y-91707259D01*
X132920601Y-91624399D01*
X132837740Y-91569034D01*
X132837739Y-91569033D01*
X132837735Y-91569032D01*
X132764677Y-91554500D01*
X132764674Y-91554500D01*
X131715326Y-91554500D01*
X131715323Y-91554500D01*
X131642264Y-91569032D01*
X131642260Y-91569033D01*
X131559399Y-91624399D01*
X131504033Y-91707260D01*
X131504032Y-91707264D01*
X131489500Y-91780321D01*
X131489499Y-91780323D01*
X131489499Y-94339676D01*
X127910500Y-94339676D01*
X127910500Y-94339674D01*
X127910500Y-91780326D01*
X127910500Y-91780323D01*
X127910499Y-91780321D01*
X127895967Y-91707264D01*
X127895966Y-91707260D01*
X127895965Y-91707259D01*
X127840601Y-91624399D01*
X127757740Y-91569034D01*
X127757739Y-91569033D01*
X127757735Y-91569032D01*
X127684677Y-91554500D01*
X127684674Y-91554500D01*
X126635326Y-91554500D01*
X126635323Y-91554500D01*
X126562264Y-91569032D01*
X126562260Y-91569033D01*
X126479399Y-91624399D01*
X126424033Y-91707260D01*
X126424032Y-91707264D01*
X126409500Y-91780321D01*
X126409499Y-91780323D01*
X126409499Y-94339676D01*
X122830500Y-94339676D01*
X122830500Y-94339674D01*
X122830500Y-91780326D01*
X122830500Y-91780323D01*
X122830499Y-91780321D01*
X122815967Y-91707264D01*
X122815966Y-91707260D01*
X122815965Y-91707259D01*
X122760601Y-91624399D01*
X122677740Y-91569034D01*
X122677739Y-91569033D01*
X122677735Y-91569032D01*
X122604677Y-91554500D01*
X122604674Y-91554500D01*
X121555326Y-91554500D01*
X121555323Y-91554500D01*
X121482264Y-91569032D01*
X121482260Y-91569033D01*
X121399399Y-91624399D01*
X121344033Y-91707260D01*
X121344032Y-91707264D01*
X121329500Y-91780321D01*
X121329499Y-91780323D01*
X121329499Y-94339676D01*
X117750500Y-94339676D01*
X117750500Y-94339674D01*
X117750500Y-91780326D01*
X117750500Y-91780323D01*
X117750499Y-91780321D01*
X117735967Y-91707264D01*
X117735966Y-91707260D01*
X117735965Y-91707259D01*
X117680601Y-91624399D01*
X117597740Y-91569034D01*
X117597739Y-91569033D01*
X117597735Y-91569032D01*
X117524677Y-91554500D01*
X117524674Y-91554500D01*
X116475326Y-91554500D01*
X116475323Y-91554500D01*
X116402264Y-91569032D01*
X116402260Y-91569033D01*
X116319399Y-91624399D01*
X116264033Y-91707260D01*
X116264032Y-91707264D01*
X116249500Y-91780321D01*
X116249499Y-91780323D01*
X116249499Y-94339676D01*
X105303393Y-94339676D01*
X105303393Y-91029676D01*
X118789499Y-91029676D01*
X118789500Y-91029678D01*
X118804032Y-91102735D01*
X118804033Y-91102739D01*
X118804034Y-91102740D01*
X118859399Y-91185601D01*
X118942259Y-91240966D01*
X118942260Y-91240966D01*
X118942264Y-91240967D01*
X119015321Y-91255499D01*
X119015324Y-91255500D01*
X119015326Y-91255500D01*
X120064676Y-91255500D01*
X120064677Y-91255499D01*
X120137740Y-91240966D01*
X120220601Y-91185601D01*
X120275966Y-91102740D01*
X120290500Y-91029676D01*
X123869499Y-91029676D01*
X123869500Y-91029678D01*
X123884032Y-91102735D01*
X123884033Y-91102739D01*
X123884034Y-91102740D01*
X123939399Y-91185601D01*
X124022259Y-91240966D01*
X124022260Y-91240966D01*
X124022264Y-91240967D01*
X124095321Y-91255499D01*
X124095324Y-91255500D01*
X124095326Y-91255500D01*
X125144676Y-91255500D01*
X125144677Y-91255499D01*
X125217740Y-91240966D01*
X125300601Y-91185601D01*
X125355966Y-91102740D01*
X125370500Y-91029676D01*
X128949499Y-91029676D01*
X128949500Y-91029678D01*
X128964032Y-91102735D01*
X128964033Y-91102739D01*
X128964034Y-91102740D01*
X129019399Y-91185601D01*
X129102259Y-91240965D01*
X129102260Y-91240966D01*
X129102264Y-91240967D01*
X129175321Y-91255499D01*
X129175324Y-91255500D01*
X129175326Y-91255500D01*
X130224676Y-91255500D01*
X130224677Y-91255499D01*
X130297740Y-91240966D01*
X130380601Y-91185601D01*
X130435966Y-91102740D01*
X130450500Y-91029676D01*
X134029499Y-91029676D01*
X134029500Y-91029678D01*
X134044032Y-91102735D01*
X134044033Y-91102739D01*
X134044034Y-91102740D01*
X134099399Y-91185601D01*
X134182260Y-91240966D01*
X134182264Y-91240967D01*
X134255321Y-91255499D01*
X134255324Y-91255500D01*
X134255326Y-91255500D01*
X135304676Y-91255500D01*
X135304677Y-91255499D01*
X135377740Y-91240966D01*
X135460601Y-91185601D01*
X135515966Y-91102740D01*
X135530499Y-91029678D01*
X139109500Y-91029678D01*
X139124032Y-91102735D01*
X139124033Y-91102739D01*
X139124034Y-91102740D01*
X139179399Y-91185601D01*
X139262260Y-91240966D01*
X139262264Y-91240967D01*
X139335321Y-91255499D01*
X139335324Y-91255500D01*
X139335326Y-91255500D01*
X140384676Y-91255500D01*
X140384677Y-91255499D01*
X140457740Y-91240966D01*
X140540601Y-91185601D01*
X140595966Y-91102740D01*
X140610499Y-91029678D01*
X144189500Y-91029678D01*
X144204032Y-91102735D01*
X144204033Y-91102739D01*
X144204034Y-91102740D01*
X144259399Y-91185601D01*
X144342259Y-91240965D01*
X144342260Y-91240966D01*
X144342264Y-91240967D01*
X144415321Y-91255499D01*
X144415324Y-91255500D01*
X144415326Y-91255500D01*
X145464676Y-91255500D01*
X145464677Y-91255499D01*
X145537740Y-91240966D01*
X145620601Y-91185601D01*
X145675966Y-91102740D01*
X145690499Y-91029678D01*
X149269500Y-91029678D01*
X149284032Y-91102735D01*
X149284033Y-91102739D01*
X149284034Y-91102740D01*
X149339399Y-91185601D01*
X149422259Y-91240966D01*
X149422260Y-91240966D01*
X149422264Y-91240967D01*
X149495321Y-91255499D01*
X149495324Y-91255500D01*
X149495326Y-91255500D01*
X150544676Y-91255500D01*
X150544677Y-91255499D01*
X150617740Y-91240966D01*
X150700601Y-91185601D01*
X150755966Y-91102740D01*
X150770499Y-91029678D01*
X154349500Y-91029678D01*
X154364032Y-91102735D01*
X154364033Y-91102739D01*
X154364034Y-91102740D01*
X154419399Y-91185601D01*
X154502259Y-91240966D01*
X154502260Y-91240966D01*
X154502264Y-91240967D01*
X154575321Y-91255499D01*
X154575324Y-91255500D01*
X154575326Y-91255500D01*
X155624676Y-91255500D01*
X155624677Y-91255499D01*
X155697740Y-91240966D01*
X155780601Y-91185601D01*
X155835966Y-91102740D01*
X155850500Y-91029674D01*
X155850500Y-90000000D01*
X159180000Y-90000000D01*
X159180000Y-91052844D01*
X159186401Y-91112372D01*
X159186403Y-91112379D01*
X159236645Y-91247086D01*
X159236649Y-91247093D01*
X159322809Y-91362187D01*
X159322812Y-91362190D01*
X159437906Y-91448350D01*
X159437913Y-91448354D01*
X159572620Y-91498596D01*
X159572627Y-91498598D01*
X159632155Y-91504999D01*
X159632172Y-91505000D01*
X159930000Y-91505000D01*
X159930000Y-90000000D01*
X160430000Y-90000000D01*
X160430000Y-91505000D01*
X160727828Y-91505000D01*
X160727844Y-91504999D01*
X160787372Y-91498598D01*
X160787379Y-91498596D01*
X160922086Y-91448354D01*
X160922093Y-91448350D01*
X161037187Y-91362190D01*
X161037190Y-91362187D01*
X161123350Y-91247093D01*
X161123354Y-91247086D01*
X161173596Y-91112379D01*
X161173598Y-91112372D01*
X161179999Y-91052844D01*
X161180000Y-91052827D01*
X161180000Y-90000000D01*
X160430000Y-90000000D01*
X159930000Y-90000000D01*
X159180000Y-90000000D01*
X155850500Y-90000000D01*
X155850500Y-89500000D01*
X159180000Y-89500000D01*
X159930000Y-89500000D01*
X159930000Y-87995000D01*
X160430000Y-87995000D01*
X160430000Y-89500000D01*
X161180000Y-89500000D01*
X161180000Y-88447172D01*
X161179999Y-88447155D01*
X161173598Y-88387627D01*
X161173596Y-88387620D01*
X161123354Y-88252913D01*
X161123350Y-88252906D01*
X161037190Y-88137812D01*
X161037187Y-88137809D01*
X160922093Y-88051649D01*
X160922086Y-88051645D01*
X160787379Y-88001403D01*
X160787372Y-88001401D01*
X160727844Y-87995000D01*
X160430000Y-87995000D01*
X159930000Y-87995000D01*
X159632155Y-87995000D01*
X159572627Y-88001401D01*
X159572620Y-88001403D01*
X159437913Y-88051645D01*
X159437906Y-88051649D01*
X159322812Y-88137809D01*
X159322809Y-88137812D01*
X159236649Y-88252906D01*
X159236645Y-88252913D01*
X159186403Y-88387620D01*
X159186401Y-88387627D01*
X159180000Y-88447155D01*
X159180000Y-89500000D01*
X155850500Y-89500000D01*
X155850500Y-88470326D01*
X155850500Y-88470323D01*
X155850499Y-88470321D01*
X155835967Y-88397264D01*
X155835966Y-88397260D01*
X155835966Y-88397259D01*
X155780601Y-88314399D01*
X155697740Y-88259034D01*
X155697739Y-88259033D01*
X155697735Y-88259032D01*
X155624677Y-88244500D01*
X155624674Y-88244500D01*
X154575326Y-88244500D01*
X154575323Y-88244500D01*
X154502264Y-88259032D01*
X154502260Y-88259033D01*
X154419399Y-88314399D01*
X154364033Y-88397260D01*
X154364032Y-88397264D01*
X154349500Y-88470321D01*
X154349500Y-91029678D01*
X150770499Y-91029678D01*
X150770500Y-91029674D01*
X150770500Y-88470326D01*
X150770500Y-88470323D01*
X150770499Y-88470321D01*
X150755967Y-88397264D01*
X150755966Y-88397260D01*
X150700601Y-88314399D01*
X150617740Y-88259034D01*
X150617739Y-88259033D01*
X150617735Y-88259032D01*
X150544677Y-88244500D01*
X150544674Y-88244500D01*
X149495326Y-88244500D01*
X149495323Y-88244500D01*
X149422264Y-88259032D01*
X149422260Y-88259033D01*
X149339399Y-88314399D01*
X149284033Y-88397260D01*
X149284032Y-88397264D01*
X149269500Y-88470321D01*
X149269500Y-91029678D01*
X145690499Y-91029678D01*
X145690500Y-91029674D01*
X145690500Y-88470326D01*
X145690500Y-88470325D01*
X145690500Y-88470323D01*
X145690499Y-88470321D01*
X145675967Y-88397264D01*
X145675966Y-88397260D01*
X145675966Y-88397259D01*
X145620601Y-88314399D01*
X145537740Y-88259034D01*
X145537739Y-88259033D01*
X145537735Y-88259032D01*
X145464677Y-88244500D01*
X145464674Y-88244500D01*
X144415326Y-88244500D01*
X144415323Y-88244500D01*
X144342264Y-88259032D01*
X144342260Y-88259033D01*
X144259399Y-88314399D01*
X144204033Y-88397260D01*
X144204032Y-88397264D01*
X144189500Y-88470321D01*
X144189500Y-91029678D01*
X140610499Y-91029678D01*
X140610500Y-91029674D01*
X140610500Y-88470326D01*
X140610500Y-88470325D01*
X140610500Y-88470323D01*
X140610499Y-88470321D01*
X140595967Y-88397264D01*
X140595966Y-88397260D01*
X140540601Y-88314399D01*
X140457740Y-88259034D01*
X140457739Y-88259033D01*
X140457735Y-88259032D01*
X140384677Y-88244500D01*
X140384674Y-88244500D01*
X139335326Y-88244500D01*
X139335323Y-88244500D01*
X139262264Y-88259032D01*
X139262260Y-88259033D01*
X139179399Y-88314399D01*
X139124033Y-88397260D01*
X139124032Y-88397264D01*
X139109500Y-88470321D01*
X139109500Y-91029678D01*
X135530499Y-91029678D01*
X135530500Y-91029674D01*
X135530500Y-88470326D01*
X135530500Y-88470325D01*
X135530500Y-88470323D01*
X135530499Y-88470321D01*
X135515967Y-88397264D01*
X135515966Y-88397260D01*
X135460601Y-88314399D01*
X135377740Y-88259034D01*
X135377739Y-88259033D01*
X135377735Y-88259032D01*
X135304677Y-88244500D01*
X135304674Y-88244500D01*
X134255326Y-88244500D01*
X134255323Y-88244500D01*
X134182264Y-88259032D01*
X134182260Y-88259033D01*
X134099399Y-88314399D01*
X134044033Y-88397260D01*
X134044032Y-88397264D01*
X134029500Y-88470321D01*
X134029499Y-88470323D01*
X134029499Y-91029676D01*
X130450500Y-91029676D01*
X130450500Y-91029674D01*
X130450500Y-88470326D01*
X130450500Y-88470325D01*
X130450500Y-88470323D01*
X130450499Y-88470321D01*
X130435967Y-88397264D01*
X130435966Y-88397260D01*
X130380601Y-88314399D01*
X130297740Y-88259034D01*
X130297739Y-88259033D01*
X130297735Y-88259032D01*
X130224677Y-88244500D01*
X130224674Y-88244500D01*
X129175326Y-88244500D01*
X129175323Y-88244500D01*
X129102264Y-88259032D01*
X129102260Y-88259033D01*
X129019399Y-88314399D01*
X128964033Y-88397260D01*
X128964032Y-88397264D01*
X128949500Y-88470321D01*
X128949499Y-88470323D01*
X128949499Y-91029676D01*
X125370500Y-91029676D01*
X125370500Y-91029674D01*
X125370500Y-88470326D01*
X125370499Y-88470325D01*
X125370500Y-88470323D01*
X125370499Y-88470321D01*
X125355967Y-88397264D01*
X125355966Y-88397260D01*
X125300601Y-88314399D01*
X125217740Y-88259034D01*
X125217739Y-88259033D01*
X125217735Y-88259032D01*
X125144677Y-88244500D01*
X125144674Y-88244500D01*
X124095326Y-88244500D01*
X124095323Y-88244500D01*
X124022264Y-88259032D01*
X124022260Y-88259033D01*
X123939399Y-88314399D01*
X123884033Y-88397260D01*
X123884032Y-88397264D01*
X123869500Y-88470321D01*
X123869499Y-88470323D01*
X123869499Y-91029676D01*
X120290500Y-91029676D01*
X120290500Y-91029674D01*
X120290500Y-88470326D01*
X120290500Y-88470325D01*
X120290500Y-88470323D01*
X120290499Y-88470321D01*
X120275967Y-88397264D01*
X120275966Y-88397260D01*
X120275965Y-88397260D01*
X120220601Y-88314399D01*
X120137740Y-88259034D01*
X120137739Y-88259033D01*
X120137735Y-88259032D01*
X120064677Y-88244500D01*
X120064674Y-88244500D01*
X119015326Y-88244500D01*
X119015323Y-88244500D01*
X118942264Y-88259032D01*
X118942260Y-88259033D01*
X118859399Y-88314399D01*
X118804033Y-88397260D01*
X118804032Y-88397264D01*
X118789500Y-88470321D01*
X118789499Y-88470323D01*
X118789499Y-91029676D01*
X105303393Y-91029676D01*
X105303393Y-71339676D01*
X116249499Y-71339676D01*
X116249500Y-71339678D01*
X116264032Y-71412735D01*
X116264033Y-71412739D01*
X116264034Y-71412740D01*
X116319399Y-71495601D01*
X116402259Y-71550965D01*
X116402260Y-71550966D01*
X116402264Y-71550967D01*
X116475321Y-71565499D01*
X116475324Y-71565500D01*
X116475326Y-71565500D01*
X117524676Y-71565500D01*
X117524677Y-71565499D01*
X117597740Y-71550966D01*
X117680601Y-71495601D01*
X117735966Y-71412740D01*
X117750500Y-71339676D01*
X121329499Y-71339676D01*
X121329500Y-71339678D01*
X121344032Y-71412735D01*
X121344033Y-71412739D01*
X121344034Y-71412740D01*
X121399399Y-71495601D01*
X121482259Y-71550966D01*
X121482260Y-71550966D01*
X121482264Y-71550967D01*
X121555321Y-71565499D01*
X121555324Y-71565500D01*
X121555326Y-71565500D01*
X122604676Y-71565500D01*
X122604677Y-71565499D01*
X122677740Y-71550966D01*
X122760601Y-71495601D01*
X122815966Y-71412740D01*
X122830500Y-71339676D01*
X126409499Y-71339676D01*
X126409500Y-71339678D01*
X126424032Y-71412735D01*
X126424033Y-71412739D01*
X126424034Y-71412740D01*
X126479399Y-71495601D01*
X126562259Y-71550966D01*
X126562260Y-71550966D01*
X126562264Y-71550967D01*
X126635321Y-71565499D01*
X126635324Y-71565500D01*
X126635326Y-71565500D01*
X127684676Y-71565500D01*
X127684677Y-71565499D01*
X127757740Y-71550966D01*
X127840601Y-71495601D01*
X127895966Y-71412740D01*
X127910500Y-71339676D01*
X131489499Y-71339676D01*
X131489500Y-71339678D01*
X131504032Y-71412735D01*
X131504033Y-71412739D01*
X131504034Y-71412740D01*
X131559399Y-71495601D01*
X131642259Y-71550966D01*
X131642260Y-71550966D01*
X131642264Y-71550967D01*
X131715321Y-71565499D01*
X131715324Y-71565500D01*
X131715326Y-71565500D01*
X132764676Y-71565500D01*
X132764677Y-71565499D01*
X132837740Y-71550966D01*
X132920601Y-71495601D01*
X132975966Y-71412740D01*
X132990499Y-71339678D01*
X136569500Y-71339678D01*
X136584032Y-71412735D01*
X136584033Y-71412739D01*
X136584034Y-71412740D01*
X136639399Y-71495601D01*
X136722259Y-71550966D01*
X136722260Y-71550966D01*
X136722264Y-71550967D01*
X136795321Y-71565499D01*
X136795324Y-71565500D01*
X136795326Y-71565500D01*
X137844676Y-71565500D01*
X137844677Y-71565499D01*
X137917740Y-71550966D01*
X138000601Y-71495601D01*
X138055966Y-71412740D01*
X138070499Y-71339678D01*
X141649500Y-71339678D01*
X141664032Y-71412735D01*
X141664033Y-71412739D01*
X141664034Y-71412740D01*
X141719399Y-71495601D01*
X141802260Y-71550966D01*
X141802264Y-71550967D01*
X141875321Y-71565499D01*
X141875324Y-71565500D01*
X141875326Y-71565500D01*
X142924676Y-71565500D01*
X142924677Y-71565499D01*
X142997740Y-71550966D01*
X143080601Y-71495601D01*
X143135966Y-71412740D01*
X143150499Y-71339678D01*
X146729500Y-71339678D01*
X146744032Y-71412735D01*
X146744033Y-71412739D01*
X146744034Y-71412740D01*
X146799399Y-71495601D01*
X146882260Y-71550966D01*
X146882264Y-71550967D01*
X146955321Y-71565499D01*
X146955324Y-71565500D01*
X146955326Y-71565500D01*
X148004676Y-71565500D01*
X148004677Y-71565499D01*
X148077740Y-71550966D01*
X148160601Y-71495601D01*
X148215966Y-71412740D01*
X148230499Y-71339678D01*
X151809500Y-71339678D01*
X151824032Y-71412735D01*
X151824033Y-71412739D01*
X151824034Y-71412740D01*
X151879399Y-71495601D01*
X151962260Y-71550966D01*
X151962264Y-71550967D01*
X152035321Y-71565499D01*
X152035324Y-71565500D01*
X152035326Y-71565500D01*
X153084676Y-71565500D01*
X153084677Y-71565499D01*
X153157740Y-71550966D01*
X153240601Y-71495601D01*
X153295966Y-71412740D01*
X153310500Y-71339674D01*
X153310500Y-68780326D01*
X153310500Y-68780323D01*
X153310499Y-68780321D01*
X153295967Y-68707264D01*
X153295966Y-68707260D01*
X153295965Y-68707259D01*
X153240601Y-68624399D01*
X153157740Y-68569034D01*
X153157739Y-68569033D01*
X153157735Y-68569032D01*
X153084677Y-68554500D01*
X153084674Y-68554500D01*
X152035326Y-68554500D01*
X152035323Y-68554500D01*
X151962264Y-68569032D01*
X151962260Y-68569033D01*
X151879399Y-68624399D01*
X151824033Y-68707260D01*
X151824032Y-68707264D01*
X151809500Y-68780321D01*
X151809500Y-71339678D01*
X148230499Y-71339678D01*
X148230500Y-71339674D01*
X148230500Y-68780326D01*
X148230500Y-68780323D01*
X148230499Y-68780321D01*
X148215967Y-68707264D01*
X148215966Y-68707260D01*
X148215965Y-68707259D01*
X148160601Y-68624399D01*
X148077740Y-68569034D01*
X148077739Y-68569033D01*
X148077735Y-68569032D01*
X148004677Y-68554500D01*
X148004674Y-68554500D01*
X146955326Y-68554500D01*
X146955323Y-68554500D01*
X146882264Y-68569032D01*
X146882260Y-68569033D01*
X146799399Y-68624399D01*
X146744033Y-68707260D01*
X146744032Y-68707264D01*
X146729500Y-68780321D01*
X146729500Y-71339678D01*
X143150499Y-71339678D01*
X143150500Y-71339674D01*
X143150500Y-68780326D01*
X143150500Y-68780325D01*
X143150500Y-68780323D01*
X143150499Y-68780321D01*
X143135967Y-68707264D01*
X143135966Y-68707260D01*
X143135965Y-68707259D01*
X143080601Y-68624399D01*
X142997740Y-68569034D01*
X142997739Y-68569033D01*
X142997735Y-68569032D01*
X142924677Y-68554500D01*
X142924674Y-68554500D01*
X141875326Y-68554500D01*
X141875323Y-68554500D01*
X141802264Y-68569032D01*
X141802260Y-68569033D01*
X141719399Y-68624399D01*
X141664033Y-68707260D01*
X141664032Y-68707264D01*
X141649500Y-68780321D01*
X141649500Y-71339678D01*
X138070499Y-71339678D01*
X138070500Y-71339674D01*
X138070500Y-68780326D01*
X138070500Y-68780323D01*
X138070499Y-68780321D01*
X138055967Y-68707264D01*
X138055966Y-68707260D01*
X138055965Y-68707259D01*
X138000601Y-68624399D01*
X137917740Y-68569034D01*
X137917739Y-68569033D01*
X137917735Y-68569032D01*
X137844677Y-68554500D01*
X137844674Y-68554500D01*
X136795326Y-68554500D01*
X136795323Y-68554500D01*
X136722264Y-68569032D01*
X136722260Y-68569033D01*
X136639399Y-68624399D01*
X136584033Y-68707260D01*
X136584032Y-68707264D01*
X136569500Y-68780321D01*
X136569500Y-71339678D01*
X132990499Y-71339678D01*
X132990500Y-71339674D01*
X132990500Y-68780326D01*
X132990499Y-68780326D01*
X132990500Y-68780323D01*
X132990499Y-68780321D01*
X132975967Y-68707264D01*
X132975966Y-68707260D01*
X132975965Y-68707259D01*
X132920601Y-68624399D01*
X132837740Y-68569034D01*
X132837739Y-68569033D01*
X132837735Y-68569032D01*
X132764677Y-68554500D01*
X132764674Y-68554500D01*
X131715326Y-68554500D01*
X131715323Y-68554500D01*
X131642264Y-68569032D01*
X131642260Y-68569033D01*
X131559399Y-68624399D01*
X131504033Y-68707260D01*
X131504032Y-68707264D01*
X131489500Y-68780321D01*
X131489499Y-68780323D01*
X131489499Y-71339676D01*
X127910500Y-71339676D01*
X127910500Y-71339674D01*
X127910500Y-68780326D01*
X127910500Y-68780323D01*
X127910499Y-68780321D01*
X127895967Y-68707264D01*
X127895966Y-68707260D01*
X127895965Y-68707259D01*
X127840601Y-68624399D01*
X127757740Y-68569034D01*
X127757739Y-68569033D01*
X127757735Y-68569032D01*
X127684677Y-68554500D01*
X127684674Y-68554500D01*
X126635326Y-68554500D01*
X126635323Y-68554500D01*
X126562264Y-68569032D01*
X126562260Y-68569033D01*
X126479399Y-68624399D01*
X126424033Y-68707260D01*
X126424032Y-68707264D01*
X126409500Y-68780321D01*
X126409499Y-68780323D01*
X126409499Y-71339676D01*
X122830500Y-71339676D01*
X122830500Y-71339674D01*
X122830500Y-68780326D01*
X122830500Y-68780323D01*
X122830499Y-68780321D01*
X122815967Y-68707264D01*
X122815966Y-68707260D01*
X122815965Y-68707259D01*
X122760601Y-68624399D01*
X122677740Y-68569034D01*
X122677739Y-68569033D01*
X122677735Y-68569032D01*
X122604677Y-68554500D01*
X122604674Y-68554500D01*
X121555326Y-68554500D01*
X121555323Y-68554500D01*
X121482264Y-68569032D01*
X121482260Y-68569033D01*
X121399399Y-68624399D01*
X121344033Y-68707260D01*
X121344032Y-68707264D01*
X121329500Y-68780321D01*
X121329499Y-68780323D01*
X121329499Y-71339676D01*
X117750500Y-71339676D01*
X117750500Y-71339674D01*
X117750500Y-68780326D01*
X117750500Y-68780323D01*
X117750499Y-68780321D01*
X117735967Y-68707264D01*
X117735966Y-68707260D01*
X117735965Y-68707259D01*
X117680601Y-68624399D01*
X117597740Y-68569034D01*
X117597739Y-68569033D01*
X117597735Y-68569032D01*
X117524677Y-68554500D01*
X117524674Y-68554500D01*
X116475326Y-68554500D01*
X116475323Y-68554500D01*
X116402264Y-68569032D01*
X116402260Y-68569033D01*
X116319399Y-68624399D01*
X116264033Y-68707260D01*
X116264032Y-68707264D01*
X116249500Y-68780321D01*
X116249499Y-68780323D01*
X116249499Y-71339676D01*
X105303393Y-71339676D01*
X105303393Y-68029676D01*
X118789499Y-68029676D01*
X118789500Y-68029678D01*
X118804032Y-68102735D01*
X118804033Y-68102739D01*
X118804034Y-68102740D01*
X118859399Y-68185601D01*
X118942259Y-68240966D01*
X118942260Y-68240966D01*
X118942264Y-68240967D01*
X119015321Y-68255499D01*
X119015324Y-68255500D01*
X119015326Y-68255500D01*
X120064676Y-68255500D01*
X120064677Y-68255499D01*
X120137740Y-68240966D01*
X120220601Y-68185601D01*
X120275966Y-68102740D01*
X120290500Y-68029676D01*
X123869499Y-68029676D01*
X123869500Y-68029678D01*
X123884032Y-68102735D01*
X123884033Y-68102739D01*
X123884034Y-68102740D01*
X123939399Y-68185601D01*
X124022259Y-68240966D01*
X124022260Y-68240966D01*
X124022264Y-68240967D01*
X124095321Y-68255499D01*
X124095324Y-68255500D01*
X124095326Y-68255500D01*
X125144676Y-68255500D01*
X125144677Y-68255499D01*
X125217740Y-68240966D01*
X125300601Y-68185601D01*
X125355966Y-68102740D01*
X125370500Y-68029676D01*
X128949499Y-68029676D01*
X128949500Y-68029678D01*
X128964032Y-68102735D01*
X128964033Y-68102739D01*
X128964034Y-68102740D01*
X129019399Y-68185601D01*
X129102259Y-68240966D01*
X129102260Y-68240966D01*
X129102264Y-68240967D01*
X129175321Y-68255499D01*
X129175324Y-68255500D01*
X129175326Y-68255500D01*
X130224676Y-68255500D01*
X130224677Y-68255499D01*
X130297740Y-68240966D01*
X130380601Y-68185601D01*
X130435966Y-68102740D01*
X130450500Y-68029676D01*
X134029499Y-68029676D01*
X134029500Y-68029678D01*
X134044032Y-68102735D01*
X134044033Y-68102739D01*
X134044034Y-68102740D01*
X134099399Y-68185601D01*
X134182259Y-68240966D01*
X134182260Y-68240966D01*
X134182264Y-68240967D01*
X134255321Y-68255499D01*
X134255324Y-68255500D01*
X134255326Y-68255500D01*
X135304676Y-68255500D01*
X135304677Y-68255499D01*
X135377740Y-68240966D01*
X135460601Y-68185601D01*
X135515966Y-68102740D01*
X135530499Y-68029678D01*
X139109500Y-68029678D01*
X139124032Y-68102735D01*
X139124033Y-68102739D01*
X139124034Y-68102740D01*
X139179399Y-68185601D01*
X139262259Y-68240966D01*
X139262260Y-68240966D01*
X139262264Y-68240967D01*
X139335321Y-68255499D01*
X139335324Y-68255500D01*
X139335326Y-68255500D01*
X140384676Y-68255500D01*
X140384677Y-68255499D01*
X140457740Y-68240966D01*
X140540601Y-68185601D01*
X140595966Y-68102740D01*
X140610499Y-68029678D01*
X144189500Y-68029678D01*
X144204032Y-68102735D01*
X144204033Y-68102739D01*
X144204034Y-68102740D01*
X144259399Y-68185601D01*
X144342259Y-68240966D01*
X144342260Y-68240966D01*
X144342264Y-68240967D01*
X144415321Y-68255499D01*
X144415324Y-68255500D01*
X144415326Y-68255500D01*
X145464676Y-68255500D01*
X145464677Y-68255499D01*
X145537740Y-68240966D01*
X145620601Y-68185601D01*
X145675966Y-68102740D01*
X145690499Y-68029678D01*
X149269500Y-68029678D01*
X149284032Y-68102735D01*
X149284033Y-68102739D01*
X149284034Y-68102740D01*
X149339399Y-68185601D01*
X149422259Y-68240966D01*
X149422260Y-68240966D01*
X149422264Y-68240967D01*
X149495321Y-68255499D01*
X149495324Y-68255500D01*
X149495326Y-68255500D01*
X150544676Y-68255500D01*
X150544677Y-68255499D01*
X150617740Y-68240966D01*
X150700601Y-68185601D01*
X150755966Y-68102740D01*
X150770499Y-68029678D01*
X154349500Y-68029678D01*
X154364032Y-68102735D01*
X154364033Y-68102739D01*
X154364034Y-68102740D01*
X154419399Y-68185601D01*
X154502259Y-68240966D01*
X154502260Y-68240966D01*
X154502264Y-68240967D01*
X154575321Y-68255499D01*
X154575324Y-68255500D01*
X154575326Y-68255500D01*
X155624676Y-68255500D01*
X155624677Y-68255499D01*
X155697740Y-68240966D01*
X155780601Y-68185601D01*
X155835966Y-68102740D01*
X155850500Y-68029674D01*
X155850500Y-67000000D01*
X159180000Y-67000000D01*
X159180000Y-68052844D01*
X159186401Y-68112372D01*
X159186403Y-68112379D01*
X159236645Y-68247086D01*
X159236649Y-68247093D01*
X159322809Y-68362187D01*
X159322812Y-68362190D01*
X159437906Y-68448350D01*
X159437913Y-68448354D01*
X159572620Y-68498596D01*
X159572627Y-68498598D01*
X159632155Y-68504999D01*
X159632172Y-68505000D01*
X159930000Y-68505000D01*
X159930000Y-67000000D01*
X160430000Y-67000000D01*
X160430000Y-68505000D01*
X160727828Y-68505000D01*
X160727844Y-68504999D01*
X160787372Y-68498598D01*
X160787379Y-68498596D01*
X160922086Y-68448354D01*
X160922093Y-68448350D01*
X161037187Y-68362190D01*
X161037190Y-68362187D01*
X161123350Y-68247093D01*
X161123354Y-68247086D01*
X161173596Y-68112379D01*
X161173598Y-68112372D01*
X161179999Y-68052844D01*
X161180000Y-68052827D01*
X161180000Y-67000000D01*
X160430000Y-67000000D01*
X159930000Y-67000000D01*
X159180000Y-67000000D01*
X155850500Y-67000000D01*
X155850500Y-66500000D01*
X159180000Y-66500000D01*
X159930000Y-66500000D01*
X159930000Y-64995000D01*
X160430000Y-64995000D01*
X160430000Y-66500000D01*
X161180000Y-66500000D01*
X161180000Y-65447172D01*
X161179999Y-65447155D01*
X161173598Y-65387627D01*
X161173596Y-65387620D01*
X161123354Y-65252913D01*
X161123350Y-65252906D01*
X161037190Y-65137812D01*
X161037187Y-65137809D01*
X160922093Y-65051649D01*
X160922086Y-65051645D01*
X160787379Y-65001403D01*
X160787372Y-65001401D01*
X160727844Y-64995000D01*
X160430000Y-64995000D01*
X159930000Y-64995000D01*
X159632155Y-64995000D01*
X159572627Y-65001401D01*
X159572620Y-65001403D01*
X159437913Y-65051645D01*
X159437906Y-65051649D01*
X159322812Y-65137809D01*
X159322809Y-65137812D01*
X159236649Y-65252906D01*
X159236645Y-65252913D01*
X159186403Y-65387620D01*
X159186401Y-65387627D01*
X159180000Y-65447155D01*
X159180000Y-66500000D01*
X155850500Y-66500000D01*
X155850500Y-65470326D01*
X155850500Y-65470325D01*
X155850500Y-65470323D01*
X155850499Y-65470321D01*
X155835967Y-65397264D01*
X155835966Y-65397260D01*
X155835966Y-65397259D01*
X155780601Y-65314399D01*
X155697740Y-65259034D01*
X155697739Y-65259033D01*
X155697735Y-65259032D01*
X155624677Y-65244500D01*
X155624674Y-65244500D01*
X154575326Y-65244500D01*
X154575323Y-65244500D01*
X154502264Y-65259032D01*
X154502260Y-65259033D01*
X154419399Y-65314399D01*
X154364033Y-65397260D01*
X154364032Y-65397264D01*
X154349500Y-65470321D01*
X154349500Y-68029678D01*
X150770499Y-68029678D01*
X150770500Y-68029674D01*
X150770500Y-65470326D01*
X150770500Y-65470323D01*
X150770499Y-65470321D01*
X150755967Y-65397264D01*
X150755966Y-65397260D01*
X150755966Y-65397259D01*
X150700601Y-65314399D01*
X150617740Y-65259034D01*
X150617739Y-65259033D01*
X150617735Y-65259032D01*
X150544677Y-65244500D01*
X150544674Y-65244500D01*
X149495326Y-65244500D01*
X149495323Y-65244500D01*
X149422264Y-65259032D01*
X149422260Y-65259033D01*
X149339399Y-65314399D01*
X149284033Y-65397260D01*
X149284032Y-65397264D01*
X149269500Y-65470321D01*
X149269500Y-68029678D01*
X145690499Y-68029678D01*
X145690500Y-68029674D01*
X145690500Y-65470326D01*
X145690500Y-65470325D01*
X145690500Y-65470323D01*
X145690499Y-65470321D01*
X145675967Y-65397264D01*
X145675966Y-65397260D01*
X145675966Y-65397259D01*
X145620601Y-65314399D01*
X145537740Y-65259034D01*
X145537739Y-65259033D01*
X145537735Y-65259032D01*
X145464677Y-65244500D01*
X145464674Y-65244500D01*
X144415326Y-65244500D01*
X144415323Y-65244500D01*
X144342264Y-65259032D01*
X144342260Y-65259033D01*
X144259399Y-65314399D01*
X144204033Y-65397260D01*
X144204032Y-65397264D01*
X144189500Y-65470321D01*
X144189500Y-68029678D01*
X140610499Y-68029678D01*
X140610500Y-68029674D01*
X140610500Y-65470326D01*
X140610500Y-65470325D01*
X140610500Y-65470323D01*
X140610499Y-65470321D01*
X140595967Y-65397264D01*
X140595966Y-65397260D01*
X140595966Y-65397259D01*
X140540601Y-65314399D01*
X140457740Y-65259034D01*
X140457739Y-65259033D01*
X140457735Y-65259032D01*
X140384677Y-65244500D01*
X140384674Y-65244500D01*
X139335326Y-65244500D01*
X139335323Y-65244500D01*
X139262264Y-65259032D01*
X139262260Y-65259033D01*
X139179399Y-65314399D01*
X139124033Y-65397260D01*
X139124032Y-65397264D01*
X139109500Y-65470321D01*
X139109500Y-68029678D01*
X135530499Y-68029678D01*
X135530500Y-68029674D01*
X135530500Y-65470326D01*
X135530500Y-65470325D01*
X135530500Y-65470323D01*
X135530499Y-65470321D01*
X135515967Y-65397264D01*
X135515966Y-65397260D01*
X135515966Y-65397259D01*
X135460601Y-65314399D01*
X135377740Y-65259034D01*
X135377739Y-65259033D01*
X135377735Y-65259032D01*
X135304677Y-65244500D01*
X135304674Y-65244500D01*
X134255326Y-65244500D01*
X134255323Y-65244500D01*
X134182264Y-65259032D01*
X134182260Y-65259033D01*
X134099399Y-65314399D01*
X134044033Y-65397260D01*
X134044032Y-65397264D01*
X134029500Y-65470321D01*
X134029499Y-65470323D01*
X134029499Y-68029676D01*
X130450500Y-68029676D01*
X130450500Y-68029674D01*
X130450500Y-65470326D01*
X130450500Y-65470325D01*
X130450500Y-65470323D01*
X130450499Y-65470321D01*
X130435967Y-65397264D01*
X130435966Y-65397260D01*
X130435966Y-65397259D01*
X130380601Y-65314399D01*
X130297740Y-65259034D01*
X130297739Y-65259033D01*
X130297735Y-65259032D01*
X130224677Y-65244500D01*
X130224674Y-65244500D01*
X129175326Y-65244500D01*
X129175323Y-65244500D01*
X129102264Y-65259032D01*
X129102260Y-65259033D01*
X129019399Y-65314399D01*
X128964033Y-65397260D01*
X128964032Y-65397264D01*
X128949500Y-65470321D01*
X128949499Y-65470323D01*
X128949499Y-68029676D01*
X125370500Y-68029676D01*
X125370500Y-68029674D01*
X125370500Y-65470326D01*
X125370499Y-65470325D01*
X125370500Y-65470323D01*
X125370499Y-65470321D01*
X125355967Y-65397264D01*
X125355966Y-65397260D01*
X125300601Y-65314399D01*
X125217740Y-65259034D01*
X125217739Y-65259033D01*
X125217735Y-65259032D01*
X125144677Y-65244500D01*
X125144674Y-65244500D01*
X124095326Y-65244500D01*
X124095323Y-65244500D01*
X124022264Y-65259032D01*
X124022260Y-65259033D01*
X123939399Y-65314399D01*
X123884033Y-65397260D01*
X123884032Y-65397264D01*
X123869500Y-65470321D01*
X123869499Y-65470323D01*
X123869499Y-68029676D01*
X120290500Y-68029676D01*
X120290500Y-68029674D01*
X120290500Y-65470326D01*
X120290500Y-65470325D01*
X120290500Y-65470323D01*
X120290499Y-65470321D01*
X120275967Y-65397264D01*
X120275966Y-65397260D01*
X120220601Y-65314399D01*
X120137740Y-65259034D01*
X120137739Y-65259033D01*
X120137735Y-65259032D01*
X120064677Y-65244500D01*
X120064674Y-65244500D01*
X119015326Y-65244500D01*
X119015323Y-65244500D01*
X118942264Y-65259032D01*
X118942260Y-65259033D01*
X118859399Y-65314399D01*
X118804033Y-65397260D01*
X118804032Y-65397264D01*
X118789500Y-65470321D01*
X118789499Y-65470323D01*
X118789499Y-68029676D01*
X105303393Y-68029676D01*
X105303393Y-62447401D01*
X108495746Y-62447401D01*
X108505745Y-62657327D01*
X108555296Y-62861578D01*
X108555298Y-62861582D01*
X108642598Y-63052743D01*
X108642601Y-63052748D01*
X108642602Y-63052750D01*
X108642604Y-63052753D01*
X108764514Y-63223952D01*
X108764515Y-63223953D01*
X108764520Y-63223959D01*
X108916620Y-63368985D01*
X108916622Y-63368986D01*
X109093428Y-63482613D01*
X109288543Y-63560725D01*
X109378117Y-63577989D01*
X109494914Y-63600500D01*
X109494915Y-63600500D01*
X109952419Y-63600500D01*
X109952425Y-63600500D01*
X110109218Y-63585528D01*
X110310875Y-63526316D01*
X110324518Y-63519282D01*
X110381334Y-63505500D01*
X169720500Y-63505500D01*
X169787539Y-63525185D01*
X169833294Y-63577989D01*
X169844500Y-63629500D01*
X169844500Y-65576002D01*
X169850338Y-65630312D01*
X169861543Y-65681818D01*
X169861546Y-65681827D01*
X169868779Y-65708192D01*
X169868783Y-65708203D01*
X169918105Y-65794818D01*
X169918110Y-65794825D01*
X169918112Y-65794828D01*
X169944580Y-65825374D01*
X169963863Y-65847628D01*
X169963866Y-65847631D01*
X169963867Y-65847632D01*
X169996641Y-65879257D01*
X170084976Y-65925465D01*
X170084977Y-65925465D01*
X170084977Y-65925466D01*
X170135105Y-65940184D01*
X170152015Y-65945150D01*
X170152019Y-65945150D01*
X170152021Y-65945151D01*
X170163652Y-65946823D01*
X170224000Y-65955500D01*
X170224001Y-65955500D01*
X171057568Y-65955500D01*
X171057580Y-65955500D01*
X171067897Y-65955083D01*
X171092995Y-65953050D01*
X171093001Y-65953048D01*
X171093003Y-65953048D01*
X171122216Y-65945151D01*
X171182863Y-65928757D01*
X171182869Y-65928753D01*
X171182872Y-65928753D01*
X171245858Y-65898543D01*
X171245858Y-65898542D01*
X171245862Y-65898541D01*
X171306290Y-65858079D01*
X171436209Y-65741152D01*
X171448093Y-65728927D01*
X171474978Y-65697303D01*
X171479257Y-65692134D01*
X171525465Y-65603799D01*
X171545150Y-65536760D01*
X171555500Y-65464775D01*
X171555500Y-62794518D01*
X171554767Y-62780851D01*
X171551202Y-62747689D01*
X171521413Y-62652554D01*
X171513116Y-62637359D01*
X171487935Y-62591243D01*
X171487927Y-62591230D01*
X171444354Y-62533023D01*
X171444338Y-62533005D01*
X170462161Y-61550829D01*
X170462146Y-61550814D01*
X170451964Y-61541668D01*
X170450266Y-61540300D01*
X170425996Y-61520742D01*
X170425994Y-61520741D01*
X170425993Y-61520740D01*
X170337662Y-61474535D01*
X170334764Y-61473684D01*
X170270624Y-61454850D01*
X170270616Y-61454848D01*
X170198639Y-61444500D01*
X170198638Y-61444500D01*
X110247081Y-61444500D01*
X110217291Y-61440217D01*
X110217258Y-61440393D01*
X110213585Y-61439685D01*
X110212151Y-61439479D01*
X110211458Y-61439275D01*
X110211457Y-61439275D01*
X110211455Y-61439274D01*
X110211453Y-61439274D01*
X110005086Y-61399500D01*
X110005085Y-61399500D01*
X109547575Y-61399500D01*
X109390781Y-61414472D01*
X109390782Y-61414472D01*
X109390778Y-61414473D01*
X109189127Y-61473683D01*
X109002313Y-61569991D01*
X108837116Y-61699905D01*
X108837112Y-61699909D01*
X108699478Y-61858746D01*
X108594398Y-62040750D01*
X108525656Y-62239365D01*
X108525656Y-62239368D01*
X108495746Y-62447401D01*
X105303393Y-62447401D01*
X105303393Y-53317763D01*
X107645787Y-53317763D01*
X107675413Y-53587013D01*
X107675415Y-53587024D01*
X107743926Y-53849082D01*
X107743928Y-53849088D01*
X107849870Y-54098390D01*
X107921998Y-54216575D01*
X107990979Y-54329605D01*
X107990986Y-54329615D01*
X108164253Y-54537819D01*
X108164259Y-54537824D01*
X108365998Y-54718582D01*
X108591910Y-54868044D01*
X108837176Y-54983020D01*
X108837183Y-54983022D01*
X108837185Y-54983023D01*
X109096557Y-55061057D01*
X109096564Y-55061058D01*
X109096569Y-55061060D01*
X109364561Y-55100500D01*
X109364566Y-55100500D01*
X109567629Y-55100500D01*
X109567631Y-55100500D01*
X109567636Y-55100499D01*
X109567648Y-55100499D01*
X109605191Y-55097750D01*
X109770156Y-55085677D01*
X109882758Y-55060593D01*
X110034546Y-55026782D01*
X110034548Y-55026781D01*
X110034553Y-55026780D01*
X110287558Y-54930014D01*
X110523777Y-54797441D01*
X110738177Y-54631888D01*
X110926186Y-54436881D01*
X111083799Y-54216579D01*
X111157787Y-54072669D01*
X111207649Y-53975690D01*
X111207651Y-53975684D01*
X111207656Y-53975675D01*
X111295118Y-53719305D01*
X111344319Y-53452933D01*
X111354212Y-53182235D01*
X111324586Y-52912982D01*
X111256072Y-52650912D01*
X111150130Y-52401610D01*
X111009018Y-52170390D01*
X110919747Y-52063119D01*
X110835746Y-51962180D01*
X110835740Y-51962175D01*
X110634002Y-51781418D01*
X110408092Y-51631957D01*
X110408090Y-51631956D01*
X110162824Y-51516980D01*
X110162819Y-51516978D01*
X110162814Y-51516976D01*
X109903442Y-51438942D01*
X109903428Y-51438939D01*
X109787791Y-51421921D01*
X109635439Y-51399500D01*
X109432369Y-51399500D01*
X109432351Y-51399500D01*
X109229844Y-51414323D01*
X109229831Y-51414325D01*
X108965453Y-51473217D01*
X108965446Y-51473220D01*
X108712439Y-51569987D01*
X108476226Y-51702557D01*
X108261822Y-51868112D01*
X108073822Y-52063109D01*
X108073816Y-52063116D01*
X107916202Y-52283419D01*
X107916199Y-52283424D01*
X107792350Y-52524309D01*
X107792343Y-52524327D01*
X107704884Y-52780685D01*
X107704881Y-52780699D01*
X107655681Y-53047068D01*
X107655680Y-53047075D01*
X107645787Y-53317763D01*
X105303393Y-53317763D01*
X105303393Y-50045577D01*
X105303626Y-50040221D01*
X105317481Y-49881873D01*
X105321234Y-49860592D01*
X105342733Y-49780358D01*
X105360263Y-49714935D01*
X105367651Y-49694638D01*
X105431378Y-49557976D01*
X105442184Y-49539261D01*
X105528674Y-49415740D01*
X105542562Y-49399188D01*
X105649188Y-49292562D01*
X105665740Y-49278674D01*
X105789261Y-49192184D01*
X105807976Y-49181378D01*
X105944638Y-49117651D01*
X105964935Y-49110263D01*
X106110595Y-49071233D01*
X106131875Y-49067481D01*
X106290198Y-49053628D01*
X106295600Y-49053393D01*
X106296305Y-49053393D01*
X127246588Y-49053393D01*
X127247962Y-49053393D01*
X127252018Y-49053526D01*
G37*
%TD.AperFunction*%
%TD*%
M02*
