%TF.GenerationSoftware,KiCad,Pcbnew,7.0.5-7.0.5~ubuntu22.04.1*%
%TF.CreationDate,2024-06-06T16:52:37+01:00*%
%TF.ProjectId,PBA0055-APRS-digirepeater-backplane-100x70,50424130-3035-4352-9d41-5052532d6469,rev?*%
%TF.SameCoordinates,Original*%
%TF.FileFunction,Paste,Top*%
%TF.FilePolarity,Positive*%
%FSLAX46Y46*%
G04 Gerber Fmt 4.6, Leading zero omitted, Abs format (unit mm)*
G04 Created by KiCad (PCBNEW 7.0.5-7.0.5~ubuntu22.04.1) date 2024-06-06 16:52:37*
%MOMM*%
%LPD*%
G01*
G04 APERTURE LIST*
G04 Aperture macros list*
%AMRoundRect*
0 Rectangle with rounded corners*
0 $1 Rounding radius*
0 $2 $3 $4 $5 $6 $7 $8 $9 X,Y pos of 4 corners*
0 Add a 4 corners polygon primitive as box body*
4,1,4,$2,$3,$4,$5,$6,$7,$8,$9,$2,$3,0*
0 Add four circle primitives for the rounded corners*
1,1,$1+$1,$2,$3*
1,1,$1+$1,$4,$5*
1,1,$1+$1,$6,$7*
1,1,$1+$1,$8,$9*
0 Add four rect primitives between the rounded corners*
20,1,$1+$1,$2,$3,$4,$5,0*
20,1,$1+$1,$4,$5,$6,$7,0*
20,1,$1+$1,$6,$7,$8,$9,0*
20,1,$1+$1,$8,$9,$2,$3,0*%
G04 Aperture macros list end*
%ADD10R,1.000000X2.510000*%
%ADD11RoundRect,0.250000X1.100000X-0.325000X1.100000X0.325000X-1.100000X0.325000X-1.100000X-0.325000X0*%
%ADD12RoundRect,0.250000X-0.300000X0.300000X-0.300000X-0.300000X0.300000X-0.300000X0.300000X0.300000X0*%
%ADD13RoundRect,0.150000X-0.150000X-0.700000X0.150000X-0.700000X0.150000X0.700000X-0.150000X0.700000X0*%
%ADD14RoundRect,0.250000X-0.250000X-1.100000X0.250000X-1.100000X0.250000X1.100000X-0.250000X1.100000X0*%
%ADD15R,5.000000X5.000000*%
G04 APERTURE END LIST*
D10*
%TO.C,U2*%
X160180000Y-89750000D03*
X160180000Y-66750000D03*
X157640000Y-93060000D03*
X157640000Y-70060000D03*
X155100000Y-89750000D03*
X155100000Y-66750000D03*
X152560000Y-93060000D03*
X152560000Y-70060000D03*
X150020000Y-89750000D03*
X150020000Y-66750000D03*
X147480000Y-93060000D03*
X147480000Y-70060000D03*
X144940000Y-89750000D03*
X144940000Y-66750000D03*
X142400000Y-93060000D03*
X142400000Y-70060000D03*
X139860000Y-89750000D03*
X139860000Y-66750000D03*
X137320000Y-93060000D03*
X137320000Y-70060000D03*
X134780000Y-89750000D03*
X134780000Y-66750000D03*
X132240000Y-93060000D03*
X132240000Y-70060000D03*
X129700000Y-89750000D03*
X129700000Y-66750000D03*
X127160000Y-93060000D03*
X127160000Y-70060000D03*
X124620000Y-89750000D03*
X124620000Y-66750000D03*
X122080000Y-93060000D03*
X122080000Y-70060000D03*
X119540000Y-89750000D03*
X119540000Y-66750000D03*
X117000000Y-93060000D03*
X117000000Y-70060000D03*
%TD*%
D11*
%TO.C,L1*%
X163250000Y-108750000D03*
X163250000Y-105800000D03*
%TD*%
D12*
%TO.C,D1*%
X168800000Y-98650000D03*
X168800000Y-101450000D03*
%TD*%
D13*
%TO.C,J5*%
X169350000Y-64800000D03*
X170600000Y-64800000D03*
D14*
X167500000Y-68000000D03*
X172450000Y-68000000D03*
%TD*%
D12*
%TO.C,D2*%
X171300000Y-98650000D03*
X171300000Y-101450000D03*
%TD*%
D11*
%TO.C,C1*%
X163250000Y-101250000D03*
X163250000Y-98300000D03*
%TD*%
D15*
%TO.C,U1*%
X115250000Y-113000000D03*
X115250000Y-133000000D03*
X157250000Y-113000000D03*
X157250000Y-133000000D03*
%TD*%
M02*
