%TF.GenerationSoftware,KiCad,Pcbnew,7.0.5-7.0.5~ubuntu22.04.1*%
%TF.CreationDate,2024-06-06T16:52:33+01:00*%
%TF.ProjectId,PBA0055-APRS-digirepeater-backplane-100x70,50424130-3035-4352-9d41-5052532d6469,rev?*%
%TF.SameCoordinates,Original*%
%TF.FileFunction,Drillmap*%
%TF.FilePolarity,Positive*%
%FSLAX45Y45*%
G04 Gerber Fmt 4.5, Leading zero omitted, Abs format (unit mm)*
G04 Created by KiCad (PCBNEW 7.0.5-7.0.5~ubuntu22.04.1) date 2024-06-06 16:52:33*
%MOMM*%
%LPD*%
G01*
G04 APERTURE LIST*
%ADD10C,0.100000*%
%ADD11C,0.200000*%
%ADD12C,0.320000*%
G04 APERTURE END LIST*
D10*
X15125000Y-5200000D02*
X15125000Y-5575000D01*
X15070000Y-14525000D02*
X15070000Y-14450000D01*
X10629289Y-4904289D02*
G75*
G03*
X10529289Y-5004289I1J-100001D01*
G01*
X12925000Y-5200000D02*
X12925000Y-5575000D01*
X10529291Y-14804289D02*
G75*
G03*
X10629289Y-14904289I99999J-1D01*
G01*
X15070000Y-14525000D02*
X15070000Y-14705000D01*
X15325000Y-4904290D02*
G75*
G03*
X15125000Y-5104289I0J-200000D01*
G01*
X15125000Y-5104289D02*
X15125000Y-5200000D01*
X17529289Y-14804289D02*
X17529289Y-14754289D01*
X12925000Y-5575000D02*
X14025000Y-5575000D01*
X11109000Y-10075000D02*
G75*
G03*
X11509000Y-10075000I200000J0D01*
G01*
X17429289Y-4904289D02*
X15325000Y-4904289D01*
X10529289Y-14804289D02*
X10529289Y-5004289D01*
X12725000Y-4904289D02*
X10629289Y-4904289D01*
X12970000Y-14450000D02*
X12970000Y-14375000D01*
X12970000Y-14525000D02*
X12970000Y-14450000D01*
X15070000Y-14450000D02*
X15070000Y-14375000D01*
X11509000Y-10075000D02*
X11509000Y-9925000D01*
X12770000Y-14904290D02*
G75*
G03*
X12970000Y-14704289I0J200000D01*
G01*
X11109000Y-9925000D02*
X11109000Y-10075000D01*
X12925001Y-5104289D02*
G75*
G03*
X12725000Y-4904289I-200001J-1D01*
G01*
X15270000Y-14905000D02*
X17429289Y-14905000D01*
X17529289Y-5763000D02*
X17529289Y-14035000D01*
X17529289Y-5004289D02*
X17529289Y-5027000D01*
X12970000Y-14375000D02*
X14050000Y-14375000D01*
X12970000Y-14704289D02*
X12970000Y-14525000D01*
X15070000Y-14705000D02*
G75*
G03*
X15270000Y-14905000I200000J0D01*
G01*
X15125000Y-5575000D02*
X14025000Y-5575000D01*
X17429289Y-14904289D02*
G75*
G03*
X17529289Y-14804289I1J99999D01*
G01*
X12925000Y-5104289D02*
X12925000Y-5200000D01*
X15070000Y-14375000D02*
X14050000Y-14375000D01*
X11509000Y-9925000D02*
G75*
G03*
X11109000Y-9925000I-200000J0D01*
G01*
X17529289Y-14754289D02*
X17529289Y-14035000D01*
X10629289Y-14904289D02*
X12770000Y-14904289D01*
X17529291Y-5004289D02*
G75*
G03*
X17429289Y-4904289I-100001J-1D01*
G01*
X17529289Y-5763000D02*
X17529289Y-5027000D01*
D11*
D12*
X10790000Y-5165000D02*
X11110000Y-5485000D01*
X11110000Y-5165000D02*
X10790000Y-5485000D01*
X10800000Y-14315000D02*
X11120000Y-14635000D01*
X11120000Y-14315000D02*
X10800000Y-14635000D01*
X16950000Y-5165000D02*
X17270000Y-5485000D01*
X17270000Y-5165000D02*
X16950000Y-5485000D01*
X16950000Y-14325000D02*
X17270000Y-14645000D01*
X17270000Y-14325000D02*
X16950000Y-14645000D01*
D11*
X10785066Y-15221484D02*
X10785066Y-15021484D01*
X10785066Y-15021484D02*
X10832685Y-15021484D01*
X10832685Y-15021484D02*
X10861257Y-15031008D01*
X10861257Y-15031008D02*
X10880304Y-15050055D01*
X10880304Y-15050055D02*
X10889828Y-15069103D01*
X10889828Y-15069103D02*
X10899352Y-15107198D01*
X10899352Y-15107198D02*
X10899352Y-15135769D01*
X10899352Y-15135769D02*
X10889828Y-15173865D01*
X10889828Y-15173865D02*
X10880304Y-15192912D01*
X10880304Y-15192912D02*
X10861257Y-15211960D01*
X10861257Y-15211960D02*
X10832685Y-15221484D01*
X10832685Y-15221484D02*
X10785066Y-15221484D01*
X10985066Y-15221484D02*
X10985066Y-15088150D01*
X10985066Y-15126246D02*
X10994590Y-15107198D01*
X10994590Y-15107198D02*
X11004114Y-15097674D01*
X11004114Y-15097674D02*
X11023161Y-15088150D01*
X11023161Y-15088150D02*
X11042209Y-15088150D01*
X11108876Y-15221484D02*
X11108876Y-15088150D01*
X11108876Y-15021484D02*
X11099352Y-15031008D01*
X11099352Y-15031008D02*
X11108876Y-15040531D01*
X11108876Y-15040531D02*
X11118399Y-15031008D01*
X11118399Y-15031008D02*
X11108876Y-15021484D01*
X11108876Y-15021484D02*
X11108876Y-15040531D01*
X11232685Y-15221484D02*
X11213637Y-15211960D01*
X11213637Y-15211960D02*
X11204114Y-15192912D01*
X11204114Y-15192912D02*
X11204114Y-15021484D01*
X11337447Y-15221484D02*
X11318399Y-15211960D01*
X11318399Y-15211960D02*
X11308876Y-15192912D01*
X11308876Y-15192912D02*
X11308876Y-15021484D01*
X11566018Y-15221484D02*
X11566018Y-15021484D01*
X11566018Y-15021484D02*
X11632685Y-15164341D01*
X11632685Y-15164341D02*
X11699352Y-15021484D01*
X11699352Y-15021484D02*
X11699352Y-15221484D01*
X11880304Y-15221484D02*
X11880304Y-15116722D01*
X11880304Y-15116722D02*
X11870780Y-15097674D01*
X11870780Y-15097674D02*
X11851733Y-15088150D01*
X11851733Y-15088150D02*
X11813637Y-15088150D01*
X11813637Y-15088150D02*
X11794590Y-15097674D01*
X11880304Y-15211960D02*
X11861257Y-15221484D01*
X11861257Y-15221484D02*
X11813637Y-15221484D01*
X11813637Y-15221484D02*
X11794590Y-15211960D01*
X11794590Y-15211960D02*
X11785066Y-15192912D01*
X11785066Y-15192912D02*
X11785066Y-15173865D01*
X11785066Y-15173865D02*
X11794590Y-15154817D01*
X11794590Y-15154817D02*
X11813637Y-15145293D01*
X11813637Y-15145293D02*
X11861257Y-15145293D01*
X11861257Y-15145293D02*
X11880304Y-15135769D01*
X11975542Y-15088150D02*
X11975542Y-15288150D01*
X11975542Y-15097674D02*
X11994590Y-15088150D01*
X11994590Y-15088150D02*
X12032685Y-15088150D01*
X12032685Y-15088150D02*
X12051733Y-15097674D01*
X12051733Y-15097674D02*
X12061257Y-15107198D01*
X12061257Y-15107198D02*
X12070780Y-15126246D01*
X12070780Y-15126246D02*
X12070780Y-15183388D01*
X12070780Y-15183388D02*
X12061257Y-15202436D01*
X12061257Y-15202436D02*
X12051733Y-15211960D01*
X12051733Y-15211960D02*
X12032685Y-15221484D01*
X12032685Y-15221484D02*
X11994590Y-15221484D01*
X11994590Y-15221484D02*
X11975542Y-15211960D01*
X12156495Y-15202436D02*
X12166018Y-15211960D01*
X12166018Y-15211960D02*
X12156495Y-15221484D01*
X12156495Y-15221484D02*
X12146971Y-15211960D01*
X12146971Y-15211960D02*
X12156495Y-15202436D01*
X12156495Y-15202436D02*
X12156495Y-15221484D01*
X12156495Y-15097674D02*
X12166018Y-15107198D01*
X12166018Y-15107198D02*
X12156495Y-15116722D01*
X12156495Y-15116722D02*
X12146971Y-15107198D01*
X12146971Y-15107198D02*
X12156495Y-15097674D01*
X12156495Y-15097674D02*
X12156495Y-15116722D01*
X10324289Y-15450000D02*
X10524289Y-15650000D01*
X10524289Y-15450000D02*
X10324289Y-15650000D01*
X10766019Y-15441484D02*
X10889828Y-15441484D01*
X10889828Y-15441484D02*
X10823161Y-15517674D01*
X10823161Y-15517674D02*
X10851733Y-15517674D01*
X10851733Y-15517674D02*
X10870780Y-15527198D01*
X10870780Y-15527198D02*
X10880304Y-15536722D01*
X10880304Y-15536722D02*
X10889828Y-15555769D01*
X10889828Y-15555769D02*
X10889828Y-15603388D01*
X10889828Y-15603388D02*
X10880304Y-15622436D01*
X10880304Y-15622436D02*
X10870780Y-15631960D01*
X10870780Y-15631960D02*
X10851733Y-15641484D01*
X10851733Y-15641484D02*
X10794590Y-15641484D01*
X10794590Y-15641484D02*
X10775542Y-15631960D01*
X10775542Y-15631960D02*
X10766019Y-15622436D01*
X10975542Y-15622436D02*
X10985066Y-15631960D01*
X10985066Y-15631960D02*
X10975542Y-15641484D01*
X10975542Y-15641484D02*
X10966019Y-15631960D01*
X10966019Y-15631960D02*
X10975542Y-15622436D01*
X10975542Y-15622436D02*
X10975542Y-15641484D01*
X11061257Y-15460531D02*
X11070780Y-15451008D01*
X11070780Y-15451008D02*
X11089828Y-15441484D01*
X11089828Y-15441484D02*
X11137447Y-15441484D01*
X11137447Y-15441484D02*
X11156495Y-15451008D01*
X11156495Y-15451008D02*
X11166019Y-15460531D01*
X11166019Y-15460531D02*
X11175542Y-15479579D01*
X11175542Y-15479579D02*
X11175542Y-15498627D01*
X11175542Y-15498627D02*
X11166019Y-15527198D01*
X11166019Y-15527198D02*
X11051733Y-15641484D01*
X11051733Y-15641484D02*
X11175542Y-15641484D01*
X11299352Y-15441484D02*
X11318399Y-15441484D01*
X11318399Y-15441484D02*
X11337447Y-15451008D01*
X11337447Y-15451008D02*
X11346971Y-15460531D01*
X11346971Y-15460531D02*
X11356495Y-15479579D01*
X11356495Y-15479579D02*
X11366018Y-15517674D01*
X11366018Y-15517674D02*
X11366018Y-15565293D01*
X11366018Y-15565293D02*
X11356495Y-15603388D01*
X11356495Y-15603388D02*
X11346971Y-15622436D01*
X11346971Y-15622436D02*
X11337447Y-15631960D01*
X11337447Y-15631960D02*
X11318399Y-15641484D01*
X11318399Y-15641484D02*
X11299352Y-15641484D01*
X11299352Y-15641484D02*
X11280304Y-15631960D01*
X11280304Y-15631960D02*
X11270780Y-15622436D01*
X11270780Y-15622436D02*
X11261257Y-15603388D01*
X11261257Y-15603388D02*
X11251733Y-15565293D01*
X11251733Y-15565293D02*
X11251733Y-15517674D01*
X11251733Y-15517674D02*
X11261257Y-15479579D01*
X11261257Y-15479579D02*
X11270780Y-15460531D01*
X11270780Y-15460531D02*
X11280304Y-15451008D01*
X11280304Y-15451008D02*
X11299352Y-15441484D01*
X11489828Y-15441484D02*
X11508876Y-15441484D01*
X11508876Y-15441484D02*
X11527923Y-15451008D01*
X11527923Y-15451008D02*
X11537447Y-15460531D01*
X11537447Y-15460531D02*
X11546971Y-15479579D01*
X11546971Y-15479579D02*
X11556495Y-15517674D01*
X11556495Y-15517674D02*
X11556495Y-15565293D01*
X11556495Y-15565293D02*
X11546971Y-15603388D01*
X11546971Y-15603388D02*
X11537447Y-15622436D01*
X11537447Y-15622436D02*
X11527923Y-15631960D01*
X11527923Y-15631960D02*
X11508876Y-15641484D01*
X11508876Y-15641484D02*
X11489828Y-15641484D01*
X11489828Y-15641484D02*
X11470780Y-15631960D01*
X11470780Y-15631960D02*
X11461257Y-15622436D01*
X11461257Y-15622436D02*
X11451733Y-15603388D01*
X11451733Y-15603388D02*
X11442209Y-15565293D01*
X11442209Y-15565293D02*
X11442209Y-15517674D01*
X11442209Y-15517674D02*
X11451733Y-15479579D01*
X11451733Y-15479579D02*
X11461257Y-15460531D01*
X11461257Y-15460531D02*
X11470780Y-15451008D01*
X11470780Y-15451008D02*
X11489828Y-15441484D01*
X11642209Y-15641484D02*
X11642209Y-15508150D01*
X11642209Y-15527198D02*
X11651733Y-15517674D01*
X11651733Y-15517674D02*
X11670780Y-15508150D01*
X11670780Y-15508150D02*
X11699352Y-15508150D01*
X11699352Y-15508150D02*
X11718399Y-15517674D01*
X11718399Y-15517674D02*
X11727923Y-15536722D01*
X11727923Y-15536722D02*
X11727923Y-15641484D01*
X11727923Y-15536722D02*
X11737447Y-15517674D01*
X11737447Y-15517674D02*
X11756495Y-15508150D01*
X11756495Y-15508150D02*
X11785066Y-15508150D01*
X11785066Y-15508150D02*
X11804114Y-15517674D01*
X11804114Y-15517674D02*
X11813638Y-15536722D01*
X11813638Y-15536722D02*
X11813638Y-15641484D01*
X11908876Y-15641484D02*
X11908876Y-15508150D01*
X11908876Y-15527198D02*
X11918399Y-15517674D01*
X11918399Y-15517674D02*
X11937447Y-15508150D01*
X11937447Y-15508150D02*
X11966019Y-15508150D01*
X11966019Y-15508150D02*
X11985066Y-15517674D01*
X11985066Y-15517674D02*
X11994590Y-15536722D01*
X11994590Y-15536722D02*
X11994590Y-15641484D01*
X11994590Y-15536722D02*
X12004114Y-15517674D01*
X12004114Y-15517674D02*
X12023161Y-15508150D01*
X12023161Y-15508150D02*
X12051733Y-15508150D01*
X12051733Y-15508150D02*
X12070780Y-15517674D01*
X12070780Y-15517674D02*
X12080304Y-15536722D01*
X12080304Y-15536722D02*
X12080304Y-15641484D01*
X12470780Y-15431960D02*
X12299352Y-15689103D01*
X12727923Y-15441484D02*
X12746971Y-15441484D01*
X12746971Y-15441484D02*
X12766019Y-15451008D01*
X12766019Y-15451008D02*
X12775542Y-15460531D01*
X12775542Y-15460531D02*
X12785066Y-15479579D01*
X12785066Y-15479579D02*
X12794590Y-15517674D01*
X12794590Y-15517674D02*
X12794590Y-15565293D01*
X12794590Y-15565293D02*
X12785066Y-15603388D01*
X12785066Y-15603388D02*
X12775542Y-15622436D01*
X12775542Y-15622436D02*
X12766019Y-15631960D01*
X12766019Y-15631960D02*
X12746971Y-15641484D01*
X12746971Y-15641484D02*
X12727923Y-15641484D01*
X12727923Y-15641484D02*
X12708876Y-15631960D01*
X12708876Y-15631960D02*
X12699352Y-15622436D01*
X12699352Y-15622436D02*
X12689828Y-15603388D01*
X12689828Y-15603388D02*
X12680304Y-15565293D01*
X12680304Y-15565293D02*
X12680304Y-15517674D01*
X12680304Y-15517674D02*
X12689828Y-15479579D01*
X12689828Y-15479579D02*
X12699352Y-15460531D01*
X12699352Y-15460531D02*
X12708876Y-15451008D01*
X12708876Y-15451008D02*
X12727923Y-15441484D01*
X12880304Y-15622436D02*
X12889828Y-15631960D01*
X12889828Y-15631960D02*
X12880304Y-15641484D01*
X12880304Y-15641484D02*
X12870781Y-15631960D01*
X12870781Y-15631960D02*
X12880304Y-15622436D01*
X12880304Y-15622436D02*
X12880304Y-15641484D01*
X13080304Y-15641484D02*
X12966019Y-15641484D01*
X13023161Y-15641484D02*
X13023161Y-15441484D01*
X13023161Y-15441484D02*
X13004114Y-15470055D01*
X13004114Y-15470055D02*
X12985066Y-15489103D01*
X12985066Y-15489103D02*
X12966019Y-15498627D01*
X13156495Y-15460531D02*
X13166019Y-15451008D01*
X13166019Y-15451008D02*
X13185066Y-15441484D01*
X13185066Y-15441484D02*
X13232685Y-15441484D01*
X13232685Y-15441484D02*
X13251733Y-15451008D01*
X13251733Y-15451008D02*
X13261257Y-15460531D01*
X13261257Y-15460531D02*
X13270781Y-15479579D01*
X13270781Y-15479579D02*
X13270781Y-15498627D01*
X13270781Y-15498627D02*
X13261257Y-15527198D01*
X13261257Y-15527198D02*
X13146971Y-15641484D01*
X13146971Y-15641484D02*
X13270781Y-15641484D01*
X13442209Y-15441484D02*
X13404114Y-15441484D01*
X13404114Y-15441484D02*
X13385066Y-15451008D01*
X13385066Y-15451008D02*
X13375542Y-15460531D01*
X13375542Y-15460531D02*
X13356495Y-15489103D01*
X13356495Y-15489103D02*
X13346971Y-15527198D01*
X13346971Y-15527198D02*
X13346971Y-15603388D01*
X13346971Y-15603388D02*
X13356495Y-15622436D01*
X13356495Y-15622436D02*
X13366019Y-15631960D01*
X13366019Y-15631960D02*
X13385066Y-15641484D01*
X13385066Y-15641484D02*
X13423162Y-15641484D01*
X13423162Y-15641484D02*
X13442209Y-15631960D01*
X13442209Y-15631960D02*
X13451733Y-15622436D01*
X13451733Y-15622436D02*
X13461257Y-15603388D01*
X13461257Y-15603388D02*
X13461257Y-15555769D01*
X13461257Y-15555769D02*
X13451733Y-15536722D01*
X13451733Y-15536722D02*
X13442209Y-15527198D01*
X13442209Y-15527198D02*
X13423162Y-15517674D01*
X13423162Y-15517674D02*
X13385066Y-15517674D01*
X13385066Y-15517674D02*
X13366019Y-15527198D01*
X13366019Y-15527198D02*
X13356495Y-15536722D01*
X13356495Y-15536722D02*
X13346971Y-15555769D01*
X13585066Y-15441484D02*
X13604114Y-15441484D01*
X13604114Y-15441484D02*
X13623162Y-15451008D01*
X13623162Y-15451008D02*
X13632685Y-15460531D01*
X13632685Y-15460531D02*
X13642209Y-15479579D01*
X13642209Y-15479579D02*
X13651733Y-15517674D01*
X13651733Y-15517674D02*
X13651733Y-15565293D01*
X13651733Y-15565293D02*
X13642209Y-15603388D01*
X13642209Y-15603388D02*
X13632685Y-15622436D01*
X13632685Y-15622436D02*
X13623162Y-15631960D01*
X13623162Y-15631960D02*
X13604114Y-15641484D01*
X13604114Y-15641484D02*
X13585066Y-15641484D01*
X13585066Y-15641484D02*
X13566019Y-15631960D01*
X13566019Y-15631960D02*
X13556495Y-15622436D01*
X13556495Y-15622436D02*
X13546971Y-15603388D01*
X13546971Y-15603388D02*
X13537447Y-15565293D01*
X13537447Y-15565293D02*
X13537447Y-15517674D01*
X13537447Y-15517674D02*
X13546971Y-15479579D01*
X13546971Y-15479579D02*
X13556495Y-15460531D01*
X13556495Y-15460531D02*
X13566019Y-15451008D01*
X13566019Y-15451008D02*
X13585066Y-15441484D01*
X13727923Y-15441484D02*
X13727923Y-15479579D01*
X13804114Y-15441484D02*
X13804114Y-15479579D01*
X14099352Y-15717674D02*
X14089828Y-15708150D01*
X14089828Y-15708150D02*
X14070781Y-15679579D01*
X14070781Y-15679579D02*
X14061257Y-15660531D01*
X14061257Y-15660531D02*
X14051733Y-15631960D01*
X14051733Y-15631960D02*
X14042209Y-15584341D01*
X14042209Y-15584341D02*
X14042209Y-15546246D01*
X14042209Y-15546246D02*
X14051733Y-15498627D01*
X14051733Y-15498627D02*
X14061257Y-15470055D01*
X14061257Y-15470055D02*
X14070781Y-15451008D01*
X14070781Y-15451008D02*
X14089828Y-15422436D01*
X14089828Y-15422436D02*
X14099352Y-15412912D01*
X14261257Y-15508150D02*
X14261257Y-15641484D01*
X14213638Y-15431960D02*
X14166019Y-15574817D01*
X14166019Y-15574817D02*
X14289828Y-15574817D01*
X14518400Y-15641484D02*
X14518400Y-15441484D01*
X14604114Y-15641484D02*
X14604114Y-15536722D01*
X14604114Y-15536722D02*
X14594590Y-15517674D01*
X14594590Y-15517674D02*
X14575543Y-15508150D01*
X14575543Y-15508150D02*
X14546971Y-15508150D01*
X14546971Y-15508150D02*
X14527924Y-15517674D01*
X14527924Y-15517674D02*
X14518400Y-15527198D01*
X14727924Y-15641484D02*
X14708876Y-15631960D01*
X14708876Y-15631960D02*
X14699352Y-15622436D01*
X14699352Y-15622436D02*
X14689828Y-15603388D01*
X14689828Y-15603388D02*
X14689828Y-15546246D01*
X14689828Y-15546246D02*
X14699352Y-15527198D01*
X14699352Y-15527198D02*
X14708876Y-15517674D01*
X14708876Y-15517674D02*
X14727924Y-15508150D01*
X14727924Y-15508150D02*
X14756495Y-15508150D01*
X14756495Y-15508150D02*
X14775543Y-15517674D01*
X14775543Y-15517674D02*
X14785066Y-15527198D01*
X14785066Y-15527198D02*
X14794590Y-15546246D01*
X14794590Y-15546246D02*
X14794590Y-15603388D01*
X14794590Y-15603388D02*
X14785066Y-15622436D01*
X14785066Y-15622436D02*
X14775543Y-15631960D01*
X14775543Y-15631960D02*
X14756495Y-15641484D01*
X14756495Y-15641484D02*
X14727924Y-15641484D01*
X14908876Y-15641484D02*
X14889828Y-15631960D01*
X14889828Y-15631960D02*
X14880305Y-15612912D01*
X14880305Y-15612912D02*
X14880305Y-15441484D01*
X15061257Y-15631960D02*
X15042209Y-15641484D01*
X15042209Y-15641484D02*
X15004114Y-15641484D01*
X15004114Y-15641484D02*
X14985066Y-15631960D01*
X14985066Y-15631960D02*
X14975543Y-15612912D01*
X14975543Y-15612912D02*
X14975543Y-15536722D01*
X14975543Y-15536722D02*
X14985066Y-15517674D01*
X14985066Y-15517674D02*
X15004114Y-15508150D01*
X15004114Y-15508150D02*
X15042209Y-15508150D01*
X15042209Y-15508150D02*
X15061257Y-15517674D01*
X15061257Y-15517674D02*
X15070781Y-15536722D01*
X15070781Y-15536722D02*
X15070781Y-15555769D01*
X15070781Y-15555769D02*
X14975543Y-15574817D01*
X15146971Y-15631960D02*
X15166019Y-15641484D01*
X15166019Y-15641484D02*
X15204114Y-15641484D01*
X15204114Y-15641484D02*
X15223162Y-15631960D01*
X15223162Y-15631960D02*
X15232686Y-15612912D01*
X15232686Y-15612912D02*
X15232686Y-15603388D01*
X15232686Y-15603388D02*
X15223162Y-15584341D01*
X15223162Y-15584341D02*
X15204114Y-15574817D01*
X15204114Y-15574817D02*
X15175543Y-15574817D01*
X15175543Y-15574817D02*
X15156495Y-15565293D01*
X15156495Y-15565293D02*
X15146971Y-15546246D01*
X15146971Y-15546246D02*
X15146971Y-15536722D01*
X15146971Y-15536722D02*
X15156495Y-15517674D01*
X15156495Y-15517674D02*
X15175543Y-15508150D01*
X15175543Y-15508150D02*
X15204114Y-15508150D01*
X15204114Y-15508150D02*
X15223162Y-15517674D01*
X15299352Y-15717674D02*
X15308876Y-15708150D01*
X15308876Y-15708150D02*
X15327924Y-15679579D01*
X15327924Y-15679579D02*
X15337447Y-15660531D01*
X15337447Y-15660531D02*
X15346971Y-15631960D01*
X15346971Y-15631960D02*
X15356495Y-15584341D01*
X15356495Y-15584341D02*
X15356495Y-15546246D01*
X15356495Y-15546246D02*
X15346971Y-15498627D01*
X15346971Y-15498627D02*
X15337447Y-15470055D01*
X15337447Y-15470055D02*
X15327924Y-15451008D01*
X15327924Y-15451008D02*
X15308876Y-15422436D01*
X15308876Y-15422436D02*
X15299352Y-15412912D01*
X15661257Y-15717674D02*
X15651733Y-15708150D01*
X15651733Y-15708150D02*
X15632686Y-15679579D01*
X15632686Y-15679579D02*
X15623162Y-15660531D01*
X15623162Y-15660531D02*
X15613638Y-15631960D01*
X15613638Y-15631960D02*
X15604114Y-15584341D01*
X15604114Y-15584341D02*
X15604114Y-15546246D01*
X15604114Y-15546246D02*
X15613638Y-15498627D01*
X15613638Y-15498627D02*
X15623162Y-15470055D01*
X15623162Y-15470055D02*
X15632686Y-15451008D01*
X15632686Y-15451008D02*
X15651733Y-15422436D01*
X15651733Y-15422436D02*
X15661257Y-15412912D01*
X15737447Y-15508150D02*
X15737447Y-15641484D01*
X15737447Y-15527198D02*
X15746971Y-15517674D01*
X15746971Y-15517674D02*
X15766019Y-15508150D01*
X15766019Y-15508150D02*
X15794590Y-15508150D01*
X15794590Y-15508150D02*
X15813638Y-15517674D01*
X15813638Y-15517674D02*
X15823162Y-15536722D01*
X15823162Y-15536722D02*
X15823162Y-15641484D01*
X15946971Y-15641484D02*
X15927924Y-15631960D01*
X15927924Y-15631960D02*
X15918400Y-15622436D01*
X15918400Y-15622436D02*
X15908876Y-15603388D01*
X15908876Y-15603388D02*
X15908876Y-15546246D01*
X15908876Y-15546246D02*
X15918400Y-15527198D01*
X15918400Y-15527198D02*
X15927924Y-15517674D01*
X15927924Y-15517674D02*
X15946971Y-15508150D01*
X15946971Y-15508150D02*
X15975543Y-15508150D01*
X15975543Y-15508150D02*
X15994590Y-15517674D01*
X15994590Y-15517674D02*
X16004114Y-15527198D01*
X16004114Y-15527198D02*
X16013638Y-15546246D01*
X16013638Y-15546246D02*
X16013638Y-15603388D01*
X16013638Y-15603388D02*
X16004114Y-15622436D01*
X16004114Y-15622436D02*
X15994590Y-15631960D01*
X15994590Y-15631960D02*
X15975543Y-15641484D01*
X15975543Y-15641484D02*
X15946971Y-15641484D01*
X16070781Y-15508150D02*
X16146971Y-15508150D01*
X16099352Y-15441484D02*
X16099352Y-15612912D01*
X16099352Y-15612912D02*
X16108876Y-15631960D01*
X16108876Y-15631960D02*
X16127924Y-15641484D01*
X16127924Y-15641484D02*
X16146971Y-15641484D01*
X16366019Y-15508150D02*
X16366019Y-15708150D01*
X16366019Y-15517674D02*
X16385067Y-15508150D01*
X16385067Y-15508150D02*
X16423162Y-15508150D01*
X16423162Y-15508150D02*
X16442209Y-15517674D01*
X16442209Y-15517674D02*
X16451733Y-15527198D01*
X16451733Y-15527198D02*
X16461257Y-15546246D01*
X16461257Y-15546246D02*
X16461257Y-15603388D01*
X16461257Y-15603388D02*
X16451733Y-15622436D01*
X16451733Y-15622436D02*
X16442209Y-15631960D01*
X16442209Y-15631960D02*
X16423162Y-15641484D01*
X16423162Y-15641484D02*
X16385067Y-15641484D01*
X16385067Y-15641484D02*
X16366019Y-15631960D01*
X16575543Y-15641484D02*
X16556495Y-15631960D01*
X16556495Y-15631960D02*
X16546971Y-15612912D01*
X16546971Y-15612912D02*
X16546971Y-15441484D01*
X16737448Y-15641484D02*
X16737448Y-15536722D01*
X16737448Y-15536722D02*
X16727924Y-15517674D01*
X16727924Y-15517674D02*
X16708876Y-15508150D01*
X16708876Y-15508150D02*
X16670781Y-15508150D01*
X16670781Y-15508150D02*
X16651733Y-15517674D01*
X16737448Y-15631960D02*
X16718400Y-15641484D01*
X16718400Y-15641484D02*
X16670781Y-15641484D01*
X16670781Y-15641484D02*
X16651733Y-15631960D01*
X16651733Y-15631960D02*
X16642209Y-15612912D01*
X16642209Y-15612912D02*
X16642209Y-15593865D01*
X16642209Y-15593865D02*
X16651733Y-15574817D01*
X16651733Y-15574817D02*
X16670781Y-15565293D01*
X16670781Y-15565293D02*
X16718400Y-15565293D01*
X16718400Y-15565293D02*
X16737448Y-15555769D01*
X16804114Y-15508150D02*
X16880305Y-15508150D01*
X16832686Y-15441484D02*
X16832686Y-15612912D01*
X16832686Y-15612912D02*
X16842210Y-15631960D01*
X16842210Y-15631960D02*
X16861257Y-15641484D01*
X16861257Y-15641484D02*
X16880305Y-15641484D01*
X17023162Y-15631960D02*
X17004114Y-15641484D01*
X17004114Y-15641484D02*
X16966019Y-15641484D01*
X16966019Y-15641484D02*
X16946971Y-15631960D01*
X16946971Y-15631960D02*
X16937448Y-15612912D01*
X16937448Y-15612912D02*
X16937448Y-15536722D01*
X16937448Y-15536722D02*
X16946971Y-15517674D01*
X16946971Y-15517674D02*
X16966019Y-15508150D01*
X16966019Y-15508150D02*
X17004114Y-15508150D01*
X17004114Y-15508150D02*
X17023162Y-15517674D01*
X17023162Y-15517674D02*
X17032686Y-15536722D01*
X17032686Y-15536722D02*
X17032686Y-15555769D01*
X17032686Y-15555769D02*
X16937448Y-15574817D01*
X17204114Y-15641484D02*
X17204114Y-15441484D01*
X17204114Y-15631960D02*
X17185067Y-15641484D01*
X17185067Y-15641484D02*
X17146971Y-15641484D01*
X17146971Y-15641484D02*
X17127924Y-15631960D01*
X17127924Y-15631960D02*
X17118400Y-15622436D01*
X17118400Y-15622436D02*
X17108876Y-15603388D01*
X17108876Y-15603388D02*
X17108876Y-15546246D01*
X17108876Y-15546246D02*
X17118400Y-15527198D01*
X17118400Y-15527198D02*
X17127924Y-15517674D01*
X17127924Y-15517674D02*
X17146971Y-15508150D01*
X17146971Y-15508150D02*
X17185067Y-15508150D01*
X17185067Y-15508150D02*
X17204114Y-15517674D01*
X17280305Y-15717674D02*
X17289829Y-15708150D01*
X17289829Y-15708150D02*
X17308876Y-15679579D01*
X17308876Y-15679579D02*
X17318400Y-15660531D01*
X17318400Y-15660531D02*
X17327924Y-15631960D01*
X17327924Y-15631960D02*
X17337448Y-15584341D01*
X17337448Y-15584341D02*
X17337448Y-15546246D01*
X17337448Y-15546246D02*
X17327924Y-15498627D01*
X17327924Y-15498627D02*
X17318400Y-15470055D01*
X17318400Y-15470055D02*
X17308876Y-15451008D01*
X17308876Y-15451008D02*
X17289829Y-15422436D01*
X17289829Y-15422436D02*
X17280305Y-15412912D01*
M02*
