%TF.GenerationSoftware,KiCad,Pcbnew,7.0.5-7.0.5~ubuntu22.04.1*%
%TF.CreationDate,2024-06-06T16:52:36+01:00*%
%TF.ProjectId,PBA0055-APRS-digirepeater-backplane-100x70,50424130-3035-4352-9d41-5052532d6469,rev?*%
%TF.SameCoordinates,Original*%
%TF.FileFunction,Copper,L2,Bot*%
%TF.FilePolarity,Positive*%
%FSLAX46Y46*%
G04 Gerber Fmt 4.6, Leading zero omitted, Abs format (unit mm)*
G04 Created by KiCad (PCBNEW 7.0.5-7.0.5~ubuntu22.04.1) date 2024-06-06 16:52:36*
%MOMM*%
%LPD*%
G01*
G04 APERTURE LIST*
G04 Aperture macros list*
%AMRoundRect*
0 Rectangle with rounded corners*
0 $1 Rounding radius*
0 $2 $3 $4 $5 $6 $7 $8 $9 X,Y pos of 4 corners*
0 Add a 4 corners polygon primitive as box body*
4,1,4,$2,$3,$4,$5,$6,$7,$8,$9,$2,$3,0*
0 Add four circle primitives for the rounded corners*
1,1,$1+$1,$2,$3*
1,1,$1+$1,$4,$5*
1,1,$1+$1,$6,$7*
1,1,$1+$1,$8,$9*
0 Add four rect primitives between the rounded corners*
20,1,$1+$1,$2,$3,$4,$5,0*
20,1,$1+$1,$4,$5,$6,$7,0*
20,1,$1+$1,$6,$7,$8,$9,0*
20,1,$1+$1,$8,$9,$2,$3,0*%
G04 Aperture macros list end*
%TA.AperFunction,ComponentPad*%
%ADD10RoundRect,0.250000X-0.600000X-0.750000X0.600000X-0.750000X0.600000X0.750000X-0.600000X0.750000X0*%
%TD*%
%TA.AperFunction,ComponentPad*%
%ADD11O,1.700000X2.000000*%
%TD*%
%TA.AperFunction,ComponentPad*%
%ADD12RoundRect,0.250000X0.750000X-0.600000X0.750000X0.600000X-0.750000X0.600000X-0.750000X-0.600000X0*%
%TD*%
%TA.AperFunction,ComponentPad*%
%ADD13O,2.000000X1.700000*%
%TD*%
%TA.AperFunction,ComponentPad*%
%ADD14RoundRect,0.250000X-0.625000X0.350000X-0.625000X-0.350000X0.625000X-0.350000X0.625000X0.350000X0*%
%TD*%
%TA.AperFunction,ComponentPad*%
%ADD15O,1.750000X1.200000*%
%TD*%
%TA.AperFunction,ViaPad*%
%ADD16C,0.800000*%
%TD*%
G04 APERTURE END LIST*
D10*
%TO.P,J2,1,Pin_1*%
%TO.N,+12V*%
X139000000Y-108050000D03*
D11*
%TO.P,J2,2,Pin_2*%
%TO.N,GND*%
X141500000Y-108050000D03*
%TD*%
D12*
%TO.P,J6,1,Pin_1*%
%TO.N,+12V*%
X108750000Y-113000000D03*
D13*
%TO.P,J6,2,Pin_2*%
%TO.N,GND*%
X108750000Y-110500000D03*
%TD*%
D14*
%TO.P,J1,1,Pin_1*%
%TO.N,Net-(D2-A)*%
X171300000Y-108450000D03*
D15*
%TO.P,J1,2,Pin_2*%
%TO.N,GND*%
X171300000Y-110450000D03*
%TD*%
D12*
%TO.P,J4,1,Pin_1*%
%TO.N,GND*%
X109750000Y-65000000D03*
D13*
%TO.P,J4,2,Pin_2*%
%TO.N,+3V8*%
X109750000Y-62500000D03*
%TD*%
D16*
%TO.N,GND*%
X174000000Y-72750000D03*
X140000000Y-123750000D03*
X107000000Y-72750000D03*
X125000000Y-84750000D03*
X156000000Y-84750000D03*
X125000000Y-144750000D03*
X107000000Y-84750000D03*
X157000000Y-123750000D03*
X107000000Y-58750000D03*
X174000000Y-102750000D03*
X125000000Y-72750000D03*
X156000000Y-72750000D03*
X174000000Y-123750000D03*
X107000000Y-102750000D03*
X165500000Y-107350000D03*
X173000000Y-84750000D03*
X140000000Y-84750000D03*
X125000000Y-123750000D03*
X140000000Y-72750000D03*
X107000000Y-123750000D03*
X174000000Y-58750000D03*
X160700000Y-107150000D03*
X174000000Y-138750000D03*
X107000000Y-138750000D03*
%TD*%
%TA.AperFunction,Conductor*%
%TO.N,GND*%
G36*
X127252018Y-49053526D02*
G01*
X127445616Y-49066214D01*
X127505630Y-49070147D01*
X127513667Y-49071205D01*
X127760943Y-49120392D01*
X127768757Y-49122486D01*
X128007509Y-49203531D01*
X128014983Y-49206626D01*
X128189238Y-49292559D01*
X128241105Y-49318137D01*
X128248127Y-49322191D01*
X128457752Y-49462257D01*
X128464186Y-49467193D01*
X128631822Y-49614207D01*
X128653732Y-49633421D01*
X128659472Y-49639162D01*
X128825697Y-49828703D01*
X128830638Y-49835141D01*
X128847644Y-49860592D01*
X128970700Y-50044759D01*
X128974760Y-50051790D01*
X129086263Y-50277896D01*
X129089370Y-50285396D01*
X129170407Y-50524120D01*
X129172508Y-50531962D01*
X129221692Y-50779223D01*
X129222752Y-50787272D01*
X129239367Y-51040751D01*
X129239500Y-51044808D01*
X129239500Y-51997912D01*
X129239499Y-55723254D01*
X129238633Y-55727612D01*
X129238634Y-55749999D01*
X129239141Y-55751222D01*
X129239500Y-55752088D01*
X129241964Y-55758036D01*
X129250000Y-55761365D01*
X129272409Y-55761365D01*
X129276757Y-55760500D01*
X140247912Y-55760500D01*
X151223243Y-55760500D01*
X151227591Y-55761365D01*
X151250000Y-55761365D01*
X151258036Y-55758036D01*
X151260500Y-55752088D01*
X151261365Y-55750000D01*
X151261364Y-55749999D01*
X151261366Y-55727613D01*
X151260500Y-55723254D01*
X151260500Y-53317763D01*
X169245787Y-53317763D01*
X169275413Y-53587013D01*
X169275415Y-53587024D01*
X169343926Y-53849082D01*
X169343928Y-53849088D01*
X169449870Y-54098390D01*
X169521998Y-54216575D01*
X169590979Y-54329605D01*
X169590986Y-54329615D01*
X169764253Y-54537819D01*
X169764259Y-54537824D01*
X169965998Y-54718582D01*
X170191910Y-54868044D01*
X170437176Y-54983020D01*
X170437183Y-54983022D01*
X170437185Y-54983023D01*
X170696557Y-55061057D01*
X170696564Y-55061058D01*
X170696569Y-55061060D01*
X170964561Y-55100500D01*
X170964566Y-55100500D01*
X171167629Y-55100500D01*
X171167631Y-55100500D01*
X171167636Y-55100499D01*
X171167648Y-55100499D01*
X171205191Y-55097750D01*
X171370156Y-55085677D01*
X171482758Y-55060593D01*
X171634546Y-55026782D01*
X171634548Y-55026781D01*
X171634553Y-55026780D01*
X171887558Y-54930014D01*
X172123777Y-54797441D01*
X172338177Y-54631888D01*
X172526186Y-54436881D01*
X172683799Y-54216579D01*
X172757787Y-54072669D01*
X172807649Y-53975690D01*
X172807651Y-53975684D01*
X172807656Y-53975675D01*
X172895118Y-53719305D01*
X172944319Y-53452933D01*
X172954212Y-53182235D01*
X172924586Y-52912982D01*
X172856072Y-52650912D01*
X172750130Y-52401610D01*
X172609018Y-52170390D01*
X172519747Y-52063119D01*
X172435746Y-51962180D01*
X172435740Y-51962175D01*
X172234002Y-51781418D01*
X172008092Y-51631957D01*
X172008090Y-51631956D01*
X171762824Y-51516980D01*
X171762819Y-51516978D01*
X171762814Y-51516976D01*
X171503442Y-51438942D01*
X171503428Y-51438939D01*
X171387791Y-51421921D01*
X171235439Y-51399500D01*
X171032369Y-51399500D01*
X171032351Y-51399500D01*
X170829844Y-51414323D01*
X170829831Y-51414325D01*
X170565453Y-51473217D01*
X170565446Y-51473220D01*
X170312439Y-51569987D01*
X170076226Y-51702557D01*
X169861822Y-51868112D01*
X169673822Y-52063109D01*
X169673816Y-52063116D01*
X169516202Y-52283419D01*
X169516199Y-52283424D01*
X169392350Y-52524309D01*
X169392343Y-52524327D01*
X169304884Y-52780685D01*
X169304881Y-52780699D01*
X169255681Y-53047068D01*
X169255680Y-53047075D01*
X169245787Y-53317763D01*
X151260500Y-53317763D01*
X151260500Y-51044915D01*
X151260633Y-51040859D01*
X151269137Y-50911118D01*
X151277255Y-50787260D01*
X151278314Y-50779224D01*
X151327498Y-50531964D01*
X151329596Y-50524130D01*
X151410638Y-50285392D01*
X151413743Y-50277898D01*
X151418668Y-50267912D01*
X151525251Y-50051782D01*
X151529305Y-50044763D01*
X151529308Y-50044759D01*
X151669374Y-49835135D01*
X151674303Y-49828713D01*
X151840537Y-49639162D01*
X151846262Y-49633435D01*
X152035827Y-49467191D01*
X152042240Y-49462270D01*
X152251878Y-49322195D01*
X152258894Y-49318144D01*
X152485024Y-49206630D01*
X152492483Y-49203540D01*
X152731244Y-49122492D01*
X152739058Y-49120398D01*
X152986337Y-49071211D01*
X152994366Y-49070154D01*
X153102079Y-49063095D01*
X153248085Y-49053526D01*
X153252141Y-49053393D01*
X153253412Y-49053393D01*
X174289482Y-49053393D01*
X174290186Y-49053393D01*
X174295589Y-49053628D01*
X174453916Y-49067479D01*
X174475190Y-49071230D01*
X174620844Y-49110256D01*
X174641152Y-49117648D01*
X174736932Y-49162309D01*
X174777820Y-49181375D01*
X174796531Y-49192178D01*
X174910812Y-49272197D01*
X174920049Y-49278665D01*
X174936607Y-49292559D01*
X174963680Y-49319632D01*
X174997165Y-49380955D01*
X174999999Y-49407313D01*
X175000000Y-148678467D01*
X174980315Y-148745506D01*
X174963684Y-148766144D01*
X174936605Y-148793223D01*
X174936606Y-148793223D01*
X174920049Y-148807115D01*
X174796528Y-148893605D01*
X174777810Y-148904412D01*
X174641156Y-148968135D01*
X174620844Y-148975528D01*
X174545281Y-148995775D01*
X174513188Y-149000000D01*
X152339518Y-149000000D01*
X152315326Y-148997617D01*
X152189067Y-148972502D01*
X152181233Y-148970403D01*
X151942494Y-148889362D01*
X151935010Y-148886262D01*
X151708897Y-148774756D01*
X151701867Y-148770697D01*
X151492251Y-148630636D01*
X151485816Y-148625698D01*
X151296267Y-148459469D01*
X151290528Y-148453730D01*
X151227029Y-148381323D01*
X151124299Y-148264181D01*
X151119367Y-148257753D01*
X150979302Y-148048132D01*
X150975245Y-148041107D01*
X150863733Y-147814982D01*
X150860639Y-147807512D01*
X150779593Y-147568756D01*
X150777499Y-147560942D01*
X150728312Y-147313667D01*
X150727254Y-147305627D01*
X150726788Y-147298523D01*
X150718671Y-147174668D01*
X150710633Y-147052018D01*
X150710500Y-147047962D01*
X150710500Y-144917763D01*
X169245787Y-144917763D01*
X169275413Y-145187013D01*
X169275415Y-145187024D01*
X169343926Y-145449082D01*
X169343928Y-145449088D01*
X169449870Y-145698390D01*
X169521998Y-145816575D01*
X169590979Y-145929605D01*
X169590986Y-145929615D01*
X169764253Y-146137819D01*
X169764259Y-146137824D01*
X169965998Y-146318582D01*
X170191910Y-146468044D01*
X170437176Y-146583020D01*
X170437183Y-146583022D01*
X170437185Y-146583023D01*
X170696557Y-146661057D01*
X170696564Y-146661058D01*
X170696569Y-146661060D01*
X170964561Y-146700500D01*
X170964566Y-146700500D01*
X171167629Y-146700500D01*
X171167631Y-146700500D01*
X171167636Y-146700499D01*
X171167648Y-146700499D01*
X171205191Y-146697750D01*
X171370156Y-146685677D01*
X171482758Y-146660593D01*
X171634546Y-146626782D01*
X171634548Y-146626781D01*
X171634553Y-146626780D01*
X171887558Y-146530014D01*
X172123777Y-146397441D01*
X172338177Y-146231888D01*
X172526186Y-146036881D01*
X172683799Y-145816579D01*
X172757787Y-145672669D01*
X172807649Y-145575690D01*
X172807651Y-145575684D01*
X172807656Y-145575675D01*
X172895118Y-145319305D01*
X172944319Y-145052933D01*
X172954212Y-144782235D01*
X172924586Y-144512982D01*
X172856072Y-144250912D01*
X172750130Y-144001610D01*
X172609018Y-143770390D01*
X172583311Y-143739500D01*
X172435746Y-143562180D01*
X172435740Y-143562175D01*
X172234002Y-143381418D01*
X172008092Y-143231957D01*
X172008090Y-143231956D01*
X171762824Y-143116980D01*
X171762819Y-143116978D01*
X171762814Y-143116976D01*
X171503442Y-143038942D01*
X171503428Y-143038939D01*
X171387791Y-143021921D01*
X171235439Y-142999500D01*
X171032369Y-142999500D01*
X171032351Y-142999500D01*
X170829844Y-143014323D01*
X170829831Y-143014325D01*
X170565453Y-143073217D01*
X170565446Y-143073220D01*
X170312439Y-143169987D01*
X170076226Y-143302557D01*
X169861822Y-143468112D01*
X169673822Y-143663109D01*
X169673816Y-143663116D01*
X169516202Y-143883419D01*
X169516199Y-143883424D01*
X169392350Y-144124309D01*
X169392343Y-144124327D01*
X169304884Y-144380685D01*
X169304881Y-144380699D01*
X169255681Y-144647068D01*
X169255680Y-144647075D01*
X169245787Y-144917763D01*
X150710500Y-144917763D01*
X150710500Y-143776756D01*
X150711365Y-143772409D01*
X150711365Y-143750000D01*
X150708036Y-143741964D01*
X150702088Y-143739500D01*
X150702085Y-143739498D01*
X150702084Y-143739498D01*
X150700001Y-143738635D01*
X150677592Y-143738635D01*
X150673244Y-143739500D01*
X129726756Y-143739500D01*
X129722408Y-143738635D01*
X129699999Y-143738635D01*
X129697912Y-143739499D01*
X129697912Y-143739500D01*
X129694938Y-143740732D01*
X129691963Y-143741964D01*
X129688635Y-143750000D01*
X129688635Y-143772409D01*
X129689500Y-143776756D01*
X129689500Y-147040855D01*
X129689367Y-147044911D01*
X129672745Y-147298523D01*
X129671685Y-147306572D01*
X129644535Y-147443071D01*
X129622505Y-147553825D01*
X129620403Y-147561667D01*
X129539368Y-147800392D01*
X129536263Y-147807887D01*
X129480510Y-147920945D01*
X129424759Y-148033997D01*
X129420700Y-148041028D01*
X129280641Y-148250642D01*
X129275699Y-148257083D01*
X129109473Y-148446627D01*
X129103732Y-148452367D01*
X128914191Y-148618592D01*
X128907750Y-148623535D01*
X128698133Y-148763596D01*
X128691103Y-148767655D01*
X128464995Y-148879159D01*
X128457495Y-148882266D01*
X128218775Y-148963301D01*
X128210933Y-148965402D01*
X128048978Y-148997617D01*
X128024787Y-149000000D01*
X106072613Y-149000000D01*
X106040519Y-148995775D01*
X105964943Y-148975524D01*
X105944633Y-148968131D01*
X105807978Y-148904407D01*
X105789259Y-148893599D01*
X105783215Y-148889367D01*
X105665750Y-148807115D01*
X105649193Y-148793223D01*
X105542568Y-148686597D01*
X105528675Y-148670039D01*
X105494530Y-148621275D01*
X105442193Y-148546529D01*
X105431386Y-148527811D01*
X105399519Y-148459471D01*
X105367660Y-148391146D01*
X105360269Y-148370838D01*
X105342743Y-148305429D01*
X105321244Y-148225191D01*
X105317492Y-148203907D01*
X105314471Y-148169371D01*
X105303627Y-148045408D01*
X105303393Y-148040046D01*
X105303393Y-148039482D01*
X105303393Y-144817763D01*
X107745787Y-144817763D01*
X107775413Y-145087013D01*
X107775415Y-145087024D01*
X107836144Y-145319314D01*
X107843928Y-145349088D01*
X107949870Y-145598390D01*
X108021998Y-145716575D01*
X108090979Y-145829605D01*
X108090986Y-145829615D01*
X108264253Y-146037819D01*
X108264259Y-146037824D01*
X108465998Y-146218582D01*
X108691910Y-146368044D01*
X108937176Y-146483020D01*
X108937183Y-146483022D01*
X108937185Y-146483023D01*
X109196557Y-146561057D01*
X109196564Y-146561058D01*
X109196569Y-146561060D01*
X109464561Y-146600500D01*
X109464566Y-146600500D01*
X109667629Y-146600500D01*
X109667631Y-146600500D01*
X109667636Y-146600499D01*
X109667648Y-146600499D01*
X109705191Y-146597750D01*
X109870156Y-146585677D01*
X109982758Y-146560593D01*
X110134546Y-146526782D01*
X110134548Y-146526781D01*
X110134553Y-146526780D01*
X110387558Y-146430014D01*
X110623777Y-146297441D01*
X110838177Y-146131888D01*
X111026186Y-145936881D01*
X111183799Y-145716579D01*
X111257787Y-145572669D01*
X111307649Y-145475690D01*
X111307651Y-145475684D01*
X111307656Y-145475675D01*
X111395118Y-145219305D01*
X111444319Y-144952933D01*
X111454212Y-144682235D01*
X111424586Y-144412982D01*
X111356072Y-144150912D01*
X111250130Y-143901610D01*
X111109018Y-143670390D01*
X111019747Y-143563119D01*
X110935746Y-143462180D01*
X110935740Y-143462175D01*
X110734002Y-143281418D01*
X110508092Y-143131957D01*
X110476143Y-143116980D01*
X110262824Y-143016980D01*
X110262819Y-143016978D01*
X110262814Y-143016976D01*
X110003442Y-142938942D01*
X110003428Y-142938939D01*
X109887791Y-142921921D01*
X109735439Y-142899500D01*
X109532369Y-142899500D01*
X109532351Y-142899500D01*
X109329844Y-142914323D01*
X109329831Y-142914325D01*
X109065453Y-142973217D01*
X109065446Y-142973220D01*
X108812439Y-143069987D01*
X108576226Y-143202557D01*
X108361822Y-143368112D01*
X108173822Y-143563109D01*
X108173816Y-143563116D01*
X108016202Y-143783419D01*
X108016199Y-143783424D01*
X107892350Y-144024309D01*
X107892343Y-144024327D01*
X107804884Y-144280685D01*
X107804881Y-144280699D01*
X107755681Y-144547068D01*
X107755680Y-144547075D01*
X107745787Y-144817763D01*
X105303393Y-144817763D01*
X105303393Y-131000000D01*
X149734829Y-131000000D01*
X149753482Y-131237020D01*
X149753482Y-131237023D01*
X149753483Y-131237025D01*
X149808987Y-131468214D01*
X149808988Y-131468216D01*
X149899972Y-131687873D01*
X150024199Y-131890592D01*
X150024202Y-131890597D01*
X150094195Y-131972548D01*
X150178612Y-132071388D01*
X150294337Y-132170226D01*
X150359402Y-132225797D01*
X150359407Y-132225800D01*
X150562126Y-132350027D01*
X150639786Y-132382194D01*
X150781786Y-132441013D01*
X151012975Y-132496517D01*
X151250000Y-132515171D01*
X151487025Y-132496517D01*
X151718214Y-132441013D01*
X151937873Y-132350027D01*
X152140595Y-132225799D01*
X152321388Y-132071388D01*
X152475799Y-131890595D01*
X152600027Y-131687873D01*
X152691013Y-131468214D01*
X152746517Y-131237025D01*
X152765171Y-131000000D01*
X152746517Y-130762975D01*
X152691013Y-130531786D01*
X152600027Y-130312127D01*
X152600027Y-130312126D01*
X152475800Y-130109407D01*
X152475797Y-130109402D01*
X152420226Y-130044337D01*
X152321388Y-129928612D01*
X152222548Y-129844195D01*
X152140597Y-129774202D01*
X152140592Y-129774199D01*
X151937873Y-129649972D01*
X151718216Y-129558988D01*
X151718214Y-129558987D01*
X151487025Y-129503483D01*
X151487023Y-129503482D01*
X151487020Y-129503482D01*
X151277222Y-129486971D01*
X151250000Y-129484829D01*
X151249999Y-129484829D01*
X151012979Y-129503482D01*
X151012974Y-129503483D01*
X151012975Y-129503483D01*
X150781786Y-129558987D01*
X150781784Y-129558987D01*
X150781783Y-129558988D01*
X150562126Y-129649972D01*
X150359407Y-129774199D01*
X150359402Y-129774202D01*
X150178612Y-129928612D01*
X150024202Y-130109402D01*
X150024199Y-130109407D01*
X149899972Y-130312126D01*
X149808988Y-130531783D01*
X149753482Y-130762979D01*
X149734829Y-131000000D01*
X105303393Y-131000000D01*
X105303393Y-117557521D01*
X137739500Y-117557521D01*
X137765100Y-117669678D01*
X137815009Y-117773316D01*
X137815012Y-117773321D01*
X137886738Y-117863262D01*
X137976679Y-117934988D01*
X137976682Y-117934989D01*
X137976683Y-117934990D01*
X138080321Y-117984899D01*
X138080323Y-117984899D01*
X138080326Y-117984901D01*
X138192480Y-118010500D01*
X147307520Y-118010500D01*
X147419674Y-117984901D01*
X147523321Y-117934988D01*
X147613262Y-117863262D01*
X147684988Y-117773321D01*
X147734901Y-117669674D01*
X147760500Y-117557520D01*
X147760500Y-117500000D01*
X147760500Y-117496588D01*
X147760500Y-114497912D01*
X147760500Y-114442480D01*
X147734901Y-114330326D01*
X147726136Y-114312126D01*
X147684990Y-114226683D01*
X147684987Y-114226678D01*
X147613262Y-114136738D01*
X147523321Y-114065012D01*
X147523316Y-114065009D01*
X147419678Y-114015100D01*
X147419679Y-114015100D01*
X147307521Y-113989500D01*
X147307520Y-113989500D01*
X147252088Y-113989500D01*
X138253412Y-113989500D01*
X138250000Y-113989500D01*
X138192480Y-113989500D01*
X138192478Y-113989500D01*
X138080321Y-114015100D01*
X137976683Y-114065009D01*
X137976678Y-114065012D01*
X137886738Y-114136738D01*
X137815012Y-114226678D01*
X137815009Y-114226683D01*
X137765100Y-114330321D01*
X137739500Y-114442478D01*
X137739500Y-117557521D01*
X105303393Y-117557521D01*
X105303393Y-115000000D01*
X119734829Y-115000000D01*
X119753482Y-115237020D01*
X119753482Y-115237023D01*
X119753483Y-115237025D01*
X119808987Y-115468214D01*
X119808988Y-115468216D01*
X119899972Y-115687873D01*
X120024199Y-115890592D01*
X120024202Y-115890597D01*
X120094195Y-115972548D01*
X120178612Y-116071388D01*
X120294337Y-116170226D01*
X120359402Y-116225797D01*
X120359407Y-116225800D01*
X120562126Y-116350027D01*
X120639786Y-116382194D01*
X120781786Y-116441013D01*
X121012975Y-116496517D01*
X121250000Y-116515171D01*
X121487025Y-116496517D01*
X121718214Y-116441013D01*
X121937873Y-116350027D01*
X122140595Y-116225799D01*
X122321388Y-116071388D01*
X122475799Y-115890595D01*
X122600027Y-115687873D01*
X122691013Y-115468214D01*
X122746517Y-115237025D01*
X122765171Y-115000000D01*
X122746517Y-114762975D01*
X122691013Y-114531786D01*
X122625369Y-114373308D01*
X122600027Y-114312126D01*
X122475800Y-114109407D01*
X122475797Y-114109402D01*
X122395254Y-114015099D01*
X122321388Y-113928612D01*
X122220362Y-113842328D01*
X122140597Y-113774202D01*
X122140592Y-113774199D01*
X121937873Y-113649972D01*
X121718216Y-113558988D01*
X121718214Y-113558987D01*
X121487025Y-113503483D01*
X121487023Y-113503482D01*
X121487020Y-113503482D01*
X121250000Y-113484829D01*
X121012979Y-113503482D01*
X121012974Y-113503483D01*
X121012975Y-113503483D01*
X120781786Y-113558987D01*
X120781784Y-113558987D01*
X120781783Y-113558988D01*
X120562126Y-113649972D01*
X120359407Y-113774199D01*
X120359402Y-113774202D01*
X120178612Y-113928612D01*
X120024202Y-114109402D01*
X120024199Y-114109407D01*
X119899972Y-114312126D01*
X119808988Y-114531783D01*
X119753482Y-114762979D01*
X119734829Y-115000000D01*
X105303393Y-115000000D01*
X105303393Y-113647870D01*
X107499500Y-113647870D01*
X107499501Y-113647876D01*
X107505908Y-113707483D01*
X107556202Y-113842328D01*
X107556206Y-113842335D01*
X107642452Y-113957544D01*
X107642455Y-113957547D01*
X107757664Y-114043793D01*
X107757671Y-114043797D01*
X107892517Y-114094091D01*
X107892516Y-114094091D01*
X107899444Y-114094835D01*
X107952127Y-114100500D01*
X109547872Y-114100499D01*
X109607483Y-114094091D01*
X109742331Y-114043796D01*
X109857546Y-113957546D01*
X109943796Y-113842331D01*
X109994091Y-113707483D01*
X110000500Y-113647873D01*
X110000499Y-112352128D01*
X109994091Y-112292517D01*
X109943796Y-112157669D01*
X109943795Y-112157668D01*
X109943793Y-112157664D01*
X109857547Y-112042455D01*
X109857544Y-112042452D01*
X109742335Y-111956206D01*
X109742328Y-111956202D01*
X109607482Y-111905908D01*
X109607483Y-111905908D01*
X109547883Y-111899501D01*
X109547881Y-111899500D01*
X109547873Y-111899500D01*
X109547864Y-111899500D01*
X107952129Y-111899500D01*
X107952123Y-111899501D01*
X107892516Y-111905908D01*
X107757671Y-111956202D01*
X107757664Y-111956206D01*
X107642455Y-112042452D01*
X107642452Y-112042455D01*
X107556206Y-112157664D01*
X107556202Y-112157671D01*
X107505908Y-112292517D01*
X107499501Y-112352116D01*
X107499501Y-112352123D01*
X107499500Y-112352135D01*
X107499500Y-113647870D01*
X105303393Y-113647870D01*
X105303393Y-110200000D01*
X169949632Y-110200000D01*
X171020440Y-110200000D01*
X170981722Y-110242059D01*
X170931449Y-110356670D01*
X170921114Y-110481395D01*
X170951837Y-110602719D01*
X171015394Y-110700000D01*
X169953742Y-110700000D01*
X169980770Y-110811409D01*
X170068040Y-111002507D01*
X170189889Y-111173619D01*
X170189895Y-111173625D01*
X170341932Y-111318592D01*
X170518657Y-111432166D01*
X170713685Y-111510244D01*
X170919962Y-111550000D01*
X171050000Y-111550000D01*
X171050000Y-110730617D01*
X171119052Y-110784363D01*
X171237424Y-110825000D01*
X171331073Y-110825000D01*
X171423446Y-110809586D01*
X171533514Y-110750019D01*
X171550000Y-110732110D01*
X171550000Y-111550000D01*
X171627398Y-111550000D01*
X171784122Y-111535034D01*
X171784126Y-111535033D01*
X171985686Y-111475850D01*
X172172414Y-111379586D01*
X172337537Y-111249731D01*
X172337540Y-111249728D01*
X172475105Y-111090969D01*
X172475114Y-111090958D01*
X172580144Y-110909039D01*
X172580147Y-110909032D01*
X172648855Y-110710517D01*
X172648855Y-110710515D01*
X172650368Y-110700000D01*
X171579560Y-110700000D01*
X171618278Y-110657941D01*
X171668551Y-110543330D01*
X171678886Y-110418605D01*
X171648163Y-110297281D01*
X171584606Y-110200000D01*
X172646257Y-110200000D01*
X172619229Y-110088590D01*
X172531959Y-109897492D01*
X172410110Y-109726380D01*
X172410104Y-109726374D01*
X172258067Y-109581407D01*
X172100729Y-109480293D01*
X172054974Y-109427489D01*
X172045030Y-109358330D01*
X172074055Y-109294775D01*
X172124436Y-109259795D01*
X172167326Y-109243798D01*
X172167326Y-109243797D01*
X172167331Y-109243796D01*
X172282546Y-109157546D01*
X172368796Y-109042331D01*
X172419091Y-108907483D01*
X172425500Y-108847873D01*
X172425499Y-108052128D01*
X172419091Y-107992517D01*
X172368796Y-107857669D01*
X172368795Y-107857668D01*
X172368793Y-107857664D01*
X172282547Y-107742455D01*
X172282544Y-107742452D01*
X172167335Y-107656206D01*
X172167328Y-107656202D01*
X172032482Y-107605908D01*
X172032483Y-107605908D01*
X171972883Y-107599501D01*
X171972881Y-107599500D01*
X171972873Y-107599500D01*
X171972864Y-107599500D01*
X170627129Y-107599500D01*
X170627123Y-107599501D01*
X170567516Y-107605908D01*
X170432671Y-107656202D01*
X170432664Y-107656206D01*
X170317455Y-107742452D01*
X170317452Y-107742455D01*
X170231206Y-107857664D01*
X170231202Y-107857671D01*
X170180908Y-107992517D01*
X170174501Y-108052116D01*
X170174501Y-108052123D01*
X170174500Y-108052135D01*
X170174500Y-108847870D01*
X170174501Y-108847876D01*
X170180908Y-108907483D01*
X170231202Y-109042328D01*
X170231206Y-109042335D01*
X170317452Y-109157544D01*
X170317455Y-109157547D01*
X170432664Y-109243793D01*
X170432671Y-109243797D01*
X170478414Y-109260858D01*
X170534348Y-109302729D01*
X170558765Y-109368193D01*
X170543914Y-109436466D01*
X170494509Y-109485872D01*
X170491902Y-109487255D01*
X170427587Y-109520411D01*
X170262462Y-109650268D01*
X170262459Y-109650271D01*
X170124894Y-109809030D01*
X170124885Y-109809041D01*
X170019855Y-109990960D01*
X170019852Y-109990967D01*
X169951144Y-110189482D01*
X169951144Y-110189484D01*
X169949632Y-110200000D01*
X105303393Y-110200000D01*
X105303393Y-108847870D01*
X137899500Y-108847870D01*
X137899501Y-108847876D01*
X137905908Y-108907483D01*
X137956202Y-109042328D01*
X137956206Y-109042335D01*
X138042452Y-109157544D01*
X138042455Y-109157547D01*
X138157664Y-109243793D01*
X138157671Y-109243797D01*
X138292517Y-109294091D01*
X138292516Y-109294091D01*
X138298879Y-109294775D01*
X138352127Y-109300500D01*
X139647872Y-109300499D01*
X139707483Y-109294091D01*
X139842331Y-109243796D01*
X139957546Y-109157546D01*
X140043796Y-109042331D01*
X140094091Y-108907483D01*
X140100500Y-108847873D01*
X140100499Y-107252128D01*
X140094091Y-107192517D01*
X140043796Y-107057669D01*
X140043795Y-107057668D01*
X140043793Y-107057664D01*
X139957547Y-106942455D01*
X139957544Y-106942452D01*
X139842335Y-106856206D01*
X139842328Y-106856202D01*
X139707482Y-106805908D01*
X139707483Y-106805908D01*
X139647883Y-106799501D01*
X139647881Y-106799500D01*
X139647873Y-106799500D01*
X139647864Y-106799500D01*
X138352129Y-106799500D01*
X138352123Y-106799501D01*
X138292516Y-106805908D01*
X138157671Y-106856202D01*
X138157664Y-106856206D01*
X138042455Y-106942452D01*
X138042452Y-106942455D01*
X137956206Y-107057664D01*
X137956202Y-107057671D01*
X137905908Y-107192517D01*
X137899501Y-107252116D01*
X137899501Y-107252123D01*
X137899500Y-107252135D01*
X137899500Y-108847870D01*
X105303393Y-108847870D01*
X105303393Y-100887522D01*
X111079500Y-100887522D01*
X111116952Y-101160003D01*
X111116953Y-101160009D01*
X111191159Y-101424853D01*
X111300730Y-101677114D01*
X111300735Y-101677122D01*
X111443644Y-101912125D01*
X111617221Y-102125480D01*
X111750888Y-102250316D01*
X111818227Y-102313207D01*
X111818229Y-102313208D01*
X111818233Y-102313212D01*
X112042934Y-102471823D01*
X112042933Y-102471823D01*
X112042935Y-102471824D01*
X112287143Y-102598362D01*
X112546306Y-102690469D01*
X112815597Y-102746428D01*
X113090000Y-102765198D01*
X113364403Y-102746428D01*
X113633694Y-102690469D01*
X113892857Y-102598362D01*
X114137065Y-102471824D01*
X114361767Y-102313212D01*
X114562779Y-102125480D01*
X114736356Y-101912125D01*
X114879265Y-101677122D01*
X114879267Y-101677117D01*
X114879269Y-101677114D01*
X114988840Y-101424853D01*
X114988842Y-101424849D01*
X115063048Y-101160004D01*
X115100500Y-100887522D01*
X115100500Y-100750000D01*
X115100500Y-100746588D01*
X115100500Y-100695234D01*
X115100499Y-100695225D01*
X115100500Y-99247912D01*
X115100500Y-99112477D01*
X115082167Y-98979096D01*
X115063048Y-98839996D01*
X114988842Y-98575151D01*
X114937688Y-98457381D01*
X114879269Y-98322885D01*
X114736356Y-98087875D01*
X114562781Y-97874523D01*
X114562779Y-97874520D01*
X114436480Y-97756565D01*
X114361772Y-97686792D01*
X114361769Y-97686789D01*
X114361767Y-97686788D01*
X114137065Y-97528176D01*
X114137066Y-97528176D01*
X113892853Y-97401636D01*
X113633699Y-97309532D01*
X113633696Y-97309531D01*
X113464735Y-97274421D01*
X113364403Y-97253572D01*
X113364401Y-97253571D01*
X113364397Y-97253571D01*
X113090000Y-97234802D01*
X112815602Y-97253571D01*
X112546303Y-97309531D01*
X112546300Y-97309532D01*
X112287146Y-97401636D01*
X112042934Y-97528176D01*
X111908113Y-97623343D01*
X111818233Y-97686788D01*
X111818230Y-97686789D01*
X111818228Y-97686792D01*
X111818227Y-97686792D01*
X111617218Y-97874523D01*
X111443643Y-98087875D01*
X111300730Y-98322885D01*
X111191159Y-98575146D01*
X111116953Y-98839990D01*
X111116952Y-98839996D01*
X111079500Y-99112477D01*
X111079500Y-100887522D01*
X105303393Y-100887522D01*
X105303393Y-62447401D01*
X108495746Y-62447401D01*
X108505745Y-62657327D01*
X108555296Y-62861578D01*
X108555298Y-62861582D01*
X108642598Y-63052743D01*
X108642601Y-63052748D01*
X108642602Y-63052750D01*
X108642604Y-63052753D01*
X108705627Y-63141256D01*
X108764515Y-63223953D01*
X108764520Y-63223959D01*
X108916620Y-63368985D01*
X109011578Y-63430011D01*
X109093428Y-63482613D01*
X109288543Y-63560725D01*
X109391729Y-63580612D01*
X109494914Y-63600500D01*
X109494915Y-63600500D01*
X109952419Y-63600500D01*
X109952425Y-63600500D01*
X110109218Y-63585528D01*
X110310875Y-63526316D01*
X110497682Y-63430011D01*
X110662886Y-63300092D01*
X110800519Y-63141256D01*
X110905604Y-62959244D01*
X110974344Y-62760633D01*
X111004254Y-62552602D01*
X110994254Y-62342670D01*
X110944704Y-62138424D01*
X110944701Y-62138417D01*
X110857401Y-61947256D01*
X110857398Y-61947251D01*
X110857397Y-61947250D01*
X110857396Y-61947247D01*
X110735486Y-61776048D01*
X110735484Y-61776046D01*
X110735479Y-61776040D01*
X110583379Y-61631014D01*
X110406574Y-61517388D01*
X110211455Y-61439274D01*
X110005086Y-61399500D01*
X110005085Y-61399500D01*
X109547575Y-61399500D01*
X109390781Y-61414472D01*
X109390782Y-61414472D01*
X109390778Y-61414473D01*
X109189127Y-61473683D01*
X109002313Y-61569991D01*
X108837116Y-61699905D01*
X108837112Y-61699909D01*
X108699478Y-61858746D01*
X108594398Y-62040750D01*
X108525656Y-62239365D01*
X108525656Y-62239367D01*
X108510804Y-62342670D01*
X108495746Y-62447401D01*
X105303393Y-62447401D01*
X105303393Y-53317763D01*
X107645787Y-53317763D01*
X107675413Y-53587013D01*
X107675415Y-53587024D01*
X107743926Y-53849082D01*
X107743928Y-53849088D01*
X107849870Y-54098390D01*
X107921998Y-54216575D01*
X107990979Y-54329605D01*
X107990986Y-54329615D01*
X108164253Y-54537819D01*
X108164259Y-54537824D01*
X108365998Y-54718582D01*
X108591910Y-54868044D01*
X108837176Y-54983020D01*
X108837183Y-54983022D01*
X108837185Y-54983023D01*
X109096557Y-55061057D01*
X109096564Y-55061058D01*
X109096569Y-55061060D01*
X109364561Y-55100500D01*
X109364566Y-55100500D01*
X109567629Y-55100500D01*
X109567631Y-55100500D01*
X109567636Y-55100499D01*
X109567648Y-55100499D01*
X109605191Y-55097750D01*
X109770156Y-55085677D01*
X109882758Y-55060593D01*
X110034546Y-55026782D01*
X110034548Y-55026781D01*
X110034553Y-55026780D01*
X110287558Y-54930014D01*
X110523777Y-54797441D01*
X110738177Y-54631888D01*
X110926186Y-54436881D01*
X111083799Y-54216579D01*
X111157787Y-54072669D01*
X111207649Y-53975690D01*
X111207651Y-53975684D01*
X111207656Y-53975675D01*
X111295118Y-53719305D01*
X111344319Y-53452933D01*
X111354212Y-53182235D01*
X111324586Y-52912982D01*
X111256072Y-52650912D01*
X111150130Y-52401610D01*
X111009018Y-52170390D01*
X110919747Y-52063119D01*
X110835746Y-51962180D01*
X110835740Y-51962175D01*
X110634002Y-51781418D01*
X110408092Y-51631957D01*
X110408090Y-51631956D01*
X110162824Y-51516980D01*
X110162819Y-51516978D01*
X110162814Y-51516976D01*
X109903442Y-51438942D01*
X109903428Y-51438939D01*
X109787791Y-51421921D01*
X109635439Y-51399500D01*
X109432369Y-51399500D01*
X109432351Y-51399500D01*
X109229844Y-51414323D01*
X109229831Y-51414325D01*
X108965453Y-51473217D01*
X108965446Y-51473220D01*
X108712439Y-51569987D01*
X108476226Y-51702557D01*
X108261822Y-51868112D01*
X108073822Y-52063109D01*
X108073816Y-52063116D01*
X107916202Y-52283419D01*
X107916199Y-52283424D01*
X107792350Y-52524309D01*
X107792343Y-52524327D01*
X107704884Y-52780685D01*
X107704881Y-52780699D01*
X107655681Y-53047068D01*
X107655680Y-53047075D01*
X107645787Y-53317763D01*
X105303393Y-53317763D01*
X105303393Y-50045577D01*
X105303626Y-50040221D01*
X105317481Y-49881873D01*
X105321234Y-49860592D01*
X105342733Y-49780358D01*
X105360263Y-49714935D01*
X105367651Y-49694638D01*
X105431378Y-49557976D01*
X105442184Y-49539261D01*
X105528674Y-49415740D01*
X105542562Y-49399188D01*
X105649188Y-49292562D01*
X105665740Y-49278674D01*
X105789261Y-49192184D01*
X105807976Y-49181378D01*
X105944638Y-49117651D01*
X105964935Y-49110263D01*
X106110595Y-49071233D01*
X106131875Y-49067481D01*
X106290198Y-49053628D01*
X106295600Y-49053393D01*
X106296305Y-49053393D01*
X127246588Y-49053393D01*
X127247962Y-49053393D01*
X127252018Y-49053526D01*
G37*
%TD.AperFunction*%
%TD*%
M02*
